G04 #@! TF.FileFunction,Copper,L1,Top,Signal*
%FSLAX46Y46*%
G04 Gerber Fmt 4.6, Leading zero omitted, Abs format (unit mm)*
G04 Created by KiCad (PCBNEW 4.0.1-3.201512221401+6198~38~ubuntu15.10.1-stable) date Sun Feb 28 18:25:08 2016*
%MOMM*%
G01*
G04 APERTURE LIST*
%ADD10C,0.050800*%
%ADD11C,0.150000*%
%ADD12C,2.032000*%
%ADD13C,6.096000*%
%ADD14C,1.778000*%
%ADD15C,1.270000*%
%ADD16C,0.350000*%
%ADD17C,0.381000*%
%ADD18C,0.254000*%
G04 APERTURE END LIST*
D10*
D11*
X3810000Y25400000D02*
G75*
G03X0Y21590000I0J-3810000D01*
G01*
X0Y3810000D02*
G75*
G03X3810000Y0I3810000J0D01*
G01*
X21590000Y0D02*
G75*
G03X25400000Y3810000I0J3810000D01*
G01*
X25400000Y21590000D02*
G75*
G03X21590000Y25400000I-3810000J0D01*
G01*
X0Y3810000D02*
X0Y21590000D01*
X21590000Y0D02*
X3810000Y0D01*
X25400000Y21590000D02*
X25400000Y3810000D01*
X3810000Y25400000D02*
X21590000Y25400000D01*
D12*
X3810000Y17145000D03*
X3810000Y14605000D03*
X21590000Y17145000D03*
X21590000Y14605000D03*
D13*
X21590000Y3810000D03*
X3810000Y3810000D03*
D14*
X8255000Y19939000D03*
X8255000Y11811000D03*
X8636000Y22860000D03*
X16764000Y22860000D03*
X17145000Y19939000D03*
X17145000Y11811000D03*
X16764000Y6350000D03*
X8636000Y6350000D03*
X4445000Y11430000D03*
X4445000Y8890000D03*
X20955000Y11430000D03*
X20955000Y8890000D03*
X21590000Y22860000D03*
X21590000Y20320000D03*
X12700000Y13208000D03*
X12700000Y9652000D03*
X12700000Y19685000D03*
X12700000Y17145000D03*
D15*
X3810000Y20320000D03*
X2540000Y21590000D03*
X5080000Y21590000D03*
X25400000Y20955000D03*
X0Y20955000D03*
X0Y19685000D03*
X0Y18415000D03*
X0Y17145000D03*
X0Y15875000D03*
X0Y14605000D03*
X0Y13335000D03*
X0Y12065000D03*
X0Y10795000D03*
X0Y9525000D03*
X0Y8255000D03*
X0Y6985000D03*
X0Y5715000D03*
X0Y4445000D03*
X25400000Y19685000D03*
X25400000Y18415000D03*
X25400000Y17145000D03*
X25400000Y15875000D03*
X25400000Y14605000D03*
X25400000Y13335000D03*
X25400000Y12065000D03*
X25400000Y10795000D03*
X25400000Y9525000D03*
X25400000Y8255000D03*
X25400000Y6985000D03*
X25400000Y5715000D03*
X25400000Y4445000D03*
D16*
X18415000Y10541000D02*
X20066000Y10541000D01*
X20066000Y10541000D02*
X20955000Y11430000D01*
X18415000Y5715000D02*
X18415000Y10541000D01*
X18415000Y10541000D02*
X17145000Y11811000D01*
X9525000Y9525000D02*
X7620000Y9525000D01*
X18415000Y5715000D02*
X17145000Y4445000D01*
X17145000Y4445000D02*
X14605000Y4445000D01*
X14605000Y4445000D02*
X9525000Y9525000D01*
X7620000Y9525000D02*
X5715000Y11430000D01*
X5715000Y11430000D02*
X4445000Y11430000D01*
X16764000Y24765000D02*
X19685000Y24765000D01*
X19685000Y24765000D02*
X21590000Y22860000D01*
X23368000Y11303000D02*
X20955000Y8890000D01*
X23368000Y21082000D02*
X23368000Y11303000D01*
X23368000Y21082000D02*
X21590000Y22860000D01*
X16764000Y22860000D02*
X16764000Y24765000D01*
X8255000Y24765000D02*
X16764000Y24765000D01*
X5080000Y21590000D02*
X8255000Y24765000D01*
X12700000Y13208000D02*
X9652000Y13208000D01*
X9652000Y13208000D02*
X8255000Y11811000D01*
X4445000Y8890000D02*
X6096000Y8890000D01*
X6096000Y8890000D02*
X8636000Y6350000D01*
D17*
X3810000Y14605000D02*
X1270000Y14605000D01*
X635000Y4445000D02*
X635000Y5715000D01*
X0Y4445000D02*
X635000Y4445000D01*
X635000Y5715000D02*
X1270000Y6350000D01*
X0Y5715000D02*
X635000Y5715000D01*
D16*
X1270000Y8255000D02*
X1270000Y6985000D01*
X1270000Y6985000D02*
X1270000Y6350000D01*
D17*
X0Y6985000D02*
X1270000Y6985000D01*
D16*
X1270000Y9525000D02*
X1270000Y8255000D01*
D17*
X0Y8255000D02*
X1270000Y8255000D01*
D16*
X1270000Y10795000D02*
X1270000Y9525000D01*
D17*
X0Y9525000D02*
X1270000Y9525000D01*
D16*
X1270000Y12065000D02*
X1270000Y10795000D01*
D17*
X0Y10795000D02*
X1270000Y10795000D01*
X0Y12065000D02*
X1270000Y12065000D01*
X1270000Y12065000D02*
X1270000Y13335000D01*
X1270000Y13335000D02*
X1270000Y14605000D01*
X0Y13335000D02*
X1270000Y13335000D01*
X1270000Y14605000D02*
X1270000Y15875000D01*
X0Y14605000D02*
X1270000Y14605000D01*
X1270000Y15875000D02*
X1270000Y17145000D01*
X0Y15875000D02*
X1270000Y15875000D01*
X1270000Y17145000D02*
X1270000Y19685000D01*
X0Y17145000D02*
X1270000Y17145000D01*
X0Y18415000D02*
X1270000Y18415000D01*
X1270000Y19685000D02*
X1270000Y20955000D01*
X0Y19685000D02*
X1270000Y19685000D01*
X1270000Y20955000D02*
X0Y20955000D01*
D16*
X8636000Y22860000D02*
X12192000Y22860000D01*
X12700000Y22352000D02*
X12700000Y19685000D01*
X12192000Y22860000D02*
X12700000Y22352000D01*
X1270000Y6350000D02*
X3810000Y3810000D01*
X3810000Y17145000D02*
X7620000Y17145000D01*
X8255000Y17780000D02*
X8255000Y19939000D01*
X7620000Y17145000D02*
X8255000Y17780000D01*
X13970000Y19685000D02*
X14224000Y19939000D01*
X14224000Y19939000D02*
X17145000Y19939000D01*
X12700000Y19685000D02*
X13970000Y19685000D01*
X10795000Y19685000D02*
X10541000Y19939000D01*
X10541000Y19939000D02*
X8255000Y19939000D01*
X12700000Y19685000D02*
X10795000Y19685000D01*
X3810000Y17145000D02*
X3810000Y14605000D01*
X16764000Y6350000D02*
X16764000Y9271000D01*
X15240000Y14605000D02*
X12700000Y17145000D01*
X15240000Y10795000D02*
X15240000Y14605000D01*
X16764000Y9271000D02*
X15240000Y10795000D01*
D18*
G36*
X5204380Y22859892D02*
X4828490Y22860220D01*
X4361542Y22667282D01*
X4003974Y22310337D01*
X3810221Y21843727D01*
X3810219Y21841512D01*
X3617282Y22308458D01*
X3260337Y22666026D01*
X2793727Y22859779D01*
X2288490Y22860220D01*
X1821542Y22667282D01*
X1463974Y22310337D01*
X1270221Y21843727D01*
X1269780Y21338490D01*
X1462718Y20871542D01*
X1819663Y20513974D01*
X2286273Y20320221D01*
X2540000Y20320000D01*
X2539780Y20068490D01*
X2732718Y19601542D01*
X3089663Y19243974D01*
X3556273Y19050221D01*
X4061510Y19049780D01*
X4528458Y19242718D01*
X4886026Y19599663D01*
X5079779Y20066273D01*
X5079875Y20177035D01*
X6719484Y20177035D01*
X6745277Y19571300D01*
X6927461Y19131467D01*
X7182804Y19046409D01*
X8075395Y19939000D01*
X8434605Y19939000D01*
X9327196Y19046409D01*
X9582539Y19131467D01*
X9790516Y19700965D01*
X9781060Y19923035D01*
X11164484Y19923035D01*
X11190277Y19317300D01*
X11372461Y18877467D01*
X11627804Y18792409D01*
X12520395Y19685000D01*
X12879605Y19685000D01*
X13772196Y18792409D01*
X13995528Y18866804D01*
X16252409Y18866804D01*
X16337467Y18611461D01*
X16906965Y18403484D01*
X17512700Y18429277D01*
X17952533Y18611461D01*
X18037591Y18866804D01*
X17145000Y19759395D01*
X16252409Y18866804D01*
X13995528Y18866804D01*
X14027539Y18877467D01*
X14235516Y19446965D01*
X14209723Y20052700D01*
X14158222Y20177035D01*
X15609484Y20177035D01*
X15635277Y19571300D01*
X15817461Y19131467D01*
X16072804Y19046409D01*
X16965395Y19939000D01*
X17324605Y19939000D01*
X18217196Y19046409D01*
X18472539Y19131467D01*
X18680516Y19700965D01*
X18654723Y20306700D01*
X18472539Y20746533D01*
X18217196Y20831591D01*
X17324605Y19939000D01*
X16965395Y19939000D01*
X16072804Y20831591D01*
X15817461Y20746533D01*
X15609484Y20177035D01*
X14158222Y20177035D01*
X14027539Y20492533D01*
X13772196Y20577591D01*
X12879605Y19685000D01*
X12520395Y19685000D01*
X11627804Y20577591D01*
X11372461Y20492533D01*
X11164484Y19923035D01*
X9781060Y19923035D01*
X9764723Y20306700D01*
X9582539Y20746533D01*
X9550529Y20757196D01*
X11807409Y20757196D01*
X12700000Y19864605D01*
X13592591Y20757196D01*
X13507533Y21012539D01*
X12938035Y21220516D01*
X12332300Y21194723D01*
X11892467Y21012539D01*
X11807409Y20757196D01*
X9550529Y20757196D01*
X9327196Y20831591D01*
X8434605Y19939000D01*
X8075395Y19939000D01*
X7182804Y20831591D01*
X6927461Y20746533D01*
X6719484Y20177035D01*
X5079875Y20177035D01*
X5080000Y20320000D01*
X5331510Y20319780D01*
X5798458Y20512718D01*
X6156026Y20869663D01*
X6214795Y21011196D01*
X7362409Y21011196D01*
X8255000Y20118605D01*
X9147591Y21011196D01*
X9062533Y21266539D01*
X8851036Y21343776D01*
X9003700Y21350277D01*
X9443533Y21532461D01*
X9528591Y21787804D01*
X8636000Y22680395D01*
X7743409Y21787804D01*
X7828467Y21532461D01*
X8039964Y21455224D01*
X7887300Y21448723D01*
X7447467Y21266539D01*
X7362409Y21011196D01*
X6214795Y21011196D01*
X6349779Y21336273D01*
X6350109Y21714597D01*
X7126727Y22491214D01*
X7308461Y22052467D01*
X7563804Y21967409D01*
X8456395Y22860000D01*
X8442253Y22874142D01*
X8621858Y23053747D01*
X8636000Y23039605D01*
X8650143Y23053747D01*
X8829748Y22874142D01*
X8815605Y22860000D01*
X9708196Y21967409D01*
X9963539Y22052467D01*
X10171516Y22621965D01*
X10145723Y23227700D01*
X9963539Y23667533D01*
X9708198Y23752590D01*
X9822788Y23867180D01*
X9734968Y23955000D01*
X15703768Y23955000D01*
X15472769Y23724404D01*
X15240265Y23164472D01*
X15239736Y22558188D01*
X15471262Y21997851D01*
X15899596Y21568769D01*
X16459528Y21336265D01*
X16505704Y21336225D01*
X16337467Y21266539D01*
X16252409Y21011196D01*
X17145000Y20118605D01*
X18037591Y21011196D01*
X17952533Y21266539D01*
X17392936Y21470900D01*
X17626149Y21567262D01*
X18055231Y21995596D01*
X18287735Y22555528D01*
X18288264Y23161812D01*
X18056738Y23722149D01*
X17824293Y23955000D01*
X19349488Y23955000D01*
X20087904Y23216584D01*
X20066265Y23164472D01*
X20065736Y22558188D01*
X20297262Y21997851D01*
X20704737Y21589664D01*
X20298769Y21184404D01*
X20066265Y20624472D01*
X20065736Y20018188D01*
X20297262Y19457851D01*
X20725596Y19028769D01*
X21285525Y18796266D01*
X21263037Y18796286D01*
X20656005Y18545466D01*
X20191166Y18081437D01*
X19939287Y17474845D01*
X19938714Y16818037D01*
X20189534Y16211005D01*
X20525132Y15874821D01*
X20191166Y15541437D01*
X19939287Y14934845D01*
X19938714Y14278037D01*
X20189534Y13671005D01*
X20653563Y13206166D01*
X21260155Y12954287D01*
X21916963Y12953714D01*
X22523995Y13204534D01*
X22558000Y13238480D01*
X22558000Y11638513D01*
X22479114Y11559627D01*
X22479264Y11731812D01*
X22247738Y12292149D01*
X21819404Y12721231D01*
X21259472Y12953735D01*
X20653188Y12954264D01*
X20092851Y12722738D01*
X19663769Y12294404D01*
X19431265Y11734472D01*
X19430930Y11351000D01*
X18750513Y11351000D01*
X18647096Y11454416D01*
X18668735Y11506528D01*
X18669264Y12112812D01*
X18437738Y12673149D01*
X18009404Y13102231D01*
X17449472Y13334735D01*
X16843188Y13335264D01*
X16282851Y13103738D01*
X16050000Y12871293D01*
X16050000Y14605000D01*
X15988342Y14914974D01*
X15900549Y15046365D01*
X15812756Y15177757D01*
X14202096Y16788416D01*
X14223735Y16840528D01*
X14224264Y17446812D01*
X13992738Y18007149D01*
X13564404Y18436231D01*
X13537494Y18447405D01*
X13592591Y18612804D01*
X12700000Y19505395D01*
X11807409Y18612804D01*
X11862353Y18447862D01*
X11837851Y18437738D01*
X11408769Y18009404D01*
X11176265Y17449472D01*
X11175736Y16843188D01*
X11407262Y16282851D01*
X11835596Y15853769D01*
X12395528Y15621265D01*
X13001812Y15620736D01*
X13056256Y15643232D01*
X14430000Y14269487D01*
X14430000Y10795000D01*
X14491658Y10485026D01*
X14623798Y10287265D01*
X14667244Y10222244D01*
X15954000Y8935487D01*
X15954000Y7664285D01*
X15901851Y7642738D01*
X15472769Y7214404D01*
X15240265Y6654472D01*
X15239736Y6048188D01*
X15471262Y5487851D01*
X15703707Y5255000D01*
X14940513Y5255000D01*
X10845325Y9350188D01*
X11175736Y9350188D01*
X11407262Y8789851D01*
X11835596Y8360769D01*
X12395528Y8128265D01*
X13001812Y8127736D01*
X13562149Y8359262D01*
X13991231Y8787596D01*
X14223735Y9347528D01*
X14224264Y9953812D01*
X13992738Y10514149D01*
X13564404Y10943231D01*
X13004472Y11175735D01*
X12398188Y11176264D01*
X11837851Y10944738D01*
X11408769Y10516404D01*
X11176265Y9956472D01*
X11175736Y9350188D01*
X10845325Y9350188D01*
X10097756Y10097756D01*
X9972827Y10181231D01*
X9834974Y10273342D01*
X9525000Y10335000D01*
X8673620Y10335000D01*
X9117149Y10518262D01*
X9546231Y10946596D01*
X9778735Y11506528D01*
X9779264Y12112812D01*
X9756768Y12167256D01*
X9987513Y12398000D01*
X11385715Y12398000D01*
X11407262Y12345851D01*
X11835596Y11916769D01*
X12395528Y11684265D01*
X13001812Y11683736D01*
X13562149Y11915262D01*
X13991231Y12343596D01*
X14223735Y12903528D01*
X14224264Y13509812D01*
X13992738Y14070149D01*
X13564404Y14499231D01*
X13004472Y14731735D01*
X12398188Y14732264D01*
X11837851Y14500738D01*
X11408769Y14072404D01*
X11386178Y14018000D01*
X9652000Y14018000D01*
X9342026Y13956342D01*
X9234751Y13884663D01*
X9079243Y13780756D01*
X8611584Y13313096D01*
X8559472Y13334735D01*
X7953188Y13335264D01*
X7392851Y13103738D01*
X6963769Y12675404D01*
X6731265Y12115472D01*
X6730780Y11559732D01*
X6287756Y12002756D01*
X6110832Y12120973D01*
X6024974Y12178342D01*
X5763251Y12230402D01*
X5737738Y12292149D01*
X5309404Y12721231D01*
X4749472Y12953735D01*
X4143188Y12954264D01*
X3582851Y12722738D01*
X3153769Y12294404D01*
X2921265Y11734472D01*
X2920736Y11128188D01*
X3152262Y10567851D01*
X3559737Y10159664D01*
X3153769Y9754404D01*
X2921265Y9194472D01*
X2920736Y8588188D01*
X3152262Y8027851D01*
X3580596Y7598769D01*
X3835519Y7492916D01*
X3097463Y7496933D01*
X1740774Y6943606D01*
X1706784Y6920894D01*
X1358347Y6441258D01*
X3810000Y3989605D01*
X6261653Y6441258D01*
X5913216Y6920894D01*
X4801686Y7388410D01*
X5307149Y7597262D01*
X5736231Y8025596D01*
X5758822Y8080000D01*
X5760488Y8080000D01*
X7133904Y6706584D01*
X7112265Y6654472D01*
X7111736Y6048188D01*
X7343262Y5487851D01*
X7771596Y5058769D01*
X8331528Y4826265D01*
X8937812Y4825736D01*
X9498149Y5057262D01*
X9927231Y5485596D01*
X10159735Y6045528D01*
X10160264Y6651812D01*
X9928738Y7212149D01*
X9500404Y7641231D01*
X8940472Y7873735D01*
X8334188Y7874264D01*
X8279744Y7851768D01*
X7365986Y8765526D01*
X7447897Y8749234D01*
X7620000Y8715000D01*
X9189488Y8715000D01*
X14032244Y3872243D01*
X14125398Y3810000D01*
X14295026Y3696658D01*
X14605000Y3635000D01*
X17145000Y3635000D01*
X17454974Y3696658D01*
X17717756Y3872244D01*
X17907218Y4061706D01*
X17906362Y3080620D01*
X18465884Y1726474D01*
X19480585Y710000D01*
X5921130Y710000D01*
X6261653Y1178742D01*
X3810000Y3630395D01*
X3795858Y3616252D01*
X3616253Y3795857D01*
X3630395Y3810000D01*
X3989605Y3810000D01*
X6441258Y1358347D01*
X6920894Y1706784D01*
X7488958Y3057370D01*
X7496933Y4522537D01*
X6943606Y5879226D01*
X6920894Y5913216D01*
X6441258Y6261653D01*
X3989605Y3810000D01*
X3630395Y3810000D01*
X1178742Y6261653D01*
X710000Y5921130D01*
X710000Y13440893D01*
X2825498Y13440893D01*
X2926120Y13172378D01*
X3541642Y12943184D01*
X4198019Y12966986D01*
X4693880Y13172378D01*
X4794502Y13440893D01*
X3810000Y14425395D01*
X2825498Y13440893D01*
X710000Y13440893D01*
X710000Y14873358D01*
X2148184Y14873358D01*
X2171986Y14216981D01*
X2377378Y13721120D01*
X2645893Y13620498D01*
X3630395Y14605000D01*
X3989605Y14605000D01*
X4974107Y13620498D01*
X5242622Y13721120D01*
X5471816Y14336642D01*
X5448014Y14993019D01*
X5242622Y15488880D01*
X4974107Y15589502D01*
X3989605Y14605000D01*
X3630395Y14605000D01*
X2645893Y15589502D01*
X2377378Y15488880D01*
X2148184Y14873358D01*
X710000Y14873358D01*
X710000Y15980893D01*
X2825498Y15980893D01*
X2865180Y15875000D01*
X2825498Y15769107D01*
X3810000Y14784605D01*
X4794502Y15769107D01*
X4754820Y15875000D01*
X4794502Y15980893D01*
X3810000Y16965395D01*
X2825498Y15980893D01*
X710000Y15980893D01*
X710000Y17413358D01*
X2148184Y17413358D01*
X2171986Y16756981D01*
X2377378Y16261120D01*
X2645893Y16160498D01*
X3630395Y17145000D01*
X3989605Y17145000D01*
X4974107Y16160498D01*
X5242622Y16261120D01*
X5471816Y16876642D01*
X5448014Y17533019D01*
X5242622Y18028880D01*
X4974107Y18129502D01*
X3989605Y17145000D01*
X3630395Y17145000D01*
X2645893Y18129502D01*
X2377378Y18028880D01*
X2148184Y17413358D01*
X710000Y17413358D01*
X710000Y18309107D01*
X2825498Y18309107D01*
X3810000Y17324605D01*
X4794502Y18309107D01*
X4693880Y18577622D01*
X4078358Y18806816D01*
X3421981Y18783014D01*
X2926120Y18577622D01*
X2825498Y18309107D01*
X710000Y18309107D01*
X710000Y18866804D01*
X7362409Y18866804D01*
X7447467Y18611461D01*
X8016965Y18403484D01*
X8622700Y18429277D01*
X9062533Y18611461D01*
X9147591Y18866804D01*
X8255000Y19759395D01*
X7362409Y18866804D01*
X710000Y18866804D01*
X710000Y21520069D01*
X958824Y22770995D01*
X1627804Y23772196D01*
X2629005Y24441175D01*
X3879931Y24690000D01*
X7034487Y24690000D01*
X5204380Y22859892D01*
X5204380Y22859892D01*
G37*
X5204380Y22859892D02*
X4828490Y22860220D01*
X4361542Y22667282D01*
X4003974Y22310337D01*
X3810221Y21843727D01*
X3810219Y21841512D01*
X3617282Y22308458D01*
X3260337Y22666026D01*
X2793727Y22859779D01*
X2288490Y22860220D01*
X1821542Y22667282D01*
X1463974Y22310337D01*
X1270221Y21843727D01*
X1269780Y21338490D01*
X1462718Y20871542D01*
X1819663Y20513974D01*
X2286273Y20320221D01*
X2540000Y20320000D01*
X2539780Y20068490D01*
X2732718Y19601542D01*
X3089663Y19243974D01*
X3556273Y19050221D01*
X4061510Y19049780D01*
X4528458Y19242718D01*
X4886026Y19599663D01*
X5079779Y20066273D01*
X5079875Y20177035D01*
X6719484Y20177035D01*
X6745277Y19571300D01*
X6927461Y19131467D01*
X7182804Y19046409D01*
X8075395Y19939000D01*
X8434605Y19939000D01*
X9327196Y19046409D01*
X9582539Y19131467D01*
X9790516Y19700965D01*
X9781060Y19923035D01*
X11164484Y19923035D01*
X11190277Y19317300D01*
X11372461Y18877467D01*
X11627804Y18792409D01*
X12520395Y19685000D01*
X12879605Y19685000D01*
X13772196Y18792409D01*
X13995528Y18866804D01*
X16252409Y18866804D01*
X16337467Y18611461D01*
X16906965Y18403484D01*
X17512700Y18429277D01*
X17952533Y18611461D01*
X18037591Y18866804D01*
X17145000Y19759395D01*
X16252409Y18866804D01*
X13995528Y18866804D01*
X14027539Y18877467D01*
X14235516Y19446965D01*
X14209723Y20052700D01*
X14158222Y20177035D01*
X15609484Y20177035D01*
X15635277Y19571300D01*
X15817461Y19131467D01*
X16072804Y19046409D01*
X16965395Y19939000D01*
X17324605Y19939000D01*
X18217196Y19046409D01*
X18472539Y19131467D01*
X18680516Y19700965D01*
X18654723Y20306700D01*
X18472539Y20746533D01*
X18217196Y20831591D01*
X17324605Y19939000D01*
X16965395Y19939000D01*
X16072804Y20831591D01*
X15817461Y20746533D01*
X15609484Y20177035D01*
X14158222Y20177035D01*
X14027539Y20492533D01*
X13772196Y20577591D01*
X12879605Y19685000D01*
X12520395Y19685000D01*
X11627804Y20577591D01*
X11372461Y20492533D01*
X11164484Y19923035D01*
X9781060Y19923035D01*
X9764723Y20306700D01*
X9582539Y20746533D01*
X9550529Y20757196D01*
X11807409Y20757196D01*
X12700000Y19864605D01*
X13592591Y20757196D01*
X13507533Y21012539D01*
X12938035Y21220516D01*
X12332300Y21194723D01*
X11892467Y21012539D01*
X11807409Y20757196D01*
X9550529Y20757196D01*
X9327196Y20831591D01*
X8434605Y19939000D01*
X8075395Y19939000D01*
X7182804Y20831591D01*
X6927461Y20746533D01*
X6719484Y20177035D01*
X5079875Y20177035D01*
X5080000Y20320000D01*
X5331510Y20319780D01*
X5798458Y20512718D01*
X6156026Y20869663D01*
X6214795Y21011196D01*
X7362409Y21011196D01*
X8255000Y20118605D01*
X9147591Y21011196D01*
X9062533Y21266539D01*
X8851036Y21343776D01*
X9003700Y21350277D01*
X9443533Y21532461D01*
X9528591Y21787804D01*
X8636000Y22680395D01*
X7743409Y21787804D01*
X7828467Y21532461D01*
X8039964Y21455224D01*
X7887300Y21448723D01*
X7447467Y21266539D01*
X7362409Y21011196D01*
X6214795Y21011196D01*
X6349779Y21336273D01*
X6350109Y21714597D01*
X7126727Y22491214D01*
X7308461Y22052467D01*
X7563804Y21967409D01*
X8456395Y22860000D01*
X8442253Y22874142D01*
X8621858Y23053747D01*
X8636000Y23039605D01*
X8650143Y23053747D01*
X8829748Y22874142D01*
X8815605Y22860000D01*
X9708196Y21967409D01*
X9963539Y22052467D01*
X10171516Y22621965D01*
X10145723Y23227700D01*
X9963539Y23667533D01*
X9708198Y23752590D01*
X9822788Y23867180D01*
X9734968Y23955000D01*
X15703768Y23955000D01*
X15472769Y23724404D01*
X15240265Y23164472D01*
X15239736Y22558188D01*
X15471262Y21997851D01*
X15899596Y21568769D01*
X16459528Y21336265D01*
X16505704Y21336225D01*
X16337467Y21266539D01*
X16252409Y21011196D01*
X17145000Y20118605D01*
X18037591Y21011196D01*
X17952533Y21266539D01*
X17392936Y21470900D01*
X17626149Y21567262D01*
X18055231Y21995596D01*
X18287735Y22555528D01*
X18288264Y23161812D01*
X18056738Y23722149D01*
X17824293Y23955000D01*
X19349488Y23955000D01*
X20087904Y23216584D01*
X20066265Y23164472D01*
X20065736Y22558188D01*
X20297262Y21997851D01*
X20704737Y21589664D01*
X20298769Y21184404D01*
X20066265Y20624472D01*
X20065736Y20018188D01*
X20297262Y19457851D01*
X20725596Y19028769D01*
X21285525Y18796266D01*
X21263037Y18796286D01*
X20656005Y18545466D01*
X20191166Y18081437D01*
X19939287Y17474845D01*
X19938714Y16818037D01*
X20189534Y16211005D01*
X20525132Y15874821D01*
X20191166Y15541437D01*
X19939287Y14934845D01*
X19938714Y14278037D01*
X20189534Y13671005D01*
X20653563Y13206166D01*
X21260155Y12954287D01*
X21916963Y12953714D01*
X22523995Y13204534D01*
X22558000Y13238480D01*
X22558000Y11638513D01*
X22479114Y11559627D01*
X22479264Y11731812D01*
X22247738Y12292149D01*
X21819404Y12721231D01*
X21259472Y12953735D01*
X20653188Y12954264D01*
X20092851Y12722738D01*
X19663769Y12294404D01*
X19431265Y11734472D01*
X19430930Y11351000D01*
X18750513Y11351000D01*
X18647096Y11454416D01*
X18668735Y11506528D01*
X18669264Y12112812D01*
X18437738Y12673149D01*
X18009404Y13102231D01*
X17449472Y13334735D01*
X16843188Y13335264D01*
X16282851Y13103738D01*
X16050000Y12871293D01*
X16050000Y14605000D01*
X15988342Y14914974D01*
X15900549Y15046365D01*
X15812756Y15177757D01*
X14202096Y16788416D01*
X14223735Y16840528D01*
X14224264Y17446812D01*
X13992738Y18007149D01*
X13564404Y18436231D01*
X13537494Y18447405D01*
X13592591Y18612804D01*
X12700000Y19505395D01*
X11807409Y18612804D01*
X11862353Y18447862D01*
X11837851Y18437738D01*
X11408769Y18009404D01*
X11176265Y17449472D01*
X11175736Y16843188D01*
X11407262Y16282851D01*
X11835596Y15853769D01*
X12395528Y15621265D01*
X13001812Y15620736D01*
X13056256Y15643232D01*
X14430000Y14269487D01*
X14430000Y10795000D01*
X14491658Y10485026D01*
X14623798Y10287265D01*
X14667244Y10222244D01*
X15954000Y8935487D01*
X15954000Y7664285D01*
X15901851Y7642738D01*
X15472769Y7214404D01*
X15240265Y6654472D01*
X15239736Y6048188D01*
X15471262Y5487851D01*
X15703707Y5255000D01*
X14940513Y5255000D01*
X10845325Y9350188D01*
X11175736Y9350188D01*
X11407262Y8789851D01*
X11835596Y8360769D01*
X12395528Y8128265D01*
X13001812Y8127736D01*
X13562149Y8359262D01*
X13991231Y8787596D01*
X14223735Y9347528D01*
X14224264Y9953812D01*
X13992738Y10514149D01*
X13564404Y10943231D01*
X13004472Y11175735D01*
X12398188Y11176264D01*
X11837851Y10944738D01*
X11408769Y10516404D01*
X11176265Y9956472D01*
X11175736Y9350188D01*
X10845325Y9350188D01*
X10097756Y10097756D01*
X9972827Y10181231D01*
X9834974Y10273342D01*
X9525000Y10335000D01*
X8673620Y10335000D01*
X9117149Y10518262D01*
X9546231Y10946596D01*
X9778735Y11506528D01*
X9779264Y12112812D01*
X9756768Y12167256D01*
X9987513Y12398000D01*
X11385715Y12398000D01*
X11407262Y12345851D01*
X11835596Y11916769D01*
X12395528Y11684265D01*
X13001812Y11683736D01*
X13562149Y11915262D01*
X13991231Y12343596D01*
X14223735Y12903528D01*
X14224264Y13509812D01*
X13992738Y14070149D01*
X13564404Y14499231D01*
X13004472Y14731735D01*
X12398188Y14732264D01*
X11837851Y14500738D01*
X11408769Y14072404D01*
X11386178Y14018000D01*
X9652000Y14018000D01*
X9342026Y13956342D01*
X9234751Y13884663D01*
X9079243Y13780756D01*
X8611584Y13313096D01*
X8559472Y13334735D01*
X7953188Y13335264D01*
X7392851Y13103738D01*
X6963769Y12675404D01*
X6731265Y12115472D01*
X6730780Y11559732D01*
X6287756Y12002756D01*
X6110832Y12120973D01*
X6024974Y12178342D01*
X5763251Y12230402D01*
X5737738Y12292149D01*
X5309404Y12721231D01*
X4749472Y12953735D01*
X4143188Y12954264D01*
X3582851Y12722738D01*
X3153769Y12294404D01*
X2921265Y11734472D01*
X2920736Y11128188D01*
X3152262Y10567851D01*
X3559737Y10159664D01*
X3153769Y9754404D01*
X2921265Y9194472D01*
X2920736Y8588188D01*
X3152262Y8027851D01*
X3580596Y7598769D01*
X3835519Y7492916D01*
X3097463Y7496933D01*
X1740774Y6943606D01*
X1706784Y6920894D01*
X1358347Y6441258D01*
X3810000Y3989605D01*
X6261653Y6441258D01*
X5913216Y6920894D01*
X4801686Y7388410D01*
X5307149Y7597262D01*
X5736231Y8025596D01*
X5758822Y8080000D01*
X5760488Y8080000D01*
X7133904Y6706584D01*
X7112265Y6654472D01*
X7111736Y6048188D01*
X7343262Y5487851D01*
X7771596Y5058769D01*
X8331528Y4826265D01*
X8937812Y4825736D01*
X9498149Y5057262D01*
X9927231Y5485596D01*
X10159735Y6045528D01*
X10160264Y6651812D01*
X9928738Y7212149D01*
X9500404Y7641231D01*
X8940472Y7873735D01*
X8334188Y7874264D01*
X8279744Y7851768D01*
X7365986Y8765526D01*
X7447897Y8749234D01*
X7620000Y8715000D01*
X9189488Y8715000D01*
X14032244Y3872243D01*
X14125398Y3810000D01*
X14295026Y3696658D01*
X14605000Y3635000D01*
X17145000Y3635000D01*
X17454974Y3696658D01*
X17717756Y3872244D01*
X17907218Y4061706D01*
X17906362Y3080620D01*
X18465884Y1726474D01*
X19480585Y710000D01*
X5921130Y710000D01*
X6261653Y1178742D01*
X3810000Y3630395D01*
X3795858Y3616252D01*
X3616253Y3795857D01*
X3630395Y3810000D01*
X3989605Y3810000D01*
X6441258Y1358347D01*
X6920894Y1706784D01*
X7488958Y3057370D01*
X7496933Y4522537D01*
X6943606Y5879226D01*
X6920894Y5913216D01*
X6441258Y6261653D01*
X3989605Y3810000D01*
X3630395Y3810000D01*
X1178742Y6261653D01*
X710000Y5921130D01*
X710000Y13440893D01*
X2825498Y13440893D01*
X2926120Y13172378D01*
X3541642Y12943184D01*
X4198019Y12966986D01*
X4693880Y13172378D01*
X4794502Y13440893D01*
X3810000Y14425395D01*
X2825498Y13440893D01*
X710000Y13440893D01*
X710000Y14873358D01*
X2148184Y14873358D01*
X2171986Y14216981D01*
X2377378Y13721120D01*
X2645893Y13620498D01*
X3630395Y14605000D01*
X3989605Y14605000D01*
X4974107Y13620498D01*
X5242622Y13721120D01*
X5471816Y14336642D01*
X5448014Y14993019D01*
X5242622Y15488880D01*
X4974107Y15589502D01*
X3989605Y14605000D01*
X3630395Y14605000D01*
X2645893Y15589502D01*
X2377378Y15488880D01*
X2148184Y14873358D01*
X710000Y14873358D01*
X710000Y15980893D01*
X2825498Y15980893D01*
X2865180Y15875000D01*
X2825498Y15769107D01*
X3810000Y14784605D01*
X4794502Y15769107D01*
X4754820Y15875000D01*
X4794502Y15980893D01*
X3810000Y16965395D01*
X2825498Y15980893D01*
X710000Y15980893D01*
X710000Y17413358D01*
X2148184Y17413358D01*
X2171986Y16756981D01*
X2377378Y16261120D01*
X2645893Y16160498D01*
X3630395Y17145000D01*
X3989605Y17145000D01*
X4974107Y16160498D01*
X5242622Y16261120D01*
X5471816Y16876642D01*
X5448014Y17533019D01*
X5242622Y18028880D01*
X4974107Y18129502D01*
X3989605Y17145000D01*
X3630395Y17145000D01*
X2645893Y18129502D01*
X2377378Y18028880D01*
X2148184Y17413358D01*
X710000Y17413358D01*
X710000Y18309107D01*
X2825498Y18309107D01*
X3810000Y17324605D01*
X4794502Y18309107D01*
X4693880Y18577622D01*
X4078358Y18806816D01*
X3421981Y18783014D01*
X2926120Y18577622D01*
X2825498Y18309107D01*
X710000Y18309107D01*
X710000Y18866804D01*
X7362409Y18866804D01*
X7447467Y18611461D01*
X8016965Y18403484D01*
X8622700Y18429277D01*
X9062533Y18611461D01*
X9147591Y18866804D01*
X8255000Y19759395D01*
X7362409Y18866804D01*
X710000Y18866804D01*
X710000Y21520069D01*
X958824Y22770995D01*
X1627804Y23772196D01*
X2629005Y24441175D01*
X3879931Y24690000D01*
X7034487Y24690000D01*
X5204380Y22859892D01*
M02*
