G04 #@! TF.FileFunction,Legend,Top*
%FSLAX46Y46*%
G04 Gerber Fmt 4.6, Leading zero omitted, Abs format (unit mm)*
G04 Created by KiCad (PCBNEW 4.0.2-4+6225~38~ubuntu15.04.1-stable) date Thu Mar  3 13:07:03 2016*
%MOMM*%
G01*
G04 APERTURE LIST*
%ADD10C,0.050800*%
%ADD11C,0.254000*%
%ADD12C,0.300000*%
%ADD13C,0.150000*%
%ADD14C,0.203200*%
%ADD15C,0.127000*%
%ADD16C,0.114300*%
%ADD17C,1.670000*%
%ADD18C,2.432000*%
%ADD19C,6.496000*%
%ADD20C,2.178000*%
%ADD21R,0.999440X1.400760*%
%ADD22C,1.600000*%
%ADD23R,1.400000X1.850000*%
%ADD24C,1.924000*%
%ADD25R,1.850000X1.400000*%
%ADD26R,2.400000X2.900000*%
G04 APERTURE END LIST*
D10*
D11*
X23241000Y14907381D02*
X23180524Y14786429D01*
X23180524Y14605000D01*
X23241000Y14423572D01*
X23361952Y14302619D01*
X23482905Y14242143D01*
X23724810Y14181667D01*
X23906238Y14181667D01*
X24148143Y14242143D01*
X24269095Y14302619D01*
X24390048Y14423572D01*
X24450524Y14605000D01*
X24450524Y14725952D01*
X24390048Y14907381D01*
X24329571Y14967857D01*
X23906238Y14967857D01*
X23906238Y14725952D01*
X24450524Y15512143D02*
X23180524Y15512143D01*
X24450524Y16237857D01*
X23180524Y16237857D01*
X24450524Y16842619D02*
X23180524Y16842619D01*
X23180524Y17145000D01*
X23241000Y17326428D01*
X23361952Y17447381D01*
X23482905Y17507857D01*
X23724810Y17568333D01*
X23906238Y17568333D01*
X24148143Y17507857D01*
X24269095Y17447381D01*
X24390048Y17326428D01*
X24450524Y17145000D01*
X24450524Y16842619D01*
X955524Y15633096D02*
X955524Y15028334D01*
X1560286Y14967858D01*
X1499810Y15028334D01*
X1439333Y15149286D01*
X1439333Y15451667D01*
X1499810Y15572620D01*
X1560286Y15633096D01*
X1681238Y15693572D01*
X1983619Y15693572D01*
X2104571Y15633096D01*
X2165048Y15572620D01*
X2225524Y15451667D01*
X2225524Y15149286D01*
X2165048Y15028334D01*
X2104571Y14967858D01*
X955524Y16056429D02*
X2225524Y16479763D01*
X955524Y16903096D01*
D12*
X6747619Y2397143D02*
X8271429Y2397143D01*
X7509524Y1635238D02*
X7509524Y3159048D01*
X9223809Y1635238D02*
X9223809Y3635238D01*
X9890476Y2206667D01*
X10557143Y3635238D01*
X10557143Y1635238D01*
X11414285Y2206667D02*
X12366666Y2206667D01*
X11223809Y1635238D02*
X11890476Y3635238D01*
X12557143Y1635238D01*
X13223809Y1635238D02*
X13223809Y3635238D01*
X13985714Y3635238D01*
X14176190Y3540000D01*
X14271429Y3444762D01*
X14366667Y3254286D01*
X14366667Y2968571D01*
X14271429Y2778095D01*
X14176190Y2682857D01*
X13985714Y2587619D01*
X13223809Y2587619D01*
X15128571Y3444762D02*
X15223809Y3540000D01*
X15414286Y3635238D01*
X15890476Y3635238D01*
X16080952Y3540000D01*
X16176190Y3444762D01*
X16271429Y3254286D01*
X16271429Y3063810D01*
X16176190Y2778095D01*
X15033333Y1635238D01*
X16271429Y1635238D01*
X17128571Y2397143D02*
X18652381Y2397143D01*
D11*
X15240000Y11430000D02*
G75*
G03X15240000Y11430000I-2540000J0D01*
G01*
X14478000Y15621000D02*
X10922000Y15621000D01*
X14607668Y15623003D02*
G75*
G03X10795000Y15621000I-1907668J2537997D01*
G01*
D13*
X14859000Y18161000D02*
G75*
G03X12700000Y20320000I-2159000J0D01*
G01*
X10520038Y17620371D02*
G75*
G03X12700000Y15915000I2179962J540629D01*
G01*
D11*
X6568000Y20406000D02*
X2068000Y20406000D01*
X6568000Y20406000D02*
G75*
G03X2068000Y20406000I-2250000J1100000D01*
G01*
D13*
X5818000Y22806000D02*
X5818000Y21906000D01*
X5818000Y21906000D02*
X5018000Y21906000D01*
X2818000Y22806000D02*
X2818000Y21906000D01*
X2818000Y21906000D02*
X3618000Y21906000D01*
X4018000Y23306000D02*
X4618000Y23306000D01*
D14*
X15240000Y5080000D02*
X15240000Y7620000D01*
X15240000Y7620000D02*
X10160000Y7620000D01*
X10160000Y7620000D02*
X10160000Y5080000D01*
X10160000Y5080000D02*
X15240000Y5080000D01*
D15*
X12300000Y7050000D02*
X13100000Y7050000D01*
X13100000Y5650000D02*
X12300000Y5650000D01*
D14*
X18415000Y19050000D02*
X15875000Y19050000D01*
X15875000Y19050000D02*
X15875000Y13970000D01*
X15875000Y13970000D02*
X18415000Y13970000D01*
X18415000Y13970000D02*
X18415000Y19050000D01*
D15*
X16445000Y16110000D02*
X16445000Y16910000D01*
X17845000Y16910000D02*
X17845000Y16110000D01*
D14*
X10160000Y24130000D02*
X10160000Y21590000D01*
X10160000Y21590000D02*
X15240000Y21590000D01*
X15240000Y21590000D02*
X15240000Y24130000D01*
X15240000Y24130000D02*
X10160000Y24130000D01*
D15*
X13100000Y22160000D02*
X12300000Y22160000D01*
X12300000Y23560000D02*
X13100000Y23560000D01*
D14*
X9525000Y19050000D02*
X6985000Y19050000D01*
X6985000Y19050000D02*
X6985000Y13970000D01*
X6985000Y13970000D02*
X9525000Y13970000D01*
X9525000Y13970000D02*
X9525000Y19050000D01*
D15*
X7555000Y16110000D02*
X7555000Y16910000D01*
X8955000Y16910000D02*
X8955000Y16110000D01*
D11*
X1397000Y9271000D02*
X1397000Y10922000D01*
X1651000Y8763000D02*
X1651000Y11557000D01*
X1905000Y8255000D02*
X1905000Y12065000D01*
X2159000Y8001000D02*
X2159000Y12319000D01*
X2413000Y7747000D02*
X2413000Y12573000D01*
X2667000Y7620000D02*
X2667000Y12700000D01*
X2921000Y7493000D02*
X2921000Y12954000D01*
X7620000Y10160000D02*
G75*
G03X7620000Y10160000I-3175000J0D01*
G01*
D13*
X3683000Y8763000D02*
X5207000Y8763000D01*
X5207000Y11557000D02*
X3683000Y11557000D01*
D11*
X17907000Y9271000D02*
X17907000Y10922000D01*
X18161000Y8763000D02*
X18161000Y11557000D01*
X18415000Y8255000D02*
X18415000Y12065000D01*
X18669000Y8001000D02*
X18669000Y12319000D01*
X18923000Y7747000D02*
X18923000Y12573000D01*
X19177000Y7620000D02*
X19177000Y12700000D01*
X19431000Y7493000D02*
X19431000Y12954000D01*
X24130000Y10160000D02*
G75*
G03X24130000Y10160000I-3175000J0D01*
G01*
D13*
X20193000Y8763000D02*
X21717000Y8763000D01*
X21717000Y11557000D02*
X20193000Y11557000D01*
D11*
X18542000Y20701000D02*
X18542000Y22352000D01*
X18796000Y20193000D02*
X18796000Y22987000D01*
X19050000Y19685000D02*
X19050000Y23495000D01*
X19304000Y19431000D02*
X19304000Y23749000D01*
X19558000Y19177000D02*
X19558000Y24003000D01*
X19812000Y19050000D02*
X19812000Y24130000D01*
X20066000Y18923000D02*
X20066000Y24384000D01*
X24765000Y21590000D02*
G75*
G03X24765000Y21590000I-3175000J0D01*
G01*
D13*
X20828000Y20193000D02*
X22352000Y20193000D01*
X22352000Y22987000D02*
X20828000Y22987000D01*
D16*
X11049000Y11085286D02*
X10795000Y11448143D01*
X10613572Y11085286D02*
X10613572Y11847286D01*
X10903857Y11847286D01*
X10976429Y11811000D01*
X11012714Y11774714D01*
X11049000Y11702143D01*
X11049000Y11593286D01*
X11012714Y11520714D01*
X10976429Y11484429D01*
X10903857Y11448143D01*
X10613572Y11448143D01*
X11738429Y11847286D02*
X11375572Y11847286D01*
X11339286Y11484429D01*
X11375572Y11520714D01*
X11448143Y11557000D01*
X11629572Y11557000D01*
X11702143Y11520714D01*
X11738429Y11484429D01*
X11774714Y11411857D01*
X11774714Y11230429D01*
X11738429Y11157857D01*
X11702143Y11121571D01*
X11629572Y11085286D01*
X11448143Y11085286D01*
X11375572Y11121571D01*
X11339286Y11157857D01*
X14568714Y10903858D02*
X14568714Y10541001D01*
X13806714Y10541001D01*
X14568714Y11157858D02*
X13806714Y11157858D01*
X13806714Y11339286D01*
X13843000Y11448143D01*
X13915571Y11520715D01*
X13988143Y11557000D01*
X14133286Y11593286D01*
X14242143Y11593286D01*
X14387286Y11557000D01*
X14459857Y11520715D01*
X14532429Y11448143D01*
X14568714Y11339286D01*
X14568714Y11157858D01*
X14568714Y12355286D02*
X14205857Y12101286D01*
X14568714Y11919858D02*
X13806714Y11919858D01*
X13806714Y12210143D01*
X13843000Y12282715D01*
X13879286Y12319000D01*
X13951857Y12355286D01*
X14060714Y12355286D01*
X14133286Y12319000D01*
X14169571Y12282715D01*
X14205857Y12210143D01*
X14205857Y11919858D01*
X9851572Y18070286D02*
X9851572Y18832286D01*
X10033000Y18832286D01*
X10141857Y18796000D01*
X10214429Y18723429D01*
X10250714Y18650857D01*
X10287000Y18505714D01*
X10287000Y18396857D01*
X10250714Y18251714D01*
X10214429Y18179143D01*
X10141857Y18106571D01*
X10033000Y18070286D01*
X9851572Y18070286D01*
X11012714Y18070286D02*
X10577286Y18070286D01*
X10795000Y18070286D02*
X10795000Y18832286D01*
X10722429Y18723429D01*
X10649857Y18650857D01*
X10577286Y18614571D01*
X14695714Y16401143D02*
X14695714Y16038286D01*
X13933714Y16038286D01*
X14296571Y16655143D02*
X14296571Y16909143D01*
X14695714Y17018000D02*
X14695714Y16655143D01*
X13933714Y16655143D01*
X13933714Y17018000D01*
X14695714Y17344572D02*
X13933714Y17344572D01*
X13933714Y17526000D01*
X13970000Y17634857D01*
X14042571Y17707429D01*
X14115143Y17743714D01*
X14260286Y17780000D01*
X14369143Y17780000D01*
X14514286Y17743714D01*
X14586857Y17707429D01*
X14659429Y17634857D01*
X14695714Y17526000D01*
X14695714Y17344572D01*
X4245429Y19140714D02*
X4172857Y19177000D01*
X4100286Y19249571D01*
X3991429Y19358429D01*
X3918857Y19394714D01*
X3846286Y19394714D01*
X3882571Y19213286D02*
X3810000Y19249571D01*
X3737429Y19322143D01*
X3701143Y19467286D01*
X3701143Y19721286D01*
X3737429Y19866429D01*
X3810000Y19939000D01*
X3882571Y19975286D01*
X4027714Y19975286D01*
X4100286Y19939000D01*
X4172857Y19866429D01*
X4209143Y19721286D01*
X4209143Y19467286D01*
X4172857Y19322143D01*
X4100286Y19249571D01*
X4027714Y19213286D01*
X3882571Y19213286D01*
X4934857Y19213286D02*
X4499429Y19213286D01*
X4717143Y19213286D02*
X4717143Y19975286D01*
X4644572Y19866429D01*
X4572000Y19793857D01*
X4499429Y19757571D01*
X15019262Y6201834D02*
X14716881Y5905500D01*
X15019262Y5693834D02*
X14384262Y5693834D01*
X14384262Y6032500D01*
X14414500Y6117167D01*
X14444738Y6159500D01*
X14505214Y6201834D01*
X14595929Y6201834D01*
X14656405Y6159500D01*
X14686643Y6117167D01*
X14716881Y6032500D01*
X14716881Y5693834D01*
X14595929Y6963834D02*
X15019262Y6963834D01*
X14354024Y6752167D02*
X14807595Y6540500D01*
X14807595Y7090834D01*
X16996834Y18254738D02*
X16700500Y18557119D01*
X16488834Y18254738D02*
X16488834Y18889738D01*
X16827500Y18889738D01*
X16912167Y18859500D01*
X16954500Y18829262D01*
X16996834Y18768786D01*
X16996834Y18678071D01*
X16954500Y18617595D01*
X16912167Y18587357D01*
X16827500Y18557119D01*
X16488834Y18557119D01*
X17293167Y18889738D02*
X17843500Y18889738D01*
X17547167Y18647833D01*
X17674167Y18647833D01*
X17758834Y18617595D01*
X17801167Y18587357D01*
X17843500Y18526881D01*
X17843500Y18375690D01*
X17801167Y18315214D01*
X17758834Y18284976D01*
X17674167Y18254738D01*
X17420167Y18254738D01*
X17335500Y18284976D01*
X17293167Y18315214D01*
X10955262Y22711834D02*
X10652881Y22415500D01*
X10955262Y22203834D02*
X10320262Y22203834D01*
X10320262Y22542500D01*
X10350500Y22627167D01*
X10380738Y22669500D01*
X10441214Y22711834D01*
X10531929Y22711834D01*
X10592405Y22669500D01*
X10622643Y22627167D01*
X10652881Y22542500D01*
X10652881Y22203834D01*
X10380738Y23050500D02*
X10350500Y23092834D01*
X10320262Y23177500D01*
X10320262Y23389167D01*
X10350500Y23473834D01*
X10380738Y23516167D01*
X10441214Y23558500D01*
X10501690Y23558500D01*
X10592405Y23516167D01*
X10955262Y23008167D01*
X10955262Y23558500D01*
X8106834Y18254738D02*
X7810500Y18557119D01*
X7598834Y18254738D02*
X7598834Y18889738D01*
X7937500Y18889738D01*
X8022167Y18859500D01*
X8064500Y18829262D01*
X8106834Y18768786D01*
X8106834Y18678071D01*
X8064500Y18617595D01*
X8022167Y18587357D01*
X7937500Y18557119D01*
X7598834Y18557119D01*
X8953500Y18254738D02*
X8445500Y18254738D01*
X8699500Y18254738D02*
X8699500Y18889738D01*
X8614834Y18799024D01*
X8530167Y18738548D01*
X8445500Y18708310D01*
X4318000Y12300857D02*
X4281714Y12264571D01*
X4172857Y12228286D01*
X4100286Y12228286D01*
X3991429Y12264571D01*
X3918857Y12337143D01*
X3882572Y12409714D01*
X3846286Y12554857D01*
X3846286Y12663714D01*
X3882572Y12808857D01*
X3918857Y12881429D01*
X3991429Y12954000D01*
X4100286Y12990286D01*
X4172857Y12990286D01*
X4281714Y12954000D01*
X4318000Y12917714D01*
X4572000Y12990286D02*
X5043714Y12990286D01*
X4789714Y12700000D01*
X4898572Y12700000D01*
X4971143Y12663714D01*
X5007429Y12627429D01*
X5043714Y12554857D01*
X5043714Y12373429D01*
X5007429Y12300857D01*
X4971143Y12264571D01*
X4898572Y12228286D01*
X4680857Y12228286D01*
X4608286Y12264571D01*
X4572000Y12300857D01*
X20828000Y12300857D02*
X20791714Y12264571D01*
X20682857Y12228286D01*
X20610286Y12228286D01*
X20501429Y12264571D01*
X20428857Y12337143D01*
X20392572Y12409714D01*
X20356286Y12554857D01*
X20356286Y12663714D01*
X20392572Y12808857D01*
X20428857Y12881429D01*
X20501429Y12954000D01*
X20610286Y12990286D01*
X20682857Y12990286D01*
X20791714Y12954000D01*
X20828000Y12917714D01*
X21118286Y12917714D02*
X21154572Y12954000D01*
X21227143Y12990286D01*
X21408572Y12990286D01*
X21481143Y12954000D01*
X21517429Y12917714D01*
X21553714Y12845143D01*
X21553714Y12772571D01*
X21517429Y12663714D01*
X21082000Y12228286D01*
X21553714Y12228286D01*
X21463000Y23730857D02*
X21426714Y23694571D01*
X21317857Y23658286D01*
X21245286Y23658286D01*
X21136429Y23694571D01*
X21063857Y23767143D01*
X21027572Y23839714D01*
X20991286Y23984857D01*
X20991286Y24093714D01*
X21027572Y24238857D01*
X21063857Y24311429D01*
X21136429Y24384000D01*
X21245286Y24420286D01*
X21317857Y24420286D01*
X21426714Y24384000D01*
X21463000Y24347714D01*
X22188714Y23658286D02*
X21753286Y23658286D01*
X21971000Y23658286D02*
X21971000Y24420286D01*
X21898429Y24311429D01*
X21825857Y24238857D01*
X21753286Y24202571D01*
%LPC*%
D17*
X0Y4445000D03*
X0Y5715000D03*
X0Y6985000D03*
X0Y8255000D03*
X0Y9525000D03*
X0Y10795000D03*
X25400000Y4445000D03*
X25400000Y5715000D03*
X25400000Y6985000D03*
X25400000Y8255000D03*
X25400000Y9525000D03*
X25400000Y10795000D03*
D18*
X3810000Y17145000D03*
X3810000Y14605000D03*
X21590000Y17145000D03*
X21590000Y14605000D03*
D19*
X21590000Y3810000D03*
X3810000Y3810000D03*
D20*
X12700000Y13208000D03*
X12700000Y9652000D03*
X12700000Y19685000D03*
X12700000Y17145000D03*
D17*
X25400000Y12065000D03*
X0Y12065000D03*
D21*
X5270500Y23662640D03*
X4318000Y21549360D03*
X3365500Y23662640D03*
D22*
X4328000Y22816000D03*
X5598000Y21546000D03*
X3058000Y21546000D03*
D23*
X11750000Y6350000D03*
X13650000Y6350000D03*
D24*
X8636000Y6350000D03*
X16764000Y6350000D03*
D25*
X17145000Y15560000D03*
X17145000Y17460000D03*
D24*
X17145000Y12446000D03*
X17145000Y20574000D03*
D23*
X13650000Y22860000D03*
X11750000Y22860000D03*
D24*
X16764000Y22860000D03*
X8636000Y22860000D03*
D25*
X8255000Y15560000D03*
X8255000Y17460000D03*
D24*
X8255000Y12446000D03*
X8255000Y20574000D03*
D26*
X6445000Y10160000D03*
X2445000Y10160000D03*
D20*
X5745000Y10160000D03*
X3145000Y10160000D03*
D26*
X22955000Y10160000D03*
X18955000Y10160000D03*
D20*
X22255000Y10160000D03*
X19655000Y10160000D03*
D26*
X23590000Y21590000D03*
X19590000Y21590000D03*
D20*
X22890000Y21590000D03*
X20290000Y21590000D03*
M02*
