G04 #@! TF.FileFunction,Legend,Top*
%FSLAX46Y46*%
G04 Gerber Fmt 4.6, Leading zero omitted, Abs format (unit mm)*
G04 Created by KiCad (PCBNEW 4.0.2-4+6225~38~ubuntu15.04.1-stable) date Tue Mar  1 12:04:06 2016*
%MOMM*%
G01*
G04 APERTURE LIST*
%ADD10C,0.050800*%
%ADD11C,0.254000*%
%ADD12C,0.300000*%
%ADD13C,0.150000*%
%ADD14C,0.250000*%
%ADD15C,2.432000*%
%ADD16C,6.496000*%
%ADD17C,2.178000*%
%ADD18C,1.670000*%
G04 APERTURE END LIST*
D10*
D11*
X23241000Y14907381D02*
X23180524Y14786429D01*
X23180524Y14605000D01*
X23241000Y14423572D01*
X23361952Y14302619D01*
X23482905Y14242143D01*
X23724810Y14181667D01*
X23906238Y14181667D01*
X24148143Y14242143D01*
X24269095Y14302619D01*
X24390048Y14423572D01*
X24450524Y14605000D01*
X24450524Y14725952D01*
X24390048Y14907381D01*
X24329571Y14967857D01*
X23906238Y14967857D01*
X23906238Y14725952D01*
X24450524Y15512143D02*
X23180524Y15512143D01*
X24450524Y16237857D01*
X23180524Y16237857D01*
X24450524Y16842619D02*
X23180524Y16842619D01*
X23180524Y17145000D01*
X23241000Y17326428D01*
X23361952Y17447381D01*
X23482905Y17507857D01*
X23724810Y17568333D01*
X23906238Y17568333D01*
X24148143Y17507857D01*
X24269095Y17447381D01*
X24390048Y17326428D01*
X24450524Y17145000D01*
X24450524Y16842619D01*
X955524Y15633096D02*
X955524Y15028334D01*
X1560286Y14967858D01*
X1499810Y15028334D01*
X1439333Y15149286D01*
X1439333Y15451667D01*
X1499810Y15572620D01*
X1560286Y15633096D01*
X1681238Y15693572D01*
X1983619Y15693572D01*
X2104571Y15633096D01*
X2165048Y15572620D01*
X2225524Y15451667D01*
X2225524Y15149286D01*
X2165048Y15028334D01*
X2104571Y14967858D01*
X955524Y16056429D02*
X2225524Y16479763D01*
X955524Y16903096D01*
D12*
X6747619Y2397143D02*
X8271429Y2397143D01*
X7509524Y1635238D02*
X7509524Y3159048D01*
X9223809Y1635238D02*
X9223809Y3635238D01*
X9890476Y2206667D01*
X10557143Y3635238D01*
X10557143Y1635238D01*
X11414285Y2206667D02*
X12366666Y2206667D01*
X11223809Y1635238D02*
X11890476Y3635238D01*
X12557143Y1635238D01*
X13223809Y1635238D02*
X13223809Y3635238D01*
X13985714Y3635238D01*
X14176190Y3540000D01*
X14271429Y3444762D01*
X14366667Y3254286D01*
X14366667Y2968571D01*
X14271429Y2778095D01*
X14176190Y2682857D01*
X13985714Y2587619D01*
X13223809Y2587619D01*
X15128571Y3444762D02*
X15223809Y3540000D01*
X15414286Y3635238D01*
X15890476Y3635238D01*
X16080952Y3540000D01*
X16176190Y3444762D01*
X16271429Y3254286D01*
X16271429Y3063810D01*
X16176190Y2778095D01*
X15033333Y1635238D01*
X16271429Y1635238D01*
X17128571Y2397143D02*
X18652381Y2397143D01*
D11*
X15240000Y11430000D02*
G75*
G03X15240000Y11430000I-2540000J0D01*
G01*
X14478000Y15621000D02*
X10922000Y15621000D01*
X14607668Y15623003D02*
G75*
G03X10795000Y15621000I-1907668J2537997D01*
G01*
D13*
X14859000Y18161000D02*
G75*
G03X12700000Y20320000I-2159000J0D01*
G01*
X10520038Y17620371D02*
G75*
G03X12700000Y15915000I2179962J540629D01*
G01*
X20320000Y20320000D02*
X19050000Y20320000D01*
X19685000Y22225000D02*
X19685000Y23495000D01*
X19050000Y22860000D02*
X20320000Y22860000D01*
D14*
X19090487Y19839304D02*
G75*
G03X24090000Y19840000I2499513J1750696D01*
G01*
X22340000Y18590000D02*
X20840000Y18590000D01*
X20340000Y18840000D02*
X22840000Y18840000D01*
X23340000Y19090000D02*
X19840000Y19090000D01*
X19590000Y19340000D02*
X23590000Y19340000D01*
X23840000Y19590000D02*
X19340000Y19590000D01*
X19090000Y19840000D02*
X24090000Y19840000D01*
D11*
X24740000Y21590000D02*
G75*
G03X24740000Y21590000I-3150000J0D01*
G01*
D13*
X19685000Y8890000D02*
X18415000Y8890000D01*
X19050000Y10795000D02*
X19050000Y12065000D01*
X18415000Y11430000D02*
X19685000Y11430000D01*
D14*
X18455487Y8409304D02*
G75*
G03X23455000Y8410000I2499513J1750696D01*
G01*
X21705000Y7160000D02*
X20205000Y7160000D01*
X19705000Y7410000D02*
X22205000Y7410000D01*
X22705000Y7660000D02*
X19205000Y7660000D01*
X18955000Y7910000D02*
X22955000Y7910000D01*
X23205000Y8160000D02*
X18705000Y8160000D01*
X18455000Y8410000D02*
X23455000Y8410000D01*
D11*
X24105000Y10160000D02*
G75*
G03X24105000Y10160000I-3150000J0D01*
G01*
D13*
X3175000Y8890000D02*
X1905000Y8890000D01*
X2540000Y10795000D02*
X2540000Y12065000D01*
X1905000Y11430000D02*
X3175000Y11430000D01*
D14*
X1945487Y8409304D02*
G75*
G03X6945000Y8410000I2499513J1750696D01*
G01*
X5195000Y7160000D02*
X3695000Y7160000D01*
X3195000Y7410000D02*
X5695000Y7410000D01*
X6195000Y7660000D02*
X2695000Y7660000D01*
X2445000Y7910000D02*
X6445000Y7910000D01*
X6695000Y8160000D02*
X2195000Y8160000D01*
X1945000Y8410000D02*
X6945000Y8410000D01*
D11*
X7595000Y10160000D02*
G75*
G03X7595000Y10160000I-3150000J0D01*
G01*
X5588000Y20066000D02*
X2032000Y20066000D01*
X5588069Y20066081D02*
G75*
G03X2032000Y20066000I-1778069J1523919D01*
G01*
X15240000Y5080000D02*
X10160000Y5080000D01*
X10160000Y5080000D02*
X10160000Y7620000D01*
X10160000Y7620000D02*
X15240000Y7620000D01*
X15240000Y7620000D02*
X15240000Y5080000D01*
X18415000Y18415000D02*
X18415000Y13335000D01*
X18415000Y13335000D02*
X15875000Y13335000D01*
X15875000Y13335000D02*
X15875000Y18415000D01*
X15875000Y18415000D02*
X18415000Y18415000D01*
X10160000Y24130000D02*
X15240000Y24130000D01*
X15240000Y24130000D02*
X15240000Y21590000D01*
X15240000Y21590000D02*
X10160000Y21590000D01*
X10160000Y21590000D02*
X10160000Y24130000D01*
X9525000Y18415000D02*
X9525000Y13335000D01*
X9525000Y13335000D02*
X6985000Y13335000D01*
X6985000Y13335000D02*
X6985000Y18415000D01*
X6985000Y18415000D02*
X9525000Y18415000D01*
D13*
X11042667Y11068095D02*
X10776000Y11449048D01*
X10585524Y11068095D02*
X10585524Y11868095D01*
X10890286Y11868095D01*
X10966477Y11830000D01*
X11004572Y11791905D01*
X11042667Y11715714D01*
X11042667Y11601429D01*
X11004572Y11525238D01*
X10966477Y11487143D01*
X10890286Y11449048D01*
X10585524Y11449048D01*
X11766477Y11868095D02*
X11385524Y11868095D01*
X11347429Y11487143D01*
X11385524Y11525238D01*
X11461715Y11563333D01*
X11652191Y11563333D01*
X11728381Y11525238D01*
X11766477Y11487143D01*
X11804572Y11410952D01*
X11804572Y11220476D01*
X11766477Y11144286D01*
X11728381Y11106190D01*
X11652191Y11068095D01*
X11461715Y11068095D01*
X11385524Y11106190D01*
X11347429Y11144286D01*
X14585905Y10877620D02*
X14585905Y10496667D01*
X13785905Y10496667D01*
X14585905Y11144286D02*
X13785905Y11144286D01*
X13785905Y11334762D01*
X13824000Y11449048D01*
X13900190Y11525239D01*
X13976381Y11563334D01*
X14128762Y11601429D01*
X14243048Y11601429D01*
X14395429Y11563334D01*
X14471619Y11525239D01*
X14547810Y11449048D01*
X14585905Y11334762D01*
X14585905Y11144286D01*
X14585905Y12401429D02*
X14204952Y12134762D01*
X14585905Y11944286D02*
X13785905Y11944286D01*
X13785905Y12249048D01*
X13824000Y12325239D01*
X13862095Y12363334D01*
X13938286Y12401429D01*
X14052571Y12401429D01*
X14128762Y12363334D01*
X14166857Y12325239D01*
X14204952Y12249048D01*
X14204952Y11944286D01*
X9823524Y18053095D02*
X9823524Y18853095D01*
X10014000Y18853095D01*
X10128286Y18815000D01*
X10204477Y18738810D01*
X10242572Y18662619D01*
X10280667Y18510238D01*
X10280667Y18395952D01*
X10242572Y18243571D01*
X10204477Y18167381D01*
X10128286Y18091190D01*
X10014000Y18053095D01*
X9823524Y18053095D01*
X11042572Y18053095D02*
X10585429Y18053095D01*
X10814000Y18053095D02*
X10814000Y18853095D01*
X10737810Y18738810D01*
X10661619Y18662619D01*
X10585429Y18624524D01*
X14712905Y16376715D02*
X14712905Y15995762D01*
X13912905Y15995762D01*
X14293857Y16643381D02*
X14293857Y16910048D01*
X14712905Y17024334D02*
X14712905Y16643381D01*
X13912905Y16643381D01*
X13912905Y17024334D01*
X14712905Y17367191D02*
X13912905Y17367191D01*
X13912905Y17557667D01*
X13951000Y17671953D01*
X14027190Y17748144D01*
X14103381Y17786239D01*
X14255762Y17824334D01*
X14370048Y17824334D01*
X14522429Y17786239D01*
X14598619Y17748144D01*
X14674810Y17671953D01*
X14712905Y17557667D01*
X14712905Y17367191D01*
X19551667Y20923286D02*
X19513572Y20885190D01*
X19399286Y20847095D01*
X19323096Y20847095D01*
X19208810Y20885190D01*
X19132619Y20961381D01*
X19094524Y21037571D01*
X19056429Y21189952D01*
X19056429Y21304238D01*
X19094524Y21456619D01*
X19132619Y21532810D01*
X19208810Y21609000D01*
X19323096Y21647095D01*
X19399286Y21647095D01*
X19513572Y21609000D01*
X19551667Y21570905D01*
X20313572Y20847095D02*
X19856429Y20847095D01*
X20085000Y20847095D02*
X20085000Y21647095D01*
X20008810Y21532810D01*
X19932619Y21456619D01*
X19856429Y21418524D01*
X23856905Y20732905D02*
X23856905Y20275762D01*
X23856905Y20504333D02*
X23056905Y20504333D01*
X23171190Y20428143D01*
X23247381Y20351952D01*
X23285476Y20275762D01*
X23056905Y21228143D02*
X23056905Y21304334D01*
X23095000Y21380524D01*
X23133095Y21418619D01*
X23209286Y21456715D01*
X23361667Y21494810D01*
X23552143Y21494810D01*
X23704524Y21456715D01*
X23780714Y21418619D01*
X23818810Y21380524D01*
X23856905Y21304334D01*
X23856905Y21228143D01*
X23818810Y21151953D01*
X23780714Y21113857D01*
X23704524Y21075762D01*
X23552143Y21037667D01*
X23361667Y21037667D01*
X23209286Y21075762D01*
X23133095Y21113857D01*
X23095000Y21151953D01*
X23056905Y21228143D01*
X23056905Y21990048D02*
X23056905Y22066239D01*
X23095000Y22142429D01*
X23133095Y22180524D01*
X23209286Y22218620D01*
X23361667Y22256715D01*
X23552143Y22256715D01*
X23704524Y22218620D01*
X23780714Y22180524D01*
X23818810Y22142429D01*
X23856905Y22066239D01*
X23856905Y21990048D01*
X23818810Y21913858D01*
X23780714Y21875762D01*
X23704524Y21837667D01*
X23552143Y21799572D01*
X23361667Y21799572D01*
X23209286Y21837667D01*
X23133095Y21875762D01*
X23095000Y21913858D01*
X23056905Y21990048D01*
X23323571Y22942429D02*
X23856905Y22942429D01*
X23323571Y22599572D02*
X23742619Y22599572D01*
X23818810Y22637667D01*
X23856905Y22713858D01*
X23856905Y22828144D01*
X23818810Y22904334D01*
X23780714Y22942429D01*
X23437857Y23590049D02*
X23437857Y23323382D01*
X23856905Y23323382D02*
X23056905Y23323382D01*
X23056905Y23704335D01*
X18916667Y9493286D02*
X18878572Y9455190D01*
X18764286Y9417095D01*
X18688096Y9417095D01*
X18573810Y9455190D01*
X18497619Y9531381D01*
X18459524Y9607571D01*
X18421429Y9759952D01*
X18421429Y9874238D01*
X18459524Y10026619D01*
X18497619Y10102810D01*
X18573810Y10179000D01*
X18688096Y10217095D01*
X18764286Y10217095D01*
X18878572Y10179000D01*
X18916667Y10140905D01*
X19221429Y10140905D02*
X19259524Y10179000D01*
X19335715Y10217095D01*
X19526191Y10217095D01*
X19602381Y10179000D01*
X19640477Y10140905D01*
X19678572Y10064714D01*
X19678572Y9988524D01*
X19640477Y9874238D01*
X19183334Y9417095D01*
X19678572Y9417095D01*
X22688571Y9607666D02*
X23221905Y9607666D01*
X22383810Y9417190D02*
X22955238Y9226714D01*
X22955238Y9721952D01*
X22421905Y9950524D02*
X22421905Y10483857D01*
X23221905Y10141000D01*
X22688571Y11131476D02*
X23221905Y11131476D01*
X22688571Y10788619D02*
X23107619Y10788619D01*
X23183810Y10826714D01*
X23221905Y10902905D01*
X23221905Y11017191D01*
X23183810Y11093381D01*
X23145714Y11131476D01*
X22802857Y11779096D02*
X22802857Y11512429D01*
X23221905Y11512429D02*
X22421905Y11512429D01*
X22421905Y11893382D01*
X2406667Y9493286D02*
X2368572Y9455190D01*
X2254286Y9417095D01*
X2178096Y9417095D01*
X2063810Y9455190D01*
X1987619Y9531381D01*
X1949524Y9607571D01*
X1911429Y9759952D01*
X1911429Y9874238D01*
X1949524Y10026619D01*
X1987619Y10102810D01*
X2063810Y10179000D01*
X2178096Y10217095D01*
X2254286Y10217095D01*
X2368572Y10179000D01*
X2406667Y10140905D01*
X2673334Y10217095D02*
X3168572Y10217095D01*
X2901905Y9912333D01*
X3016191Y9912333D01*
X3092381Y9874238D01*
X3130477Y9836143D01*
X3168572Y9759952D01*
X3168572Y9569476D01*
X3130477Y9493286D01*
X3092381Y9455190D01*
X3016191Y9417095D01*
X2787619Y9417095D01*
X2711429Y9455190D01*
X2673334Y9493286D01*
X6178571Y9607666D02*
X6711905Y9607666D01*
X5873810Y9417190D02*
X6445238Y9226714D01*
X6445238Y9721952D01*
X5911905Y9950524D02*
X5911905Y10483857D01*
X6711905Y10141000D01*
X6178571Y11131476D02*
X6711905Y11131476D01*
X6178571Y10788619D02*
X6597619Y10788619D01*
X6673810Y10826714D01*
X6711905Y10902905D01*
X6711905Y11017191D01*
X6673810Y11093381D01*
X6635714Y11131476D01*
X6292857Y11779096D02*
X6292857Y11512429D01*
X6711905Y11512429D02*
X5911905Y11512429D01*
X5911905Y11893382D01*
X3733810Y20262905D02*
X3657619Y20301000D01*
X3581429Y20377190D01*
X3467143Y20491476D01*
X3390952Y20529571D01*
X3314762Y20529571D01*
X3352857Y20339095D02*
X3276667Y20377190D01*
X3200476Y20453381D01*
X3162381Y20605762D01*
X3162381Y20872429D01*
X3200476Y21024810D01*
X3276667Y21101000D01*
X3352857Y21139095D01*
X3505238Y21139095D01*
X3581429Y21101000D01*
X3657619Y21024810D01*
X3695714Y20872429D01*
X3695714Y20605762D01*
X3657619Y20453381D01*
X3581429Y20377190D01*
X3505238Y20339095D01*
X3352857Y20339095D01*
X4457619Y20339095D02*
X4000476Y20339095D01*
X4229047Y20339095D02*
X4229047Y21139095D01*
X4152857Y21024810D01*
X4076666Y20948619D01*
X4000476Y20910524D01*
X14217667Y5861095D02*
X13951000Y6242048D01*
X13760524Y5861095D02*
X13760524Y6661095D01*
X14065286Y6661095D01*
X14141477Y6623000D01*
X14179572Y6584905D01*
X14217667Y6508714D01*
X14217667Y6394429D01*
X14179572Y6318238D01*
X14141477Y6280143D01*
X14065286Y6242048D01*
X13760524Y6242048D01*
X14903381Y6394429D02*
X14903381Y5861095D01*
X14712905Y6699190D02*
X14522429Y6127762D01*
X15017667Y6127762D01*
X10704286Y5276547D02*
X10668000Y5306785D01*
X10631714Y5367262D01*
X10631714Y5518452D01*
X10668000Y5578928D01*
X10704286Y5609166D01*
X10776857Y5639405D01*
X10849429Y5639405D01*
X10958286Y5609166D01*
X11393714Y5246309D01*
X11393714Y5639405D01*
X10631714Y5851071D02*
X10631714Y6274405D01*
X11393714Y6002262D01*
X10631714Y6637262D02*
X10631714Y6697738D01*
X10668000Y6758214D01*
X10704286Y6788452D01*
X10776857Y6818690D01*
X10922000Y6848929D01*
X11103429Y6848929D01*
X11248571Y6818690D01*
X11321143Y6788452D01*
X11357429Y6758214D01*
X11393714Y6697738D01*
X11393714Y6637262D01*
X11357429Y6576786D01*
X11321143Y6546548D01*
X11248571Y6516309D01*
X11103429Y6486071D01*
X10922000Y6486071D01*
X10776857Y6516309D01*
X10704286Y6546548D01*
X10668000Y6576786D01*
X10631714Y6637262D01*
X10994571Y7121071D02*
X10994571Y7332738D01*
X11393714Y7423452D02*
X11393714Y7121071D01*
X10631714Y7121071D01*
X10631714Y7423452D01*
X17633905Y17392667D02*
X17252952Y17126000D01*
X17633905Y16935524D02*
X16833905Y16935524D01*
X16833905Y17240286D01*
X16872000Y17316477D01*
X16910095Y17354572D01*
X16986286Y17392667D01*
X17100571Y17392667D01*
X17176762Y17354572D01*
X17214857Y17316477D01*
X17252952Y17240286D01*
X17252952Y16935524D01*
X16833905Y17659334D02*
X16833905Y18154572D01*
X17138667Y17887905D01*
X17138667Y18002191D01*
X17176762Y18078381D01*
X17214857Y18116477D01*
X17291048Y18154572D01*
X17481524Y18154572D01*
X17557714Y18116477D01*
X17595810Y18078381D01*
X17633905Y18002191D01*
X17633905Y17773619D01*
X17595810Y17697429D01*
X17557714Y17659334D01*
X16173572Y14535095D02*
X16668810Y14535095D01*
X16402143Y14230333D01*
X16516429Y14230333D01*
X16592619Y14192238D01*
X16630715Y14154143D01*
X16668810Y14077952D01*
X16668810Y13887476D01*
X16630715Y13811286D01*
X16592619Y13773190D01*
X16516429Y13735095D01*
X16287857Y13735095D01*
X16211667Y13773190D01*
X16173572Y13811286D01*
X17011667Y13735095D02*
X17011667Y14535095D01*
X17087858Y14039857D02*
X17316429Y13735095D01*
X17316429Y14268429D02*
X17011667Y13963667D01*
X17583096Y14535095D02*
X18078334Y14535095D01*
X17811667Y14230333D01*
X17925953Y14230333D01*
X18002143Y14192238D01*
X18040239Y14154143D01*
X18078334Y14077952D01*
X18078334Y13887476D01*
X18040239Y13811286D01*
X18002143Y13773190D01*
X17925953Y13735095D01*
X17697381Y13735095D01*
X17621191Y13773190D01*
X17583096Y13811286D01*
X10915667Y22625095D02*
X10649000Y23006048D01*
X10458524Y22625095D02*
X10458524Y23425095D01*
X10763286Y23425095D01*
X10839477Y23387000D01*
X10877572Y23348905D01*
X10915667Y23272714D01*
X10915667Y23158429D01*
X10877572Y23082238D01*
X10839477Y23044143D01*
X10763286Y23006048D01*
X10458524Y23006048D01*
X11220429Y23348905D02*
X11258524Y23387000D01*
X11334715Y23425095D01*
X11525191Y23425095D01*
X11601381Y23387000D01*
X11639477Y23348905D01*
X11677572Y23272714D01*
X11677572Y23196524D01*
X11639477Y23082238D01*
X11182334Y22625095D01*
X11677572Y22625095D01*
X14839905Y22631429D02*
X14839905Y22174286D01*
X14839905Y22402857D02*
X14039905Y22402857D01*
X14154190Y22326667D01*
X14230381Y22250476D01*
X14268476Y22174286D01*
X14839905Y22974286D02*
X14039905Y22974286D01*
X14611333Y23240953D01*
X14039905Y23507620D01*
X14839905Y23507620D01*
X8743905Y17392667D02*
X8362952Y17126000D01*
X8743905Y16935524D02*
X7943905Y16935524D01*
X7943905Y17240286D01*
X7982000Y17316477D01*
X8020095Y17354572D01*
X8096286Y17392667D01*
X8210571Y17392667D01*
X8286762Y17354572D01*
X8324857Y17316477D01*
X8362952Y17240286D01*
X8362952Y16935524D01*
X8743905Y18154572D02*
X8743905Y17697429D01*
X8743905Y17926000D02*
X7943905Y17926000D01*
X8058190Y17849810D01*
X8134381Y17773619D01*
X8172476Y17697429D01*
X7321667Y14458905D02*
X7359762Y14497000D01*
X7435953Y14535095D01*
X7626429Y14535095D01*
X7702619Y14497000D01*
X7740715Y14458905D01*
X7778810Y14382714D01*
X7778810Y14306524D01*
X7740715Y14192238D01*
X7283572Y13735095D01*
X7778810Y13735095D01*
X8121667Y13735095D02*
X8121667Y14535095D01*
X8197858Y14039857D02*
X8426429Y13735095D01*
X8426429Y14268429D02*
X8121667Y13963667D01*
X8731191Y14458905D02*
X8769286Y14497000D01*
X8845477Y14535095D01*
X9035953Y14535095D01*
X9112143Y14497000D01*
X9150239Y14458905D01*
X9188334Y14382714D01*
X9188334Y14306524D01*
X9150239Y14192238D01*
X8693096Y13735095D01*
X9188334Y13735095D01*
%LPC*%
D15*
X3810000Y17145000D03*
X3810000Y14605000D03*
X21590000Y17145000D03*
X21590000Y14605000D03*
D16*
X21590000Y3810000D03*
X3810000Y3810000D03*
D17*
X12700000Y13208000D03*
X12700000Y9652000D03*
D18*
X25400000Y20955000D03*
X0Y20955000D03*
X0Y19685000D03*
X0Y18415000D03*
X0Y17145000D03*
X0Y15875000D03*
X0Y14605000D03*
X0Y13335000D03*
X0Y12065000D03*
X0Y10795000D03*
X0Y9525000D03*
X0Y8255000D03*
X0Y6985000D03*
X0Y5715000D03*
X0Y4445000D03*
X25400000Y19685000D03*
X25400000Y18415000D03*
X25400000Y17145000D03*
X25400000Y15875000D03*
X25400000Y14605000D03*
X25400000Y13335000D03*
X25400000Y12065000D03*
X25400000Y10795000D03*
X25400000Y9525000D03*
X25400000Y8255000D03*
X25400000Y6985000D03*
X25400000Y5715000D03*
X25400000Y4445000D03*
D17*
X12700000Y19685000D03*
X12700000Y17145000D03*
X21590000Y22860000D03*
X21590000Y20320000D03*
X20955000Y11430000D03*
X20955000Y8890000D03*
X4445000Y11430000D03*
X4445000Y8890000D03*
D18*
X3810000Y22860000D03*
X5080000Y21590000D03*
X2540000Y21590000D03*
D17*
X16764000Y6350000D03*
X8636000Y6350000D03*
X17145000Y19939000D03*
X17145000Y11811000D03*
X8636000Y22860000D03*
X16764000Y22860000D03*
X8255000Y19939000D03*
X8255000Y11811000D03*
M02*
