G04 #@! TF.FileFunction,Legend,Bot*
%FSLAX46Y46*%
G04 Gerber Fmt 4.6, Leading zero omitted, Abs format (unit mm)*
G04 Created by KiCad (PCBNEW 4.0.1-3.201512221401+6198~38~ubuntu15.10.1-stable) date Wed Mar  2 23:22:26 2016*
%MOMM*%
G01*
G04 APERTURE LIST*
%ADD10C,0.050800*%
%ADD11C,0.254000*%
%ADD12C,0.150000*%
%ADD13C,0.010000*%
%ADD14C,1.670000*%
%ADD15C,2.432000*%
%ADD16C,6.496000*%
%ADD17C,2.178000*%
%ADD18C,1.600000*%
%ADD19C,1.924000*%
G04 APERTURE END LIST*
D10*
D11*
X21378332Y23936476D02*
X21378332Y24783143D01*
X21378332Y24662190D02*
X21317856Y24722667D01*
X21196903Y24783143D01*
X21015475Y24783143D01*
X20894523Y24722667D01*
X20834046Y24601714D01*
X20834046Y23936476D01*
X20834046Y24601714D02*
X20773570Y24722667D01*
X20652618Y24783143D01*
X20471189Y24783143D01*
X20350237Y24722667D01*
X20289761Y24601714D01*
X20289761Y23936476D01*
X19140713Y23936476D02*
X19140713Y24601714D01*
X19201190Y24722667D01*
X19322142Y24783143D01*
X19564047Y24783143D01*
X19684999Y24722667D01*
X19140713Y23996952D02*
X19261666Y23936476D01*
X19564047Y23936476D01*
X19684999Y23996952D01*
X19745475Y24117905D01*
X19745475Y24238857D01*
X19684999Y24359810D01*
X19564047Y24420286D01*
X19261666Y24420286D01*
X19140713Y24480762D01*
X18535951Y23936476D02*
X18535951Y25206476D01*
X18414999Y24420286D02*
X18052142Y23936476D01*
X18052142Y24783143D02*
X18535951Y24299333D01*
X17024047Y23996952D02*
X17144999Y23936476D01*
X17386904Y23936476D01*
X17507856Y23996952D01*
X17568332Y24117905D01*
X17568332Y24601714D01*
X17507856Y24722667D01*
X17386904Y24783143D01*
X17144999Y24783143D01*
X17024047Y24722667D01*
X16963570Y24601714D01*
X16963570Y24480762D01*
X17568332Y24359810D01*
X16419285Y23936476D02*
X16419285Y24783143D01*
X16419285Y24541238D02*
X16358809Y24662190D01*
X16298333Y24722667D01*
X16177380Y24783143D01*
X16056428Y24783143D01*
X15693571Y23996952D02*
X15572619Y23936476D01*
X15330714Y23936476D01*
X15209762Y23996952D01*
X15149286Y24117905D01*
X15149286Y24178381D01*
X15209762Y24299333D01*
X15330714Y24359810D01*
X15512143Y24359810D01*
X15633095Y24420286D01*
X15693571Y24541238D01*
X15693571Y24601714D01*
X15633095Y24722667D01*
X15512143Y24783143D01*
X15330714Y24783143D01*
X15209762Y24722667D01*
X14060714Y23936476D02*
X14060714Y24601714D01*
X14121191Y24722667D01*
X14242143Y24783143D01*
X14484048Y24783143D01*
X14605000Y24722667D01*
X14060714Y23996952D02*
X14181667Y23936476D01*
X14484048Y23936476D01*
X14605000Y23996952D01*
X14665476Y24117905D01*
X14665476Y24238857D01*
X14605000Y24359810D01*
X14484048Y24420286D01*
X14181667Y24420286D01*
X14060714Y24480762D01*
X13516428Y23996952D02*
X13395476Y23936476D01*
X13153571Y23936476D01*
X13032619Y23996952D01*
X12972143Y24117905D01*
X12972143Y24178381D01*
X13032619Y24299333D01*
X13153571Y24359810D01*
X13335000Y24359810D01*
X13455952Y24420286D01*
X13516428Y24541238D01*
X13516428Y24601714D01*
X13455952Y24722667D01*
X13335000Y24783143D01*
X13153571Y24783143D01*
X13032619Y24722667D01*
X12548809Y24783143D02*
X12246428Y23936476D01*
X11944048Y24783143D02*
X12246428Y23936476D01*
X12367381Y23634095D01*
X12427857Y23573619D01*
X12548809Y23513143D01*
X11278809Y23936476D02*
X11399762Y23996952D01*
X11460238Y24117905D01*
X11460238Y25206476D01*
X10250714Y24783143D02*
X10250714Y23936476D01*
X10795000Y24783143D02*
X10795000Y24117905D01*
X10734524Y23996952D01*
X10613571Y23936476D01*
X10432143Y23936476D01*
X10311191Y23996952D01*
X10250714Y24057429D01*
X9645952Y23936476D02*
X9645952Y24783143D01*
X9645952Y24662190D02*
X9585476Y24722667D01*
X9464523Y24783143D01*
X9283095Y24783143D01*
X9162143Y24722667D01*
X9101666Y24601714D01*
X9101666Y23936476D01*
X9101666Y24601714D02*
X9041190Y24722667D01*
X8920238Y24783143D01*
X8738809Y24783143D01*
X8617857Y24722667D01*
X8557381Y24601714D01*
X8557381Y23936476D01*
X7952619Y24057429D02*
X7892143Y23996952D01*
X7952619Y23936476D01*
X8013095Y23996952D01*
X7952619Y24057429D01*
X7952619Y23936476D01*
X6803571Y23996952D02*
X6924524Y23936476D01*
X7166428Y23936476D01*
X7287381Y23996952D01*
X7347857Y24057429D01*
X7408333Y24178381D01*
X7408333Y24541238D01*
X7347857Y24662190D01*
X7287381Y24722667D01*
X7166428Y24783143D01*
X6924524Y24783143D01*
X6803571Y24722667D01*
X6077857Y23936476D02*
X6198810Y23996952D01*
X6259286Y24057429D01*
X6319762Y24178381D01*
X6319762Y24541238D01*
X6259286Y24662190D01*
X6198810Y24722667D01*
X6077857Y24783143D01*
X5896429Y24783143D01*
X5775477Y24722667D01*
X5715000Y24662190D01*
X5654524Y24541238D01*
X5654524Y24178381D01*
X5715000Y24057429D01*
X5775477Y23996952D01*
X5896429Y23936476D01*
X6077857Y23936476D01*
X5110238Y23936476D02*
X5110238Y24783143D01*
X5110238Y24662190D02*
X5049762Y24722667D01*
X4928809Y24783143D01*
X4747381Y24783143D01*
X4626429Y24722667D01*
X4565952Y24601714D01*
X4565952Y23936476D01*
X4565952Y24601714D02*
X4505476Y24722667D01*
X4384524Y24783143D01*
X4203095Y24783143D01*
X4082143Y24722667D01*
X4021667Y24601714D01*
X4021667Y23936476D01*
D12*
X2540000Y18415000D02*
X5080000Y18415000D01*
X5080000Y18415000D02*
X5080000Y15875000D01*
X5080000Y15875000D02*
X2540000Y15875000D01*
X2540000Y15875000D02*
X2540000Y18415000D01*
X2540000Y15875000D02*
X5080000Y15875000D01*
X5080000Y15875000D02*
X5080000Y13335000D01*
X5080000Y13335000D02*
X2540000Y13335000D01*
X2540000Y13335000D02*
X2540000Y15875000D01*
X22860000Y15875000D02*
X20320000Y15875000D01*
X20320000Y15875000D02*
X20320000Y18415000D01*
X20320000Y18415000D02*
X22860000Y18415000D01*
X22860000Y18415000D02*
X22860000Y15875000D01*
X22860000Y13335000D02*
X20320000Y13335000D01*
X20320000Y13335000D02*
X20320000Y15875000D01*
X20320000Y15875000D02*
X22860000Y15875000D01*
X22860000Y15875000D02*
X22860000Y13335000D01*
D13*
G36*
X12550297Y19477797D02*
X12465014Y19460761D01*
X12379081Y19432234D01*
X12309854Y19402856D01*
X12179037Y19331525D01*
X12046437Y19236503D01*
X11916646Y19121593D01*
X11794255Y18990596D01*
X11755844Y18943950D01*
X11732851Y18912766D01*
X11696496Y18860449D01*
X11648556Y18789683D01*
X11590811Y18703153D01*
X11525039Y18603541D01*
X11453018Y18493532D01*
X11376527Y18375810D01*
X11297343Y18253060D01*
X11274778Y18217914D01*
X10872611Y17590872D01*
X10864819Y18020242D01*
X10826382Y18011008D01*
X10787128Y17999722D01*
X10727422Y17980262D01*
X10653103Y17954711D01*
X10570009Y17925152D01*
X10483982Y17893667D01*
X10400860Y17862338D01*
X10326484Y17833249D01*
X10315222Y17828714D01*
X10167056Y17768744D01*
X10167681Y17665011D01*
X10168560Y17603593D01*
X10170384Y17526736D01*
X10172830Y17447194D01*
X10174079Y17413111D01*
X10175553Y17333141D01*
X10171711Y17276048D01*
X10161039Y17236745D01*
X10142022Y17210144D01*
X10113146Y17191159D01*
X10107180Y17188338D01*
X10068957Y17177505D01*
X10026535Y17173222D01*
X9989011Y17178377D01*
X9958873Y17196030D01*
X9934253Y17229470D01*
X9913280Y17281981D01*
X9894084Y17356851D01*
X9879306Y17431978D01*
X9866604Y17498817D01*
X9854945Y17554280D01*
X9845505Y17593170D01*
X9839459Y17610294D01*
X9838870Y17610667D01*
X9821972Y17603799D01*
X9785219Y17584839D01*
X9732936Y17556250D01*
X9669448Y17520495D01*
X9599079Y17480039D01*
X9526154Y17437343D01*
X9454996Y17394873D01*
X9389931Y17355091D01*
X9386683Y17353072D01*
X9328299Y17315391D01*
X9280386Y17281865D01*
X9247206Y17255678D01*
X9233024Y17240014D01*
X9232900Y17238229D01*
X9238062Y17219777D01*
X9248629Y17178928D01*
X9263328Y17120705D01*
X9280885Y17050130D01*
X9292640Y17002411D01*
X9312909Y16918500D01*
X9326656Y16857078D01*
X9334519Y16813340D01*
X9337142Y16782477D01*
X9335164Y16759683D01*
X9329228Y16740151D01*
X9328018Y16737163D01*
X9296681Y16692470D01*
X9250864Y16663288D01*
X9198513Y16651608D01*
X9147573Y16659420D01*
X9111330Y16682861D01*
X9094343Y16708215D01*
X9071253Y16753822D01*
X9045085Y16813230D01*
X9018864Y16879988D01*
X9018706Y16880417D01*
X8994757Y16943291D01*
X8973593Y16995219D01*
X8957370Y17031162D01*
X8948242Y17046081D01*
X8947788Y17046222D01*
X8931668Y17037438D01*
X8898333Y17013266D01*
X8851744Y16976975D01*
X8795861Y16931837D01*
X8734643Y16881120D01*
X8672051Y16828094D01*
X8612046Y16776031D01*
X8558586Y16728198D01*
X8526648Y16698478D01*
X8410240Y16587611D01*
X8501499Y16383000D01*
X8542924Y16287000D01*
X8571485Y16212056D01*
X8587814Y16154440D01*
X8592541Y16110421D01*
X8586298Y16076271D01*
X8569716Y16048258D01*
X8559966Y16037572D01*
X8516704Y16008509D01*
X8464838Y15993274D01*
X8415903Y15994457D01*
X8397720Y16001139D01*
X8379730Y16018870D01*
X8351602Y16056083D01*
X8316954Y16107615D01*
X8279403Y16168304D01*
X8273121Y16178939D01*
X8237073Y16238302D01*
X8205064Y16287152D01*
X8180128Y16321131D01*
X8165302Y16335883D01*
X8163637Y16336097D01*
X8148694Y16323594D01*
X8119267Y16293032D01*
X8078669Y16248253D01*
X8030213Y16193100D01*
X7977214Y16131417D01*
X7922984Y16067045D01*
X7870838Y16003828D01*
X7824089Y15945609D01*
X7798143Y15912237D01*
X7715231Y15803716D01*
X7843663Y15610052D01*
X7900083Y15523127D01*
X7940819Y15455151D01*
X7967234Y15402576D01*
X7980686Y15361855D01*
X7982535Y15329442D01*
X7974142Y15301790D01*
X7966763Y15288996D01*
X7930236Y15251601D01*
X7881935Y15225175D01*
X7832860Y15214856D01*
X7812681Y15217025D01*
X7787276Y15232223D01*
X7748118Y15267050D01*
X7698341Y15318522D01*
X7655196Y15367095D01*
X7609200Y15419450D01*
X7569182Y15463002D01*
X7538953Y15493750D01*
X7522322Y15507692D01*
X7520971Y15508111D01*
X7509369Y15496456D01*
X7486611Y15464271D01*
X7455198Y15415723D01*
X7417628Y15354982D01*
X7376401Y15286215D01*
X7334015Y15213590D01*
X7292972Y15141277D01*
X7255769Y15073444D01*
X7225205Y15014851D01*
X7166941Y14898969D01*
X7324053Y14736787D01*
X7395085Y14661898D01*
X7447193Y14602651D01*
X7482419Y14555792D01*
X7502805Y14518070D01*
X7510391Y14486232D01*
X7507220Y14457026D01*
X7504715Y14448969D01*
X7474748Y14396978D01*
X7430185Y14360421D01*
X7378731Y14345438D01*
X7374713Y14345356D01*
X7350906Y14348618D01*
X7323367Y14360237D01*
X7287731Y14382959D01*
X7239636Y14419534D01*
X7181514Y14467049D01*
X7127215Y14511215D01*
X7080516Y14547284D01*
X7045669Y14572112D01*
X7026929Y14582555D01*
X7025231Y14582534D01*
X7015526Y14566535D01*
X6998473Y14528345D01*
X6975732Y14472519D01*
X6948964Y14403611D01*
X6919830Y14326176D01*
X6889991Y14244769D01*
X6861106Y14163945D01*
X6834838Y14088258D01*
X6812845Y14022263D01*
X6796790Y13970515D01*
X6788332Y13937568D01*
X6787445Y13930350D01*
X6798185Y13918711D01*
X6827825Y13893516D01*
X6872495Y13857883D01*
X6928325Y13814929D01*
X6964054Y13788071D01*
X7027430Y13739888D01*
X7084548Y13694741D01*
X7130656Y13656514D01*
X7161003Y13629090D01*
X7168665Y13620792D01*
X7193603Y13570150D01*
X7190405Y13517450D01*
X7159080Y13462766D01*
X7152872Y13455436D01*
X7124453Y13427329D01*
X7095918Y13411373D01*
X7062891Y13408227D01*
X7020994Y13418548D01*
X6965848Y13442994D01*
X6893078Y13482224D01*
X6863827Y13498884D01*
X6803593Y13532921D01*
X6752751Y13560610D01*
X6715935Y13579507D01*
X6697777Y13587166D01*
X6696725Y13587078D01*
X6691130Y13570012D01*
X6682200Y13530140D01*
X6670710Y13472066D01*
X6657431Y13400392D01*
X6643137Y13319720D01*
X6628602Y13234653D01*
X6614598Y13149793D01*
X6601899Y13069743D01*
X6591278Y12999104D01*
X6583508Y12942480D01*
X6579362Y12904473D01*
X6579571Y12889716D01*
X6592606Y12882821D01*
X6626645Y12865371D01*
X6677486Y12839506D01*
X6740926Y12807365D01*
X6794500Y12780299D01*
X6879609Y12736439D01*
X6942382Y12701723D01*
X6986317Y12673936D01*
X7014913Y12650860D01*
X7031669Y12630280D01*
X7031895Y12629900D01*
X7049858Y12574796D01*
X7040042Y12519124D01*
X7005964Y12468282D01*
X6982094Y12445980D01*
X6956974Y12432813D01*
X6925953Y12429126D01*
X6884381Y12435262D01*
X6827608Y12451565D01*
X6750984Y12478379D01*
X6721219Y12489344D01*
X6660413Y12511517D01*
X6609205Y12529469D01*
X6573444Y12541197D01*
X6559431Y12544778D01*
X6556172Y12531285D01*
X6553541Y12493271D01*
X6551627Y12434431D01*
X6550519Y12358460D01*
X6550309Y12269054D01*
X6550841Y12190736D01*
X6554611Y11836694D01*
X6777868Y11769419D01*
X6854125Y11745624D01*
X6921681Y11723010D01*
X6975513Y11703380D01*
X7010594Y11688535D01*
X7021085Y11682185D01*
X7028705Y11669627D01*
X7027020Y11651731D01*
X7014034Y11623337D01*
X6987751Y11579287D01*
X6971173Y11553168D01*
X6939410Y11505375D01*
X6912583Y11468284D01*
X6894647Y11447211D01*
X6890234Y11444343D01*
X6872505Y11446821D01*
X6833378Y11453326D01*
X6779208Y11462780D01*
X6734528Y11470794D01*
X6589889Y11497013D01*
X6589889Y11454521D01*
X6592180Y11424352D01*
X6598421Y11373450D01*
X6607664Y11308878D01*
X6618961Y11237697D01*
X6619175Y11236409D01*
X6629758Y11167928D01*
X6637370Y11108581D01*
X6641344Y11064420D01*
X6641010Y11041498D01*
X6640779Y11040767D01*
X6632180Y11026009D01*
X6609570Y10989257D01*
X6574092Y10932325D01*
X6526890Y10857029D01*
X6469106Y10765182D01*
X6401886Y10658599D01*
X6326371Y10539094D01*
X6243707Y10408480D01*
X6155035Y10268574D01*
X6061501Y10121188D01*
X6016677Y10050623D01*
X5892324Y9854622D01*
X5782343Y9680534D01*
X5685732Y9526604D01*
X5601489Y9391078D01*
X5528613Y9272199D01*
X5466103Y9168214D01*
X5412956Y9077367D01*
X5368172Y8997904D01*
X5330748Y8928070D01*
X5299682Y8866109D01*
X5273975Y8810268D01*
X5252623Y8758790D01*
X5234625Y8709922D01*
X5218980Y8661909D01*
X5213305Y8643056D01*
X5188097Y8533953D01*
X5172145Y8413996D01*
X5165914Y8292364D01*
X5169873Y8178232D01*
X5184488Y8080779D01*
X5184664Y8080029D01*
X5233565Y7930351D01*
X5306138Y7795905D01*
X5402181Y7676874D01*
X5521492Y7573440D01*
X5663867Y7485786D01*
X5829104Y7414096D01*
X5971575Y7369944D01*
X6117167Y7331528D01*
X7815889Y7324069D01*
X9514612Y7316611D01*
X9405625Y7225360D01*
X9296637Y7134109D01*
X9329601Y7107416D01*
X9362041Y7084398D01*
X9413923Y7051313D01*
X9479777Y7011358D01*
X9554133Y6967731D01*
X9631520Y6923626D01*
X9706470Y6882241D01*
X9773511Y6846771D01*
X9789889Y6838452D01*
X9914483Y6775877D01*
X10085089Y6936646D01*
X10144851Y6991720D01*
X10200220Y7040465D01*
X10246855Y7079230D01*
X10280415Y7104363D01*
X10293189Y7111671D01*
X10340386Y7116108D01*
X10391369Y7100382D01*
X10435387Y7068518D01*
X10447434Y7053906D01*
X10465849Y7020868D01*
X10471725Y6988004D01*
X10463539Y6951140D01*
X10439769Y6906104D01*
X10398891Y6848721D01*
X10350500Y6788267D01*
X10306291Y6733925D01*
X10269427Y6687378D01*
X10243232Y6652918D01*
X10231033Y6634837D01*
X10230556Y6633441D01*
X10243198Y6624357D01*
X10278213Y6608102D01*
X10331235Y6586234D01*
X10397899Y6560314D01*
X10473840Y6531901D01*
X10554691Y6502553D01*
X10636087Y6473830D01*
X10713662Y6447291D01*
X10783051Y6424496D01*
X10839887Y6407003D01*
X10879805Y6396372D01*
X10898440Y6394162D01*
X10899133Y6394657D01*
X10923373Y6429921D01*
X10958292Y6477854D01*
X11000369Y6533933D01*
X11046086Y6593635D01*
X11091923Y6652437D01*
X11134358Y6705816D01*
X11169874Y6749250D01*
X11194949Y6778214D01*
X11205203Y6787969D01*
X11237533Y6797809D01*
X11275261Y6801556D01*
X11315629Y6790667D01*
X11357715Y6763057D01*
X11393190Y6726307D01*
X11413723Y6687999D01*
X11415889Y6673545D01*
X11409020Y6649576D01*
X11390262Y6607243D01*
X11362390Y6552294D01*
X11328181Y6490480D01*
X11324167Y6483537D01*
X11289747Y6423260D01*
X11261217Y6371387D01*
X11241272Y6332959D01*
X11232605Y6313018D01*
X11232445Y6311932D01*
X11245948Y6303386D01*
X11284498Y6291766D01*
X11345153Y6277632D01*
X11424973Y6261546D01*
X11521017Y6244068D01*
X11630343Y6225759D01*
X11750013Y6207181D01*
X11877083Y6188895D01*
X11878357Y6188719D01*
X11924548Y6182334D01*
X12029351Y6391592D01*
X12078753Y6486921D01*
X12120062Y6558524D01*
X12155304Y6609021D01*
X12186503Y6641031D01*
X12215685Y6657173D01*
X12237164Y6660444D01*
X12283480Y6650186D01*
X12329277Y6623806D01*
X12366588Y6587894D01*
X12387445Y6549040D01*
X12389399Y6534513D01*
X12384560Y6506951D01*
X12371559Y6460031D01*
X12352471Y6400694D01*
X12332954Y6345533D01*
X12310549Y6283096D01*
X12292374Y6229248D01*
X12280432Y6190136D01*
X12276667Y6172671D01*
X12280451Y6166297D01*
X12293829Y6161377D01*
X12319839Y6157735D01*
X12361519Y6155197D01*
X12421908Y6153587D01*
X12504042Y6152729D01*
X12610960Y6152448D01*
X12626943Y6152444D01*
X12977219Y6152444D01*
X13038201Y6360583D01*
X13061131Y6436488D01*
X13083329Y6505759D01*
X13102792Y6562438D01*
X13117516Y6600565D01*
X13122034Y6610030D01*
X13129105Y6624797D01*
X13133860Y6642007D01*
X13136165Y6665419D01*
X13135887Y6698791D01*
X13132892Y6745880D01*
X13127048Y6810443D01*
X13118221Y6896240D01*
X13108784Y6983974D01*
X13072684Y7316611D01*
X13134803Y7320974D01*
X13173291Y7322719D01*
X13197623Y7322012D01*
X13201272Y7320974D01*
X13203997Y7306306D01*
X13209233Y7267615D01*
X13216487Y7208936D01*
X13225268Y7134309D01*
X13235084Y7047770D01*
X13240199Y7001547D01*
X13274775Y6686482D01*
X13326054Y6644214D01*
X13349404Y6623569D01*
X13365139Y6603342D01*
X13373658Y6578616D01*
X13375355Y6544475D01*
X13370630Y6496002D01*
X13359877Y6428280D01*
X13348606Y6364732D01*
X13337843Y6301062D01*
X13330221Y6248145D01*
X13326486Y6211786D01*
X13327134Y6197941D01*
X13344465Y6196263D01*
X13384714Y6199271D01*
X13443112Y6206181D01*
X13514890Y6216209D01*
X13595279Y6228569D01*
X13679510Y6242478D01*
X13762813Y6257151D01*
X13840421Y6271802D01*
X13907564Y6285649D01*
X13959473Y6297906D01*
X13988891Y6306802D01*
X14000917Y6313255D01*
X14010291Y6325050D01*
X14018041Y6346460D01*
X14025193Y6381756D01*
X14032774Y6435210D01*
X14041812Y6511095D01*
X14045210Y6541082D01*
X14057862Y6643279D01*
X14070488Y6720940D01*
X14084168Y6777728D01*
X14099982Y6817309D01*
X14119011Y6843346D01*
X14138552Y6857582D01*
X14192511Y6872046D01*
X14251214Y6865681D01*
X14302113Y6839964D01*
X14304352Y6838089D01*
X14319978Y6823891D01*
X14330948Y6809309D01*
X14338230Y6789258D01*
X14342787Y6758649D01*
X14345587Y6712395D01*
X14347594Y6645407D01*
X14348539Y6605256D01*
X14350860Y6534016D01*
X14354098Y6474079D01*
X14357881Y6430479D01*
X14361837Y6408247D01*
X14363238Y6406444D01*
X14386398Y6411349D01*
X14431088Y6424922D01*
X14492687Y6445453D01*
X14566572Y6471233D01*
X14648122Y6500551D01*
X14732713Y6531697D01*
X14815724Y6562961D01*
X14892532Y6592633D01*
X14958516Y6619002D01*
X15009053Y6640358D01*
X15039521Y6654992D01*
X15045320Y6658808D01*
X15047753Y6675171D01*
X15048099Y6714752D01*
X15046473Y6772635D01*
X15042991Y6843901D01*
X15039725Y6896001D01*
X15033768Y6996767D01*
X15031889Y7073512D01*
X15034808Y7130234D01*
X15043243Y7170935D01*
X15057911Y7199613D01*
X15079531Y7220268D01*
X15100176Y7232610D01*
X15156443Y7251318D01*
X15210581Y7244758D01*
X15239526Y7232190D01*
X15260847Y7218181D01*
X15277778Y7198056D01*
X15291955Y7167344D01*
X15305012Y7121572D01*
X15318582Y7056268D01*
X15332442Y6977944D01*
X15343603Y6917329D01*
X15354469Y6867109D01*
X15363526Y6833860D01*
X15367776Y6824410D01*
X15384598Y6825911D01*
X15422534Y6841242D01*
X15478943Y6868993D01*
X15551186Y6907753D01*
X15636623Y6956112D01*
X15732614Y7012660D01*
X15822712Y7067455D01*
X15885416Y7105866D01*
X15927979Y7133542D01*
X15953533Y7155709D01*
X15965209Y7177595D01*
X15966139Y7204429D01*
X15959457Y7241437D01*
X15950847Y7281333D01*
X15942028Y7323667D01*
X17557666Y7323667D01*
X17813750Y7323673D01*
X18043292Y7323734D01*
X18247973Y7323912D01*
X18429473Y7324266D01*
X18589472Y7324860D01*
X18729650Y7325756D01*
X18851689Y7327013D01*
X18957268Y7328695D01*
X19048067Y7330863D01*
X19125767Y7333579D01*
X19192049Y7336904D01*
X19248592Y7340899D01*
X19297077Y7345628D01*
X19339185Y7351150D01*
X19376596Y7357528D01*
X19410989Y7364824D01*
X19444046Y7373098D01*
X19477447Y7382414D01*
X19512872Y7392832D01*
X19522722Y7395758D01*
X19681202Y7455371D01*
X19824218Y7534516D01*
X19949643Y7631157D01*
X20055347Y7743258D01*
X20139201Y7868780D01*
X20199076Y8005688D01*
X20214371Y8057444D01*
X20224955Y8106660D01*
X20231242Y8159744D01*
X20233674Y8223954D01*
X20232699Y8306550D01*
X20231685Y8339667D01*
X20223681Y8464101D01*
X20221937Y8475928D01*
X19506271Y8475928D01*
X19505623Y8383245D01*
X19501179Y8358908D01*
X19465685Y8259113D01*
X19407803Y8176257D01*
X19327975Y8110690D01*
X19226643Y8062763D01*
X19104252Y8032826D01*
X19085278Y8030065D01*
X19063462Y8029026D01*
X19014532Y8028028D01*
X18939587Y8027072D01*
X18839730Y8026158D01*
X18716060Y8025286D01*
X18569680Y8024455D01*
X18401690Y8023667D01*
X18213191Y8022919D01*
X18005284Y8022214D01*
X17779070Y8021550D01*
X17535651Y8020928D01*
X17276126Y8020347D01*
X17001597Y8019808D01*
X16713165Y8019310D01*
X16411931Y8018854D01*
X16098997Y8018440D01*
X15775462Y8018067D01*
X15442428Y8017736D01*
X15100996Y8017446D01*
X14752267Y8017198D01*
X14397342Y8016991D01*
X14037321Y8016825D01*
X13673307Y8016701D01*
X13306400Y8016618D01*
X12937700Y8016577D01*
X12568309Y8016577D01*
X12199328Y8016619D01*
X11831858Y8016702D01*
X11467000Y8016826D01*
X11105855Y8016992D01*
X10749523Y8017198D01*
X10399106Y8017446D01*
X10055705Y8017736D01*
X9720421Y8018066D01*
X9394354Y8018438D01*
X9078606Y8018851D01*
X8774278Y8019306D01*
X8482470Y8019801D01*
X8204285Y8020338D01*
X7940821Y8020915D01*
X7693182Y8021534D01*
X7462467Y8022194D01*
X7249778Y8022895D01*
X7056215Y8023638D01*
X6882881Y8024421D01*
X6730874Y8025245D01*
X6601297Y8026110D01*
X6495251Y8027017D01*
X6413837Y8027964D01*
X6358155Y8028952D01*
X6329306Y8029982D01*
X6326327Y8030257D01*
X6258899Y8043029D01*
X6189318Y8061788D01*
X6134093Y8081893D01*
X6062492Y8123901D01*
X5997520Y8180417D01*
X5946098Y8244290D01*
X5915220Y8308117D01*
X5899860Y8405248D01*
X5907319Y8511998D01*
X5936559Y8622905D01*
X5986545Y8732508D01*
X6000248Y8755944D01*
X6010816Y8772657D01*
X6036114Y8812317D01*
X6075627Y8874121D01*
X6128841Y8957268D01*
X6195240Y9060952D01*
X6274310Y9184373D01*
X6365536Y9326726D01*
X6468402Y9487210D01*
X6582394Y9665020D01*
X6706997Y9859355D01*
X6841695Y10069410D01*
X6985975Y10294384D01*
X7139320Y10533474D01*
X7301217Y10785876D01*
X7471150Y11050787D01*
X7648604Y11327406D01*
X7833065Y11614928D01*
X8024017Y11912551D01*
X8220945Y12219471D01*
X8423335Y12534887D01*
X8630672Y12857995D01*
X8842440Y13187992D01*
X9058125Y13524076D01*
X9149358Y13666232D01*
X9422644Y14092003D01*
X9681078Y14494534D01*
X9925007Y14874362D01*
X10154781Y15232026D01*
X10370748Y15568064D01*
X10573255Y15883014D01*
X10762653Y16177414D01*
X10939289Y16451803D01*
X11103511Y16706719D01*
X11255668Y16942700D01*
X11396109Y17160284D01*
X11525182Y17360009D01*
X11643235Y17542413D01*
X11750617Y17708035D01*
X11847676Y17857413D01*
X11934761Y17991085D01*
X12012219Y18109589D01*
X12080401Y18213463D01*
X12139653Y18303246D01*
X12190325Y18379475D01*
X12232764Y18442690D01*
X12267320Y18493427D01*
X12294341Y18532225D01*
X12314174Y18559623D01*
X12327170Y18576159D01*
X12330867Y18580187D01*
X12384867Y18626378D01*
X12448928Y18671360D01*
X12499195Y18700149D01*
X12605946Y18738009D01*
X12714504Y18748407D01*
X12822677Y18731822D01*
X12928274Y18688728D01*
X13029106Y18619603D01*
X13078315Y18574151D01*
X13088588Y18561991D01*
X13105151Y18539819D01*
X13128365Y18507080D01*
X13158588Y18463217D01*
X13196181Y18407678D01*
X13241502Y18339907D01*
X13294910Y18259349D01*
X13356765Y18165449D01*
X13427427Y18057653D01*
X13507254Y17935405D01*
X13596605Y17798152D01*
X13695841Y17645338D01*
X13805320Y17476408D01*
X13925401Y17290808D01*
X14056445Y17087982D01*
X14198810Y16867377D01*
X14352855Y16628437D01*
X14518940Y16370607D01*
X14697424Y16093333D01*
X14888667Y15796060D01*
X15093027Y15478233D01*
X15310864Y15139297D01*
X15542537Y14778697D01*
X15788406Y14395879D01*
X16048830Y13990288D01*
X16270202Y13645444D01*
X16487741Y13306486D01*
X16701620Y12973119D01*
X16911324Y12646152D01*
X17116333Y12326394D01*
X17316132Y12014657D01*
X17510203Y11711748D01*
X17698028Y11418478D01*
X17879091Y11135656D01*
X18052873Y10864093D01*
X18218859Y10604596D01*
X18376530Y10357978D01*
X18525369Y10125045D01*
X18664859Y9906610D01*
X18794483Y9703480D01*
X18913724Y9516466D01*
X19022063Y9346378D01*
X19118985Y9194024D01*
X19203971Y9060215D01*
X19276505Y8945760D01*
X19336068Y8851469D01*
X19382145Y8778151D01*
X19414217Y8726617D01*
X19431767Y8697674D01*
X19434687Y8692444D01*
X19482743Y8578406D01*
X19506271Y8475928D01*
X20221937Y8475928D01*
X20207262Y8575393D01*
X20180221Y8681779D01*
X20140346Y8791490D01*
X20085426Y8912760D01*
X20068788Y8946444D01*
X20049135Y8982451D01*
X20015497Y9040215D01*
X19969115Y9117730D01*
X19911230Y9212989D01*
X19843081Y9323989D01*
X19765911Y9448721D01*
X19680959Y9585182D01*
X19589467Y9731364D01*
X19492676Y9885262D01*
X19391825Y10044870D01*
X19293709Y10199453D01*
X18599880Y11290184D01*
X18616184Y11412038D01*
X18623196Y11476354D01*
X18624421Y11519527D01*
X18619791Y11538486D01*
X18618994Y11538936D01*
X18601437Y11547321D01*
X18564979Y11565860D01*
X18515640Y11591466D01*
X18479471Y11610461D01*
X18424019Y11640271D01*
X18384596Y11664600D01*
X18354600Y11689716D01*
X18327431Y11721891D01*
X18296485Y11767393D01*
X18269381Y11809996D01*
X18185321Y11943048D01*
X18217057Y11968746D01*
X18241342Y11984359D01*
X18269021Y11991634D01*
X18304881Y11989979D01*
X18353709Y11978797D01*
X18420293Y11957494D01*
X18480781Y11935967D01*
X18543547Y11914210D01*
X18596591Y11897877D01*
X18634423Y11888517D01*
X18651551Y11887676D01*
X18651680Y11887791D01*
X18654710Y11904407D01*
X18657207Y11944448D01*
X18659164Y12003129D01*
X18660577Y12075663D01*
X18661440Y12157263D01*
X18661750Y12243143D01*
X18661501Y12328517D01*
X18660688Y12408597D01*
X18659305Y12478599D01*
X18657349Y12533735D01*
X18654814Y12569220D01*
X18652400Y12580207D01*
X18636173Y12587335D01*
X18597774Y12600666D01*
X18542147Y12618586D01*
X18474237Y12639478D01*
X18436546Y12650734D01*
X18362045Y12673456D01*
X18295200Y12695135D01*
X18241656Y12713843D01*
X18207061Y12727653D01*
X18199145Y12731777D01*
X18184244Y12738974D01*
X18163634Y12743048D01*
X18132849Y12743907D01*
X18087421Y12741461D01*
X18022883Y12735618D01*
X17935899Y12726411D01*
X17858547Y12718132D01*
X17791837Y12711349D01*
X17740444Y12706509D01*
X17709043Y12704059D01*
X17701437Y12704027D01*
X17682014Y12732645D01*
X17661549Y12767259D01*
X17644414Y12799749D01*
X17634976Y12821996D01*
X17635184Y12827130D01*
X17652079Y12828661D01*
X17692279Y12832828D01*
X17751047Y12839123D01*
X17823641Y12847040D01*
X17892659Y12854663D01*
X17996590Y12867190D01*
X18073408Y12878655D01*
X18122771Y12888999D01*
X18144339Y12898160D01*
X18145216Y12899593D01*
X18168604Y12935431D01*
X18206954Y12965754D01*
X18248149Y12981578D01*
X18256669Y12982222D01*
X18286738Y12979756D01*
X18337045Y12973075D01*
X18400109Y12963252D01*
X18456713Y12953495D01*
X18520197Y12942607D01*
X18572725Y12934626D01*
X18608563Y12930353D01*
X18621881Y12930399D01*
X18622681Y12946784D01*
X18618978Y12986269D01*
X18611483Y13044220D01*
X18600907Y13116001D01*
X18587960Y13196977D01*
X18573354Y13282512D01*
X18557798Y13367971D01*
X18543606Y13440833D01*
X18506528Y13624278D01*
X18280847Y13649899D01*
X18179292Y13662522D01*
X18102005Y13675176D01*
X18045065Y13689202D01*
X18004549Y13705940D01*
X17976533Y13726734D01*
X17957096Y13752923D01*
X17952236Y13762271D01*
X17941438Y13798820D01*
X17945512Y13841750D01*
X17949227Y13856715D01*
X17962152Y13892628D01*
X17981477Y13918836D01*
X18011347Y13936799D01*
X18055910Y13947978D01*
X18119311Y13953833D01*
X18205697Y13955824D01*
X18230855Y13955889D01*
X18299237Y13956185D01*
X18356118Y13956995D01*
X18396268Y13958201D01*
X18414458Y13959688D01*
X18415000Y13960004D01*
X18410366Y13978260D01*
X18397620Y14018079D01*
X18378497Y14074576D01*
X18354733Y14142865D01*
X18328060Y14218061D01*
X18300216Y14295278D01*
X18272934Y14369630D01*
X18247949Y14436232D01*
X18226996Y14490199D01*
X18224663Y14496024D01*
X18157756Y14662214D01*
X18028850Y14652319D01*
X17949936Y14647397D01*
X17860487Y14643527D01*
X17778188Y14641455D01*
X17768290Y14641351D01*
X17706231Y14641269D01*
X17665592Y14643300D01*
X17639577Y14649021D01*
X17621387Y14660014D01*
X17604227Y14677855D01*
X17602484Y14679870D01*
X17574234Y14731789D01*
X17568498Y14789822D01*
X17585399Y14844656D01*
X17600084Y14865424D01*
X17618954Y14882688D01*
X17644870Y14896367D01*
X17683648Y14908453D01*
X17741106Y14920940D01*
X17787056Y14929469D01*
X17871747Y14944108D01*
X17931760Y14955114D01*
X17969776Y14965782D01*
X17988475Y14979406D01*
X17990539Y14999279D01*
X17978649Y15028696D01*
X17955485Y15070950D01*
X17933971Y15109978D01*
X17895731Y15179248D01*
X17853021Y15253546D01*
X17808414Y15328731D01*
X17764485Y15400660D01*
X17723809Y15465190D01*
X17688960Y15518177D01*
X17662512Y15555479D01*
X17647039Y15572954D01*
X17645889Y15573585D01*
X17627481Y15572479D01*
X17586863Y15565559D01*
X17529204Y15553841D01*
X17459679Y15538346D01*
X17422713Y15529651D01*
X17346376Y15512055D01*
X17276571Y15497192D01*
X17219385Y15486268D01*
X17180904Y15480491D01*
X17171720Y15479889D01*
X17123474Y15492707D01*
X17081692Y15526016D01*
X17053723Y15572099D01*
X17046222Y15611705D01*
X17047296Y15647921D01*
X17052947Y15676064D01*
X17066825Y15699038D01*
X17092576Y15719749D01*
X17133848Y15741100D01*
X17194288Y15765997D01*
X17277544Y15797344D01*
X17280911Y15798592D01*
X17339754Y15821007D01*
X17388822Y15840844D01*
X17421955Y15855544D01*
X17432518Y15861540D01*
X17428474Y15875939D01*
X17408459Y15907697D01*
X17375448Y15953255D01*
X17332416Y16009054D01*
X17282339Y16071536D01*
X17228192Y16137142D01*
X17172951Y16202313D01*
X17119590Y16263491D01*
X17071086Y16317117D01*
X17030413Y16359634D01*
X17000546Y16387481D01*
X16984727Y16397111D01*
X16966682Y16391729D01*
X16927554Y16376850D01*
X16872074Y16354378D01*
X16804978Y16326214D01*
X16756636Y16305435D01*
X16683393Y16274400D01*
X16617518Y16247853D01*
X16564072Y16227730D01*
X16528115Y16215964D01*
X16516668Y16213713D01*
X16472933Y16226401D01*
X16432038Y16259616D01*
X16400279Y16305875D01*
X16383950Y16357695D01*
X16383000Y16372583D01*
X16387060Y16397688D01*
X16401411Y16422405D01*
X16429310Y16449585D01*
X16474012Y16482083D01*
X16538775Y16522753D01*
X16586970Y16551301D01*
X16644014Y16585694D01*
X16690403Y16615676D01*
X16721612Y16638173D01*
X16733118Y16650114D01*
X16733056Y16650512D01*
X16720330Y16665242D01*
X16689625Y16694472D01*
X16644825Y16734853D01*
X16589811Y16783036D01*
X16528467Y16835673D01*
X16464675Y16889414D01*
X16402318Y16940912D01*
X16345280Y16986816D01*
X16321897Y17005132D01*
X16197293Y17101651D01*
X16005258Y16973125D01*
X15916446Y16915077D01*
X15846453Y16873382D01*
X15791765Y16847141D01*
X15748864Y16835457D01*
X15714233Y16837431D01*
X15684358Y16852166D01*
X15655721Y16878763D01*
X15652019Y16882916D01*
X15616114Y16938626D01*
X15607866Y16992054D01*
X15619841Y17029945D01*
X15635314Y17047997D01*
X15667982Y17079443D01*
X15713112Y17119911D01*
X15765967Y17165031D01*
X15767851Y17166601D01*
X15819369Y17210572D01*
X15861820Y17248856D01*
X15891022Y17277530D01*
X15902793Y17292673D01*
X15902856Y17293167D01*
X15891063Y17305694D01*
X15858489Y17329093D01*
X15809271Y17360984D01*
X15747545Y17398987D01*
X15677448Y17440721D01*
X15603116Y17483806D01*
X15528687Y17525862D01*
X15458296Y17564509D01*
X15396080Y17597366D01*
X15346176Y17622054D01*
X15312719Y17636191D01*
X15302507Y17638618D01*
X15287679Y17629478D01*
X15256196Y17604003D01*
X15211767Y17565396D01*
X15158106Y17516860D01*
X15114950Y17476733D01*
X15055066Y17421874D01*
X14999704Y17373824D01*
X14953122Y17336079D01*
X14919579Y17312133D01*
X14906315Y17305496D01*
X14858060Y17306069D01*
X14810501Y17327109D01*
X14770051Y17362610D01*
X14743122Y17406566D01*
X14736127Y17452974D01*
X14737961Y17463162D01*
X14749793Y17486022D01*
X14776281Y17525152D01*
X14813710Y17575395D01*
X14858364Y17631597D01*
X14866559Y17641559D01*
X14986900Y17787056D01*
X14904949Y17824483D01*
X14861111Y17842971D01*
X14801145Y17866128D01*
X14729731Y17892367D01*
X14651549Y17920102D01*
X14571280Y17947747D01*
X14493604Y17973715D01*
X14423199Y17996421D01*
X14364747Y18014278D01*
X14322928Y18025700D01*
X14302421Y18029102D01*
X14301704Y18028933D01*
X14290680Y18038958D01*
X14266517Y18070158D01*
X14231088Y18119812D01*
X14186269Y18185196D01*
X14133934Y18263589D01*
X14075958Y18352270D01*
X14032825Y18419319D01*
X13967405Y18520905D01*
X13902294Y18620595D01*
X13840187Y18714366D01*
X13783781Y18798191D01*
X13735772Y18868046D01*
X13698856Y18919905D01*
X13686275Y18936696D01*
X13554858Y19089277D01*
X13412885Y19220391D01*
X13262927Y19328014D01*
X13107558Y19410122D01*
X13060321Y19429459D01*
X13002310Y19450657D01*
X12953949Y19465047D01*
X12906305Y19474241D01*
X12850443Y19479848D01*
X12777429Y19483479D01*
X12756445Y19484232D01*
X12644314Y19485051D01*
X12550297Y19477797D01*
X12550297Y19477797D01*
G37*
X12550297Y19477797D02*
X12465014Y19460761D01*
X12379081Y19432234D01*
X12309854Y19402856D01*
X12179037Y19331525D01*
X12046437Y19236503D01*
X11916646Y19121593D01*
X11794255Y18990596D01*
X11755844Y18943950D01*
X11732851Y18912766D01*
X11696496Y18860449D01*
X11648556Y18789683D01*
X11590811Y18703153D01*
X11525039Y18603541D01*
X11453018Y18493532D01*
X11376527Y18375810D01*
X11297343Y18253060D01*
X11274778Y18217914D01*
X10872611Y17590872D01*
X10864819Y18020242D01*
X10826382Y18011008D01*
X10787128Y17999722D01*
X10727422Y17980262D01*
X10653103Y17954711D01*
X10570009Y17925152D01*
X10483982Y17893667D01*
X10400860Y17862338D01*
X10326484Y17833249D01*
X10315222Y17828714D01*
X10167056Y17768744D01*
X10167681Y17665011D01*
X10168560Y17603593D01*
X10170384Y17526736D01*
X10172830Y17447194D01*
X10174079Y17413111D01*
X10175553Y17333141D01*
X10171711Y17276048D01*
X10161039Y17236745D01*
X10142022Y17210144D01*
X10113146Y17191159D01*
X10107180Y17188338D01*
X10068957Y17177505D01*
X10026535Y17173222D01*
X9989011Y17178377D01*
X9958873Y17196030D01*
X9934253Y17229470D01*
X9913280Y17281981D01*
X9894084Y17356851D01*
X9879306Y17431978D01*
X9866604Y17498817D01*
X9854945Y17554280D01*
X9845505Y17593170D01*
X9839459Y17610294D01*
X9838870Y17610667D01*
X9821972Y17603799D01*
X9785219Y17584839D01*
X9732936Y17556250D01*
X9669448Y17520495D01*
X9599079Y17480039D01*
X9526154Y17437343D01*
X9454996Y17394873D01*
X9389931Y17355091D01*
X9386683Y17353072D01*
X9328299Y17315391D01*
X9280386Y17281865D01*
X9247206Y17255678D01*
X9233024Y17240014D01*
X9232900Y17238229D01*
X9238062Y17219777D01*
X9248629Y17178928D01*
X9263328Y17120705D01*
X9280885Y17050130D01*
X9292640Y17002411D01*
X9312909Y16918500D01*
X9326656Y16857078D01*
X9334519Y16813340D01*
X9337142Y16782477D01*
X9335164Y16759683D01*
X9329228Y16740151D01*
X9328018Y16737163D01*
X9296681Y16692470D01*
X9250864Y16663288D01*
X9198513Y16651608D01*
X9147573Y16659420D01*
X9111330Y16682861D01*
X9094343Y16708215D01*
X9071253Y16753822D01*
X9045085Y16813230D01*
X9018864Y16879988D01*
X9018706Y16880417D01*
X8994757Y16943291D01*
X8973593Y16995219D01*
X8957370Y17031162D01*
X8948242Y17046081D01*
X8947788Y17046222D01*
X8931668Y17037438D01*
X8898333Y17013266D01*
X8851744Y16976975D01*
X8795861Y16931837D01*
X8734643Y16881120D01*
X8672051Y16828094D01*
X8612046Y16776031D01*
X8558586Y16728198D01*
X8526648Y16698478D01*
X8410240Y16587611D01*
X8501499Y16383000D01*
X8542924Y16287000D01*
X8571485Y16212056D01*
X8587814Y16154440D01*
X8592541Y16110421D01*
X8586298Y16076271D01*
X8569716Y16048258D01*
X8559966Y16037572D01*
X8516704Y16008509D01*
X8464838Y15993274D01*
X8415903Y15994457D01*
X8397720Y16001139D01*
X8379730Y16018870D01*
X8351602Y16056083D01*
X8316954Y16107615D01*
X8279403Y16168304D01*
X8273121Y16178939D01*
X8237073Y16238302D01*
X8205064Y16287152D01*
X8180128Y16321131D01*
X8165302Y16335883D01*
X8163637Y16336097D01*
X8148694Y16323594D01*
X8119267Y16293032D01*
X8078669Y16248253D01*
X8030213Y16193100D01*
X7977214Y16131417D01*
X7922984Y16067045D01*
X7870838Y16003828D01*
X7824089Y15945609D01*
X7798143Y15912237D01*
X7715231Y15803716D01*
X7843663Y15610052D01*
X7900083Y15523127D01*
X7940819Y15455151D01*
X7967234Y15402576D01*
X7980686Y15361855D01*
X7982535Y15329442D01*
X7974142Y15301790D01*
X7966763Y15288996D01*
X7930236Y15251601D01*
X7881935Y15225175D01*
X7832860Y15214856D01*
X7812681Y15217025D01*
X7787276Y15232223D01*
X7748118Y15267050D01*
X7698341Y15318522D01*
X7655196Y15367095D01*
X7609200Y15419450D01*
X7569182Y15463002D01*
X7538953Y15493750D01*
X7522322Y15507692D01*
X7520971Y15508111D01*
X7509369Y15496456D01*
X7486611Y15464271D01*
X7455198Y15415723D01*
X7417628Y15354982D01*
X7376401Y15286215D01*
X7334015Y15213590D01*
X7292972Y15141277D01*
X7255769Y15073444D01*
X7225205Y15014851D01*
X7166941Y14898969D01*
X7324053Y14736787D01*
X7395085Y14661898D01*
X7447193Y14602651D01*
X7482419Y14555792D01*
X7502805Y14518070D01*
X7510391Y14486232D01*
X7507220Y14457026D01*
X7504715Y14448969D01*
X7474748Y14396978D01*
X7430185Y14360421D01*
X7378731Y14345438D01*
X7374713Y14345356D01*
X7350906Y14348618D01*
X7323367Y14360237D01*
X7287731Y14382959D01*
X7239636Y14419534D01*
X7181514Y14467049D01*
X7127215Y14511215D01*
X7080516Y14547284D01*
X7045669Y14572112D01*
X7026929Y14582555D01*
X7025231Y14582534D01*
X7015526Y14566535D01*
X6998473Y14528345D01*
X6975732Y14472519D01*
X6948964Y14403611D01*
X6919830Y14326176D01*
X6889991Y14244769D01*
X6861106Y14163945D01*
X6834838Y14088258D01*
X6812845Y14022263D01*
X6796790Y13970515D01*
X6788332Y13937568D01*
X6787445Y13930350D01*
X6798185Y13918711D01*
X6827825Y13893516D01*
X6872495Y13857883D01*
X6928325Y13814929D01*
X6964054Y13788071D01*
X7027430Y13739888D01*
X7084548Y13694741D01*
X7130656Y13656514D01*
X7161003Y13629090D01*
X7168665Y13620792D01*
X7193603Y13570150D01*
X7190405Y13517450D01*
X7159080Y13462766D01*
X7152872Y13455436D01*
X7124453Y13427329D01*
X7095918Y13411373D01*
X7062891Y13408227D01*
X7020994Y13418548D01*
X6965848Y13442994D01*
X6893078Y13482224D01*
X6863827Y13498884D01*
X6803593Y13532921D01*
X6752751Y13560610D01*
X6715935Y13579507D01*
X6697777Y13587166D01*
X6696725Y13587078D01*
X6691130Y13570012D01*
X6682200Y13530140D01*
X6670710Y13472066D01*
X6657431Y13400392D01*
X6643137Y13319720D01*
X6628602Y13234653D01*
X6614598Y13149793D01*
X6601899Y13069743D01*
X6591278Y12999104D01*
X6583508Y12942480D01*
X6579362Y12904473D01*
X6579571Y12889716D01*
X6592606Y12882821D01*
X6626645Y12865371D01*
X6677486Y12839506D01*
X6740926Y12807365D01*
X6794500Y12780299D01*
X6879609Y12736439D01*
X6942382Y12701723D01*
X6986317Y12673936D01*
X7014913Y12650860D01*
X7031669Y12630280D01*
X7031895Y12629900D01*
X7049858Y12574796D01*
X7040042Y12519124D01*
X7005964Y12468282D01*
X6982094Y12445980D01*
X6956974Y12432813D01*
X6925953Y12429126D01*
X6884381Y12435262D01*
X6827608Y12451565D01*
X6750984Y12478379D01*
X6721219Y12489344D01*
X6660413Y12511517D01*
X6609205Y12529469D01*
X6573444Y12541197D01*
X6559431Y12544778D01*
X6556172Y12531285D01*
X6553541Y12493271D01*
X6551627Y12434431D01*
X6550519Y12358460D01*
X6550309Y12269054D01*
X6550841Y12190736D01*
X6554611Y11836694D01*
X6777868Y11769419D01*
X6854125Y11745624D01*
X6921681Y11723010D01*
X6975513Y11703380D01*
X7010594Y11688535D01*
X7021085Y11682185D01*
X7028705Y11669627D01*
X7027020Y11651731D01*
X7014034Y11623337D01*
X6987751Y11579287D01*
X6971173Y11553168D01*
X6939410Y11505375D01*
X6912583Y11468284D01*
X6894647Y11447211D01*
X6890234Y11444343D01*
X6872505Y11446821D01*
X6833378Y11453326D01*
X6779208Y11462780D01*
X6734528Y11470794D01*
X6589889Y11497013D01*
X6589889Y11454521D01*
X6592180Y11424352D01*
X6598421Y11373450D01*
X6607664Y11308878D01*
X6618961Y11237697D01*
X6619175Y11236409D01*
X6629758Y11167928D01*
X6637370Y11108581D01*
X6641344Y11064420D01*
X6641010Y11041498D01*
X6640779Y11040767D01*
X6632180Y11026009D01*
X6609570Y10989257D01*
X6574092Y10932325D01*
X6526890Y10857029D01*
X6469106Y10765182D01*
X6401886Y10658599D01*
X6326371Y10539094D01*
X6243707Y10408480D01*
X6155035Y10268574D01*
X6061501Y10121188D01*
X6016677Y10050623D01*
X5892324Y9854622D01*
X5782343Y9680534D01*
X5685732Y9526604D01*
X5601489Y9391078D01*
X5528613Y9272199D01*
X5466103Y9168214D01*
X5412956Y9077367D01*
X5368172Y8997904D01*
X5330748Y8928070D01*
X5299682Y8866109D01*
X5273975Y8810268D01*
X5252623Y8758790D01*
X5234625Y8709922D01*
X5218980Y8661909D01*
X5213305Y8643056D01*
X5188097Y8533953D01*
X5172145Y8413996D01*
X5165914Y8292364D01*
X5169873Y8178232D01*
X5184488Y8080779D01*
X5184664Y8080029D01*
X5233565Y7930351D01*
X5306138Y7795905D01*
X5402181Y7676874D01*
X5521492Y7573440D01*
X5663867Y7485786D01*
X5829104Y7414096D01*
X5971575Y7369944D01*
X6117167Y7331528D01*
X7815889Y7324069D01*
X9514612Y7316611D01*
X9405625Y7225360D01*
X9296637Y7134109D01*
X9329601Y7107416D01*
X9362041Y7084398D01*
X9413923Y7051313D01*
X9479777Y7011358D01*
X9554133Y6967731D01*
X9631520Y6923626D01*
X9706470Y6882241D01*
X9773511Y6846771D01*
X9789889Y6838452D01*
X9914483Y6775877D01*
X10085089Y6936646D01*
X10144851Y6991720D01*
X10200220Y7040465D01*
X10246855Y7079230D01*
X10280415Y7104363D01*
X10293189Y7111671D01*
X10340386Y7116108D01*
X10391369Y7100382D01*
X10435387Y7068518D01*
X10447434Y7053906D01*
X10465849Y7020868D01*
X10471725Y6988004D01*
X10463539Y6951140D01*
X10439769Y6906104D01*
X10398891Y6848721D01*
X10350500Y6788267D01*
X10306291Y6733925D01*
X10269427Y6687378D01*
X10243232Y6652918D01*
X10231033Y6634837D01*
X10230556Y6633441D01*
X10243198Y6624357D01*
X10278213Y6608102D01*
X10331235Y6586234D01*
X10397899Y6560314D01*
X10473840Y6531901D01*
X10554691Y6502553D01*
X10636087Y6473830D01*
X10713662Y6447291D01*
X10783051Y6424496D01*
X10839887Y6407003D01*
X10879805Y6396372D01*
X10898440Y6394162D01*
X10899133Y6394657D01*
X10923373Y6429921D01*
X10958292Y6477854D01*
X11000369Y6533933D01*
X11046086Y6593635D01*
X11091923Y6652437D01*
X11134358Y6705816D01*
X11169874Y6749250D01*
X11194949Y6778214D01*
X11205203Y6787969D01*
X11237533Y6797809D01*
X11275261Y6801556D01*
X11315629Y6790667D01*
X11357715Y6763057D01*
X11393190Y6726307D01*
X11413723Y6687999D01*
X11415889Y6673545D01*
X11409020Y6649576D01*
X11390262Y6607243D01*
X11362390Y6552294D01*
X11328181Y6490480D01*
X11324167Y6483537D01*
X11289747Y6423260D01*
X11261217Y6371387D01*
X11241272Y6332959D01*
X11232605Y6313018D01*
X11232445Y6311932D01*
X11245948Y6303386D01*
X11284498Y6291766D01*
X11345153Y6277632D01*
X11424973Y6261546D01*
X11521017Y6244068D01*
X11630343Y6225759D01*
X11750013Y6207181D01*
X11877083Y6188895D01*
X11878357Y6188719D01*
X11924548Y6182334D01*
X12029351Y6391592D01*
X12078753Y6486921D01*
X12120062Y6558524D01*
X12155304Y6609021D01*
X12186503Y6641031D01*
X12215685Y6657173D01*
X12237164Y6660444D01*
X12283480Y6650186D01*
X12329277Y6623806D01*
X12366588Y6587894D01*
X12387445Y6549040D01*
X12389399Y6534513D01*
X12384560Y6506951D01*
X12371559Y6460031D01*
X12352471Y6400694D01*
X12332954Y6345533D01*
X12310549Y6283096D01*
X12292374Y6229248D01*
X12280432Y6190136D01*
X12276667Y6172671D01*
X12280451Y6166297D01*
X12293829Y6161377D01*
X12319839Y6157735D01*
X12361519Y6155197D01*
X12421908Y6153587D01*
X12504042Y6152729D01*
X12610960Y6152448D01*
X12626943Y6152444D01*
X12977219Y6152444D01*
X13038201Y6360583D01*
X13061131Y6436488D01*
X13083329Y6505759D01*
X13102792Y6562438D01*
X13117516Y6600565D01*
X13122034Y6610030D01*
X13129105Y6624797D01*
X13133860Y6642007D01*
X13136165Y6665419D01*
X13135887Y6698791D01*
X13132892Y6745880D01*
X13127048Y6810443D01*
X13118221Y6896240D01*
X13108784Y6983974D01*
X13072684Y7316611D01*
X13134803Y7320974D01*
X13173291Y7322719D01*
X13197623Y7322012D01*
X13201272Y7320974D01*
X13203997Y7306306D01*
X13209233Y7267615D01*
X13216487Y7208936D01*
X13225268Y7134309D01*
X13235084Y7047770D01*
X13240199Y7001547D01*
X13274775Y6686482D01*
X13326054Y6644214D01*
X13349404Y6623569D01*
X13365139Y6603342D01*
X13373658Y6578616D01*
X13375355Y6544475D01*
X13370630Y6496002D01*
X13359877Y6428280D01*
X13348606Y6364732D01*
X13337843Y6301062D01*
X13330221Y6248145D01*
X13326486Y6211786D01*
X13327134Y6197941D01*
X13344465Y6196263D01*
X13384714Y6199271D01*
X13443112Y6206181D01*
X13514890Y6216209D01*
X13595279Y6228569D01*
X13679510Y6242478D01*
X13762813Y6257151D01*
X13840421Y6271802D01*
X13907564Y6285649D01*
X13959473Y6297906D01*
X13988891Y6306802D01*
X14000917Y6313255D01*
X14010291Y6325050D01*
X14018041Y6346460D01*
X14025193Y6381756D01*
X14032774Y6435210D01*
X14041812Y6511095D01*
X14045210Y6541082D01*
X14057862Y6643279D01*
X14070488Y6720940D01*
X14084168Y6777728D01*
X14099982Y6817309D01*
X14119011Y6843346D01*
X14138552Y6857582D01*
X14192511Y6872046D01*
X14251214Y6865681D01*
X14302113Y6839964D01*
X14304352Y6838089D01*
X14319978Y6823891D01*
X14330948Y6809309D01*
X14338230Y6789258D01*
X14342787Y6758649D01*
X14345587Y6712395D01*
X14347594Y6645407D01*
X14348539Y6605256D01*
X14350860Y6534016D01*
X14354098Y6474079D01*
X14357881Y6430479D01*
X14361837Y6408247D01*
X14363238Y6406444D01*
X14386398Y6411349D01*
X14431088Y6424922D01*
X14492687Y6445453D01*
X14566572Y6471233D01*
X14648122Y6500551D01*
X14732713Y6531697D01*
X14815724Y6562961D01*
X14892532Y6592633D01*
X14958516Y6619002D01*
X15009053Y6640358D01*
X15039521Y6654992D01*
X15045320Y6658808D01*
X15047753Y6675171D01*
X15048099Y6714752D01*
X15046473Y6772635D01*
X15042991Y6843901D01*
X15039725Y6896001D01*
X15033768Y6996767D01*
X15031889Y7073512D01*
X15034808Y7130234D01*
X15043243Y7170935D01*
X15057911Y7199613D01*
X15079531Y7220268D01*
X15100176Y7232610D01*
X15156443Y7251318D01*
X15210581Y7244758D01*
X15239526Y7232190D01*
X15260847Y7218181D01*
X15277778Y7198056D01*
X15291955Y7167344D01*
X15305012Y7121572D01*
X15318582Y7056268D01*
X15332442Y6977944D01*
X15343603Y6917329D01*
X15354469Y6867109D01*
X15363526Y6833860D01*
X15367776Y6824410D01*
X15384598Y6825911D01*
X15422534Y6841242D01*
X15478943Y6868993D01*
X15551186Y6907753D01*
X15636623Y6956112D01*
X15732614Y7012660D01*
X15822712Y7067455D01*
X15885416Y7105866D01*
X15927979Y7133542D01*
X15953533Y7155709D01*
X15965209Y7177595D01*
X15966139Y7204429D01*
X15959457Y7241437D01*
X15950847Y7281333D01*
X15942028Y7323667D01*
X17557666Y7323667D01*
X17813750Y7323673D01*
X18043292Y7323734D01*
X18247973Y7323912D01*
X18429473Y7324266D01*
X18589472Y7324860D01*
X18729650Y7325756D01*
X18851689Y7327013D01*
X18957268Y7328695D01*
X19048067Y7330863D01*
X19125767Y7333579D01*
X19192049Y7336904D01*
X19248592Y7340899D01*
X19297077Y7345628D01*
X19339185Y7351150D01*
X19376596Y7357528D01*
X19410989Y7364824D01*
X19444046Y7373098D01*
X19477447Y7382414D01*
X19512872Y7392832D01*
X19522722Y7395758D01*
X19681202Y7455371D01*
X19824218Y7534516D01*
X19949643Y7631157D01*
X20055347Y7743258D01*
X20139201Y7868780D01*
X20199076Y8005688D01*
X20214371Y8057444D01*
X20224955Y8106660D01*
X20231242Y8159744D01*
X20233674Y8223954D01*
X20232699Y8306550D01*
X20231685Y8339667D01*
X20223681Y8464101D01*
X20221937Y8475928D01*
X19506271Y8475928D01*
X19505623Y8383245D01*
X19501179Y8358908D01*
X19465685Y8259113D01*
X19407803Y8176257D01*
X19327975Y8110690D01*
X19226643Y8062763D01*
X19104252Y8032826D01*
X19085278Y8030065D01*
X19063462Y8029026D01*
X19014532Y8028028D01*
X18939587Y8027072D01*
X18839730Y8026158D01*
X18716060Y8025286D01*
X18569680Y8024455D01*
X18401690Y8023667D01*
X18213191Y8022919D01*
X18005284Y8022214D01*
X17779070Y8021550D01*
X17535651Y8020928D01*
X17276126Y8020347D01*
X17001597Y8019808D01*
X16713165Y8019310D01*
X16411931Y8018854D01*
X16098997Y8018440D01*
X15775462Y8018067D01*
X15442428Y8017736D01*
X15100996Y8017446D01*
X14752267Y8017198D01*
X14397342Y8016991D01*
X14037321Y8016825D01*
X13673307Y8016701D01*
X13306400Y8016618D01*
X12937700Y8016577D01*
X12568309Y8016577D01*
X12199328Y8016619D01*
X11831858Y8016702D01*
X11467000Y8016826D01*
X11105855Y8016992D01*
X10749523Y8017198D01*
X10399106Y8017446D01*
X10055705Y8017736D01*
X9720421Y8018066D01*
X9394354Y8018438D01*
X9078606Y8018851D01*
X8774278Y8019306D01*
X8482470Y8019801D01*
X8204285Y8020338D01*
X7940821Y8020915D01*
X7693182Y8021534D01*
X7462467Y8022194D01*
X7249778Y8022895D01*
X7056215Y8023638D01*
X6882881Y8024421D01*
X6730874Y8025245D01*
X6601297Y8026110D01*
X6495251Y8027017D01*
X6413837Y8027964D01*
X6358155Y8028952D01*
X6329306Y8029982D01*
X6326327Y8030257D01*
X6258899Y8043029D01*
X6189318Y8061788D01*
X6134093Y8081893D01*
X6062492Y8123901D01*
X5997520Y8180417D01*
X5946098Y8244290D01*
X5915220Y8308117D01*
X5899860Y8405248D01*
X5907319Y8511998D01*
X5936559Y8622905D01*
X5986545Y8732508D01*
X6000248Y8755944D01*
X6010816Y8772657D01*
X6036114Y8812317D01*
X6075627Y8874121D01*
X6128841Y8957268D01*
X6195240Y9060952D01*
X6274310Y9184373D01*
X6365536Y9326726D01*
X6468402Y9487210D01*
X6582394Y9665020D01*
X6706997Y9859355D01*
X6841695Y10069410D01*
X6985975Y10294384D01*
X7139320Y10533474D01*
X7301217Y10785876D01*
X7471150Y11050787D01*
X7648604Y11327406D01*
X7833065Y11614928D01*
X8024017Y11912551D01*
X8220945Y12219471D01*
X8423335Y12534887D01*
X8630672Y12857995D01*
X8842440Y13187992D01*
X9058125Y13524076D01*
X9149358Y13666232D01*
X9422644Y14092003D01*
X9681078Y14494534D01*
X9925007Y14874362D01*
X10154781Y15232026D01*
X10370748Y15568064D01*
X10573255Y15883014D01*
X10762653Y16177414D01*
X10939289Y16451803D01*
X11103511Y16706719D01*
X11255668Y16942700D01*
X11396109Y17160284D01*
X11525182Y17360009D01*
X11643235Y17542413D01*
X11750617Y17708035D01*
X11847676Y17857413D01*
X11934761Y17991085D01*
X12012219Y18109589D01*
X12080401Y18213463D01*
X12139653Y18303246D01*
X12190325Y18379475D01*
X12232764Y18442690D01*
X12267320Y18493427D01*
X12294341Y18532225D01*
X12314174Y18559623D01*
X12327170Y18576159D01*
X12330867Y18580187D01*
X12384867Y18626378D01*
X12448928Y18671360D01*
X12499195Y18700149D01*
X12605946Y18738009D01*
X12714504Y18748407D01*
X12822677Y18731822D01*
X12928274Y18688728D01*
X13029106Y18619603D01*
X13078315Y18574151D01*
X13088588Y18561991D01*
X13105151Y18539819D01*
X13128365Y18507080D01*
X13158588Y18463217D01*
X13196181Y18407678D01*
X13241502Y18339907D01*
X13294910Y18259349D01*
X13356765Y18165449D01*
X13427427Y18057653D01*
X13507254Y17935405D01*
X13596605Y17798152D01*
X13695841Y17645338D01*
X13805320Y17476408D01*
X13925401Y17290808D01*
X14056445Y17087982D01*
X14198810Y16867377D01*
X14352855Y16628437D01*
X14518940Y16370607D01*
X14697424Y16093333D01*
X14888667Y15796060D01*
X15093027Y15478233D01*
X15310864Y15139297D01*
X15542537Y14778697D01*
X15788406Y14395879D01*
X16048830Y13990288D01*
X16270202Y13645444D01*
X16487741Y13306486D01*
X16701620Y12973119D01*
X16911324Y12646152D01*
X17116333Y12326394D01*
X17316132Y12014657D01*
X17510203Y11711748D01*
X17698028Y11418478D01*
X17879091Y11135656D01*
X18052873Y10864093D01*
X18218859Y10604596D01*
X18376530Y10357978D01*
X18525369Y10125045D01*
X18664859Y9906610D01*
X18794483Y9703480D01*
X18913724Y9516466D01*
X19022063Y9346378D01*
X19118985Y9194024D01*
X19203971Y9060215D01*
X19276505Y8945760D01*
X19336068Y8851469D01*
X19382145Y8778151D01*
X19414217Y8726617D01*
X19431767Y8697674D01*
X19434687Y8692444D01*
X19482743Y8578406D01*
X19506271Y8475928D01*
X20221937Y8475928D01*
X20207262Y8575393D01*
X20180221Y8681779D01*
X20140346Y8791490D01*
X20085426Y8912760D01*
X20068788Y8946444D01*
X20049135Y8982451D01*
X20015497Y9040215D01*
X19969115Y9117730D01*
X19911230Y9212989D01*
X19843081Y9323989D01*
X19765911Y9448721D01*
X19680959Y9585182D01*
X19589467Y9731364D01*
X19492676Y9885262D01*
X19391825Y10044870D01*
X19293709Y10199453D01*
X18599880Y11290184D01*
X18616184Y11412038D01*
X18623196Y11476354D01*
X18624421Y11519527D01*
X18619791Y11538486D01*
X18618994Y11538936D01*
X18601437Y11547321D01*
X18564979Y11565860D01*
X18515640Y11591466D01*
X18479471Y11610461D01*
X18424019Y11640271D01*
X18384596Y11664600D01*
X18354600Y11689716D01*
X18327431Y11721891D01*
X18296485Y11767393D01*
X18269381Y11809996D01*
X18185321Y11943048D01*
X18217057Y11968746D01*
X18241342Y11984359D01*
X18269021Y11991634D01*
X18304881Y11989979D01*
X18353709Y11978797D01*
X18420293Y11957494D01*
X18480781Y11935967D01*
X18543547Y11914210D01*
X18596591Y11897877D01*
X18634423Y11888517D01*
X18651551Y11887676D01*
X18651680Y11887791D01*
X18654710Y11904407D01*
X18657207Y11944448D01*
X18659164Y12003129D01*
X18660577Y12075663D01*
X18661440Y12157263D01*
X18661750Y12243143D01*
X18661501Y12328517D01*
X18660688Y12408597D01*
X18659305Y12478599D01*
X18657349Y12533735D01*
X18654814Y12569220D01*
X18652400Y12580207D01*
X18636173Y12587335D01*
X18597774Y12600666D01*
X18542147Y12618586D01*
X18474237Y12639478D01*
X18436546Y12650734D01*
X18362045Y12673456D01*
X18295200Y12695135D01*
X18241656Y12713843D01*
X18207061Y12727653D01*
X18199145Y12731777D01*
X18184244Y12738974D01*
X18163634Y12743048D01*
X18132849Y12743907D01*
X18087421Y12741461D01*
X18022883Y12735618D01*
X17935899Y12726411D01*
X17858547Y12718132D01*
X17791837Y12711349D01*
X17740444Y12706509D01*
X17709043Y12704059D01*
X17701437Y12704027D01*
X17682014Y12732645D01*
X17661549Y12767259D01*
X17644414Y12799749D01*
X17634976Y12821996D01*
X17635184Y12827130D01*
X17652079Y12828661D01*
X17692279Y12832828D01*
X17751047Y12839123D01*
X17823641Y12847040D01*
X17892659Y12854663D01*
X17996590Y12867190D01*
X18073408Y12878655D01*
X18122771Y12888999D01*
X18144339Y12898160D01*
X18145216Y12899593D01*
X18168604Y12935431D01*
X18206954Y12965754D01*
X18248149Y12981578D01*
X18256669Y12982222D01*
X18286738Y12979756D01*
X18337045Y12973075D01*
X18400109Y12963252D01*
X18456713Y12953495D01*
X18520197Y12942607D01*
X18572725Y12934626D01*
X18608563Y12930353D01*
X18621881Y12930399D01*
X18622681Y12946784D01*
X18618978Y12986269D01*
X18611483Y13044220D01*
X18600907Y13116001D01*
X18587960Y13196977D01*
X18573354Y13282512D01*
X18557798Y13367971D01*
X18543606Y13440833D01*
X18506528Y13624278D01*
X18280847Y13649899D01*
X18179292Y13662522D01*
X18102005Y13675176D01*
X18045065Y13689202D01*
X18004549Y13705940D01*
X17976533Y13726734D01*
X17957096Y13752923D01*
X17952236Y13762271D01*
X17941438Y13798820D01*
X17945512Y13841750D01*
X17949227Y13856715D01*
X17962152Y13892628D01*
X17981477Y13918836D01*
X18011347Y13936799D01*
X18055910Y13947978D01*
X18119311Y13953833D01*
X18205697Y13955824D01*
X18230855Y13955889D01*
X18299237Y13956185D01*
X18356118Y13956995D01*
X18396268Y13958201D01*
X18414458Y13959688D01*
X18415000Y13960004D01*
X18410366Y13978260D01*
X18397620Y14018079D01*
X18378497Y14074576D01*
X18354733Y14142865D01*
X18328060Y14218061D01*
X18300216Y14295278D01*
X18272934Y14369630D01*
X18247949Y14436232D01*
X18226996Y14490199D01*
X18224663Y14496024D01*
X18157756Y14662214D01*
X18028850Y14652319D01*
X17949936Y14647397D01*
X17860487Y14643527D01*
X17778188Y14641455D01*
X17768290Y14641351D01*
X17706231Y14641269D01*
X17665592Y14643300D01*
X17639577Y14649021D01*
X17621387Y14660014D01*
X17604227Y14677855D01*
X17602484Y14679870D01*
X17574234Y14731789D01*
X17568498Y14789822D01*
X17585399Y14844656D01*
X17600084Y14865424D01*
X17618954Y14882688D01*
X17644870Y14896367D01*
X17683648Y14908453D01*
X17741106Y14920940D01*
X17787056Y14929469D01*
X17871747Y14944108D01*
X17931760Y14955114D01*
X17969776Y14965782D01*
X17988475Y14979406D01*
X17990539Y14999279D01*
X17978649Y15028696D01*
X17955485Y15070950D01*
X17933971Y15109978D01*
X17895731Y15179248D01*
X17853021Y15253546D01*
X17808414Y15328731D01*
X17764485Y15400660D01*
X17723809Y15465190D01*
X17688960Y15518177D01*
X17662512Y15555479D01*
X17647039Y15572954D01*
X17645889Y15573585D01*
X17627481Y15572479D01*
X17586863Y15565559D01*
X17529204Y15553841D01*
X17459679Y15538346D01*
X17422713Y15529651D01*
X17346376Y15512055D01*
X17276571Y15497192D01*
X17219385Y15486268D01*
X17180904Y15480491D01*
X17171720Y15479889D01*
X17123474Y15492707D01*
X17081692Y15526016D01*
X17053723Y15572099D01*
X17046222Y15611705D01*
X17047296Y15647921D01*
X17052947Y15676064D01*
X17066825Y15699038D01*
X17092576Y15719749D01*
X17133848Y15741100D01*
X17194288Y15765997D01*
X17277544Y15797344D01*
X17280911Y15798592D01*
X17339754Y15821007D01*
X17388822Y15840844D01*
X17421955Y15855544D01*
X17432518Y15861540D01*
X17428474Y15875939D01*
X17408459Y15907697D01*
X17375448Y15953255D01*
X17332416Y16009054D01*
X17282339Y16071536D01*
X17228192Y16137142D01*
X17172951Y16202313D01*
X17119590Y16263491D01*
X17071086Y16317117D01*
X17030413Y16359634D01*
X17000546Y16387481D01*
X16984727Y16397111D01*
X16966682Y16391729D01*
X16927554Y16376850D01*
X16872074Y16354378D01*
X16804978Y16326214D01*
X16756636Y16305435D01*
X16683393Y16274400D01*
X16617518Y16247853D01*
X16564072Y16227730D01*
X16528115Y16215964D01*
X16516668Y16213713D01*
X16472933Y16226401D01*
X16432038Y16259616D01*
X16400279Y16305875D01*
X16383950Y16357695D01*
X16383000Y16372583D01*
X16387060Y16397688D01*
X16401411Y16422405D01*
X16429310Y16449585D01*
X16474012Y16482083D01*
X16538775Y16522753D01*
X16586970Y16551301D01*
X16644014Y16585694D01*
X16690403Y16615676D01*
X16721612Y16638173D01*
X16733118Y16650114D01*
X16733056Y16650512D01*
X16720330Y16665242D01*
X16689625Y16694472D01*
X16644825Y16734853D01*
X16589811Y16783036D01*
X16528467Y16835673D01*
X16464675Y16889414D01*
X16402318Y16940912D01*
X16345280Y16986816D01*
X16321897Y17005132D01*
X16197293Y17101651D01*
X16005258Y16973125D01*
X15916446Y16915077D01*
X15846453Y16873382D01*
X15791765Y16847141D01*
X15748864Y16835457D01*
X15714233Y16837431D01*
X15684358Y16852166D01*
X15655721Y16878763D01*
X15652019Y16882916D01*
X15616114Y16938626D01*
X15607866Y16992054D01*
X15619841Y17029945D01*
X15635314Y17047997D01*
X15667982Y17079443D01*
X15713112Y17119911D01*
X15765967Y17165031D01*
X15767851Y17166601D01*
X15819369Y17210572D01*
X15861820Y17248856D01*
X15891022Y17277530D01*
X15902793Y17292673D01*
X15902856Y17293167D01*
X15891063Y17305694D01*
X15858489Y17329093D01*
X15809271Y17360984D01*
X15747545Y17398987D01*
X15677448Y17440721D01*
X15603116Y17483806D01*
X15528687Y17525862D01*
X15458296Y17564509D01*
X15396080Y17597366D01*
X15346176Y17622054D01*
X15312719Y17636191D01*
X15302507Y17638618D01*
X15287679Y17629478D01*
X15256196Y17604003D01*
X15211767Y17565396D01*
X15158106Y17516860D01*
X15114950Y17476733D01*
X15055066Y17421874D01*
X14999704Y17373824D01*
X14953122Y17336079D01*
X14919579Y17312133D01*
X14906315Y17305496D01*
X14858060Y17306069D01*
X14810501Y17327109D01*
X14770051Y17362610D01*
X14743122Y17406566D01*
X14736127Y17452974D01*
X14737961Y17463162D01*
X14749793Y17486022D01*
X14776281Y17525152D01*
X14813710Y17575395D01*
X14858364Y17631597D01*
X14866559Y17641559D01*
X14986900Y17787056D01*
X14904949Y17824483D01*
X14861111Y17842971D01*
X14801145Y17866128D01*
X14729731Y17892367D01*
X14651549Y17920102D01*
X14571280Y17947747D01*
X14493604Y17973715D01*
X14423199Y17996421D01*
X14364747Y18014278D01*
X14322928Y18025700D01*
X14302421Y18029102D01*
X14301704Y18028933D01*
X14290680Y18038958D01*
X14266517Y18070158D01*
X14231088Y18119812D01*
X14186269Y18185196D01*
X14133934Y18263589D01*
X14075958Y18352270D01*
X14032825Y18419319D01*
X13967405Y18520905D01*
X13902294Y18620595D01*
X13840187Y18714366D01*
X13783781Y18798191D01*
X13735772Y18868046D01*
X13698856Y18919905D01*
X13686275Y18936696D01*
X13554858Y19089277D01*
X13412885Y19220391D01*
X13262927Y19328014D01*
X13107558Y19410122D01*
X13060321Y19429459D01*
X13002310Y19450657D01*
X12953949Y19465047D01*
X12906305Y19474241D01*
X12850443Y19479848D01*
X12777429Y19483479D01*
X12756445Y19484232D01*
X12644314Y19485051D01*
X12550297Y19477797D01*
G36*
X14257610Y14109677D02*
X14245288Y14101383D01*
X14236325Y14082262D01*
X14228608Y14047979D01*
X14220020Y13994202D01*
X14209608Y13924280D01*
X14202694Y13866092D01*
X14203405Y13824609D01*
X14212255Y13789223D01*
X14216696Y13777918D01*
X14220304Y13766538D01*
X14223491Y13749605D01*
X14226282Y13725452D01*
X14228704Y13692417D01*
X14230780Y13648834D01*
X14232537Y13593040D01*
X14233999Y13523369D01*
X14235191Y13438158D01*
X14236139Y13335743D01*
X14236868Y13214458D01*
X14237403Y13072640D01*
X14237769Y12908625D01*
X14237991Y12720747D01*
X14238095Y12507343D01*
X14238111Y12361553D01*
X14238111Y10996441D01*
X14161030Y10987382D01*
X14085436Y10973859D01*
X14036131Y10954285D01*
X14013724Y10928937D01*
X14012333Y10919735D01*
X14018043Y10898054D01*
X14024970Y10893778D01*
X14038210Y10882247D01*
X14057166Y10853071D01*
X14066337Y10835709D01*
X14084706Y10788250D01*
X14085132Y10752839D01*
X14082693Y10745095D01*
X14079186Y10723345D01*
X14075088Y10677062D01*
X14070608Y10609923D01*
X14065959Y10525607D01*
X14061353Y10427790D01*
X14057001Y10320150D01*
X14054973Y10263413D01*
X14050431Y10131760D01*
X14045457Y9989766D01*
X14040327Y9845168D01*
X14035317Y9705706D01*
X14030703Y9579120D01*
X14026828Y9474911D01*
X14022598Y9348362D01*
X14020818Y9246227D01*
X14022020Y9164763D01*
X14026733Y9100228D01*
X14035487Y9048878D01*
X14048813Y9006972D01*
X14067239Y8970766D01*
X14091297Y8936517D01*
X14105537Y8919036D01*
X14142284Y8883910D01*
X14183047Y8856597D01*
X14191138Y8852804D01*
X14248995Y8838361D01*
X14316237Y8835423D01*
X14377764Y8844243D01*
X14393326Y8849409D01*
X14453418Y8887692D01*
X14506609Y8950433D01*
X14525235Y8981722D01*
X14538506Y9009866D01*
X14547244Y9039863D01*
X14552311Y9078286D01*
X14554569Y9131707D01*
X14554883Y9206698D01*
X14554879Y9207500D01*
X14553664Y9279967D01*
X14550698Y9372374D01*
X14546202Y9481190D01*
X14540401Y9602885D01*
X14533517Y9733928D01*
X14525773Y9870788D01*
X14517392Y10009935D01*
X14508596Y10147837D01*
X14499609Y10280965D01*
X14490654Y10405787D01*
X14481953Y10518772D01*
X14473729Y10616391D01*
X14466205Y10695112D01*
X14459604Y10751404D01*
X14456006Y10773833D01*
X14455744Y10811648D01*
X14472924Y10852308D01*
X14484793Y10870905D01*
X14505526Y10907170D01*
X14515274Y10936019D01*
X14514869Y10944109D01*
X14497419Y10959025D01*
X14462224Y10974407D01*
X14419476Y10986715D01*
X14379366Y10992407D01*
X14375695Y10992477D01*
X14371595Y10993628D01*
X14367975Y10998148D01*
X14364804Y11007685D01*
X14362053Y11023882D01*
X14359693Y11048385D01*
X14357693Y11082840D01*
X14356024Y11128891D01*
X14354656Y11188184D01*
X14353560Y11262363D01*
X14352706Y11353076D01*
X14352064Y11461965D01*
X14351605Y11590677D01*
X14351298Y11740858D01*
X14351115Y11914151D01*
X14351026Y12112203D01*
X14351000Y12336659D01*
X14351000Y12361896D01*
X14351019Y12589341D01*
X14351097Y12790280D01*
X14351265Y12966429D01*
X14351555Y13119504D01*
X14351999Y13251221D01*
X14352629Y13363295D01*
X14353476Y13457443D01*
X14354572Y13535381D01*
X14355949Y13598825D01*
X14357638Y13649491D01*
X14359672Y13689094D01*
X14362081Y13719352D01*
X14364897Y13741979D01*
X14368153Y13758692D01*
X14371880Y13771207D01*
X14376109Y13781239D01*
X14377264Y13783590D01*
X14392839Y13819595D01*
X14399702Y13845654D01*
X14399451Y13850056D01*
X14395837Y13869664D01*
X14389672Y13909955D01*
X14382053Y13963624D01*
X14378786Y13987639D01*
X14362196Y14111111D01*
X14300793Y14111111D01*
X14275407Y14111475D01*
X14257610Y14109677D01*
X14257610Y14109677D01*
G37*
X14257610Y14109677D02*
X14245288Y14101383D01*
X14236325Y14082262D01*
X14228608Y14047979D01*
X14220020Y13994202D01*
X14209608Y13924280D01*
X14202694Y13866092D01*
X14203405Y13824609D01*
X14212255Y13789223D01*
X14216696Y13777918D01*
X14220304Y13766538D01*
X14223491Y13749605D01*
X14226282Y13725452D01*
X14228704Y13692417D01*
X14230780Y13648834D01*
X14232537Y13593040D01*
X14233999Y13523369D01*
X14235191Y13438158D01*
X14236139Y13335743D01*
X14236868Y13214458D01*
X14237403Y13072640D01*
X14237769Y12908625D01*
X14237991Y12720747D01*
X14238095Y12507343D01*
X14238111Y12361553D01*
X14238111Y10996441D01*
X14161030Y10987382D01*
X14085436Y10973859D01*
X14036131Y10954285D01*
X14013724Y10928937D01*
X14012333Y10919735D01*
X14018043Y10898054D01*
X14024970Y10893778D01*
X14038210Y10882247D01*
X14057166Y10853071D01*
X14066337Y10835709D01*
X14084706Y10788250D01*
X14085132Y10752839D01*
X14082693Y10745095D01*
X14079186Y10723345D01*
X14075088Y10677062D01*
X14070608Y10609923D01*
X14065959Y10525607D01*
X14061353Y10427790D01*
X14057001Y10320150D01*
X14054973Y10263413D01*
X14050431Y10131760D01*
X14045457Y9989766D01*
X14040327Y9845168D01*
X14035317Y9705706D01*
X14030703Y9579120D01*
X14026828Y9474911D01*
X14022598Y9348362D01*
X14020818Y9246227D01*
X14022020Y9164763D01*
X14026733Y9100228D01*
X14035487Y9048878D01*
X14048813Y9006972D01*
X14067239Y8970766D01*
X14091297Y8936517D01*
X14105537Y8919036D01*
X14142284Y8883910D01*
X14183047Y8856597D01*
X14191138Y8852804D01*
X14248995Y8838361D01*
X14316237Y8835423D01*
X14377764Y8844243D01*
X14393326Y8849409D01*
X14453418Y8887692D01*
X14506609Y8950433D01*
X14525235Y8981722D01*
X14538506Y9009866D01*
X14547244Y9039863D01*
X14552311Y9078286D01*
X14554569Y9131707D01*
X14554883Y9206698D01*
X14554879Y9207500D01*
X14553664Y9279967D01*
X14550698Y9372374D01*
X14546202Y9481190D01*
X14540401Y9602885D01*
X14533517Y9733928D01*
X14525773Y9870788D01*
X14517392Y10009935D01*
X14508596Y10147837D01*
X14499609Y10280965D01*
X14490654Y10405787D01*
X14481953Y10518772D01*
X14473729Y10616391D01*
X14466205Y10695112D01*
X14459604Y10751404D01*
X14456006Y10773833D01*
X14455744Y10811648D01*
X14472924Y10852308D01*
X14484793Y10870905D01*
X14505526Y10907170D01*
X14515274Y10936019D01*
X14514869Y10944109D01*
X14497419Y10959025D01*
X14462224Y10974407D01*
X14419476Y10986715D01*
X14379366Y10992407D01*
X14375695Y10992477D01*
X14371595Y10993628D01*
X14367975Y10998148D01*
X14364804Y11007685D01*
X14362053Y11023882D01*
X14359693Y11048385D01*
X14357693Y11082840D01*
X14356024Y11128891D01*
X14354656Y11188184D01*
X14353560Y11262363D01*
X14352706Y11353076D01*
X14352064Y11461965D01*
X14351605Y11590677D01*
X14351298Y11740858D01*
X14351115Y11914151D01*
X14351026Y12112203D01*
X14351000Y12336659D01*
X14351000Y12361896D01*
X14351019Y12589341D01*
X14351097Y12790280D01*
X14351265Y12966429D01*
X14351555Y13119504D01*
X14351999Y13251221D01*
X14352629Y13363295D01*
X14353476Y13457443D01*
X14354572Y13535381D01*
X14355949Y13598825D01*
X14357638Y13649491D01*
X14359672Y13689094D01*
X14362081Y13719352D01*
X14364897Y13741979D01*
X14368153Y13758692D01*
X14371880Y13771207D01*
X14376109Y13781239D01*
X14377264Y13783590D01*
X14392839Y13819595D01*
X14399702Y13845654D01*
X14399451Y13850056D01*
X14395837Y13869664D01*
X14389672Y13909955D01*
X14382053Y13963624D01*
X14378786Y13987639D01*
X14362196Y14111111D01*
X14300793Y14111111D01*
X14275407Y14111475D01*
X14257610Y14109677D01*
G36*
X10958283Y13397768D02*
X10908538Y13393635D01*
X10884295Y13383198D01*
X10884198Y13363553D01*
X10906889Y13331796D01*
X10951011Y13285024D01*
X10971953Y13263877D01*
X11018393Y13218771D01*
X11058975Y13182309D01*
X11088920Y13158603D01*
X11102491Y13151556D01*
X11120871Y13141839D01*
X11151465Y13116274D01*
X11187884Y13080240D01*
X11190478Y13077472D01*
X11226376Y13037849D01*
X11247065Y13008483D01*
X11256791Y12979186D01*
X11259800Y12939770D01*
X11260129Y12910348D01*
X11260667Y12817307D01*
X11191107Y12758653D01*
X11151681Y12726963D01*
X11120877Y12709391D01*
X11087131Y12701792D01*
X11038877Y12700020D01*
X11027467Y12700000D01*
X10975450Y12701106D01*
X10940409Y12707123D01*
X10911112Y12722103D01*
X10876325Y12750097D01*
X10867721Y12757613D01*
X10831380Y12793144D01*
X10804495Y12826180D01*
X10794524Y12845129D01*
X10781644Y12865384D01*
X10753384Y12895947D01*
X10715037Y12932315D01*
X10671896Y12969984D01*
X10629255Y13004452D01*
X10592406Y13031215D01*
X10566643Y13045769D01*
X10558061Y13046303D01*
X10553450Y13028410D01*
X10550011Y12989672D01*
X10548320Y12937461D01*
X10548240Y12920387D01*
X10549773Y12856961D01*
X10555921Y12809569D01*
X10569363Y12766089D01*
X10592782Y12714398D01*
X10594619Y12710656D01*
X10637548Y12638258D01*
X10687648Y12576778D01*
X10703796Y12561381D01*
X10766778Y12505942D01*
X10766778Y9963953D01*
X10688006Y9911668D01*
X10594350Y9833595D01*
X10521577Y9740003D01*
X10470132Y9634830D01*
X10440460Y9522020D01*
X10433007Y9405512D01*
X10448216Y9289248D01*
X10486533Y9177169D01*
X10548403Y9073216D01*
X10588015Y9025835D01*
X10630876Y8984844D01*
X10665399Y8964514D01*
X10688498Y8960556D01*
X10728190Y8960556D01*
X10721546Y9144562D01*
X10714902Y9328569D01*
X10868928Y9448764D01*
X10925418Y9492012D01*
X10974100Y9527709D01*
X11010669Y9552818D01*
X11030821Y9564301D01*
X11033064Y9564619D01*
X11047405Y9554727D01*
X11079395Y9530782D01*
X11124529Y9496209D01*
X11178297Y9454435D01*
X11187198Y9447470D01*
X11331222Y9334663D01*
X11331222Y9147609D01*
X11331371Y9071985D01*
X11332332Y9020108D01*
X11334879Y8987504D01*
X11339786Y8969697D01*
X11347827Y8962213D01*
X11359775Y8960576D01*
X11363562Y8960556D01*
X11394359Y8971630D01*
X11434184Y9001969D01*
X11453113Y9020528D01*
X11529572Y9116755D01*
X11580414Y9219861D01*
X11606995Y9333633D01*
X11610722Y9460851D01*
X11603909Y9535226D01*
X11590173Y9596129D01*
X11566041Y9658098D01*
X11560888Y9669286D01*
X11504993Y9765505D01*
X11434659Y9850360D01*
X11356348Y9916390D01*
X11335562Y9929504D01*
X11274778Y9965126D01*
X11274783Y10919487D01*
X11077224Y10919487D01*
X11077157Y10736533D01*
X11076913Y10578345D01*
X11076383Y10443198D01*
X11075458Y10329364D01*
X11074031Y10235116D01*
X11071992Y10158726D01*
X11069233Y10098466D01*
X11065646Y10052610D01*
X11061122Y10019431D01*
X11055552Y9997200D01*
X11048829Y9984191D01*
X11040843Y9978676D01*
X11031485Y9978928D01*
X11020648Y9983220D01*
X11008223Y9989824D01*
X11005739Y9991163D01*
X11000753Y9994498D01*
X10996413Y10000041D01*
X10992676Y10009651D01*
X10989497Y10025184D01*
X10986829Y10048498D01*
X10984629Y10081452D01*
X10982852Y10125902D01*
X10981452Y10183707D01*
X10980384Y10256724D01*
X10979604Y10346811D01*
X10979067Y10455825D01*
X10978727Y10585625D01*
X10978540Y10738068D01*
X10978461Y10915011D01*
X10978445Y11118312D01*
X10978445Y11119044D01*
X10978489Y11324251D01*
X10978648Y11503065D01*
X10978956Y11657314D01*
X10979448Y11788829D01*
X10980161Y11899438D01*
X10981131Y11990971D01*
X10982392Y12065256D01*
X10983981Y12124123D01*
X10985933Y12169401D01*
X10988284Y12202918D01*
X10991070Y12226504D01*
X10994326Y12241988D01*
X10998088Y12251200D01*
X11000591Y12254464D01*
X11026156Y12268893D01*
X11049980Y12262031D01*
X11054946Y12258699D01*
X11059269Y12253141D01*
X11062994Y12243505D01*
X11066164Y12227938D01*
X11068826Y12204587D01*
X11071022Y12171599D01*
X11072798Y12127120D01*
X11074198Y12069297D01*
X11075268Y11996278D01*
X11076050Y11906209D01*
X11076590Y11797238D01*
X11076933Y11667510D01*
X11077123Y11515174D01*
X11077205Y11338375D01*
X11077222Y11135261D01*
X11077222Y11128937D01*
X11077224Y10919487D01*
X11274783Y10919487D01*
X11274785Y11230258D01*
X11274792Y12495389D01*
X11344474Y12555398D01*
X11416726Y12635600D01*
X11460523Y12709590D01*
X11486076Y12765934D01*
X11500197Y12812828D01*
X11506093Y12864140D01*
X11507047Y12910636D01*
X11501267Y13002261D01*
X11484839Y13081575D01*
X11481526Y13091746D01*
X11443664Y13167313D01*
X11385641Y13242029D01*
X11314648Y13308094D01*
X11237876Y13357705D01*
X11235127Y13359070D01*
X11188987Y13379588D01*
X11147160Y13391565D01*
X11098731Y13397153D01*
X11034889Y13398500D01*
X10958283Y13397768D01*
X10958283Y13397768D01*
G37*
X10958283Y13397768D02*
X10908538Y13393635D01*
X10884295Y13383198D01*
X10884198Y13363553D01*
X10906889Y13331796D01*
X10951011Y13285024D01*
X10971953Y13263877D01*
X11018393Y13218771D01*
X11058975Y13182309D01*
X11088920Y13158603D01*
X11102491Y13151556D01*
X11120871Y13141839D01*
X11151465Y13116274D01*
X11187884Y13080240D01*
X11190478Y13077472D01*
X11226376Y13037849D01*
X11247065Y13008483D01*
X11256791Y12979186D01*
X11259800Y12939770D01*
X11260129Y12910348D01*
X11260667Y12817307D01*
X11191107Y12758653D01*
X11151681Y12726963D01*
X11120877Y12709391D01*
X11087131Y12701792D01*
X11038877Y12700020D01*
X11027467Y12700000D01*
X10975450Y12701106D01*
X10940409Y12707123D01*
X10911112Y12722103D01*
X10876325Y12750097D01*
X10867721Y12757613D01*
X10831380Y12793144D01*
X10804495Y12826180D01*
X10794524Y12845129D01*
X10781644Y12865384D01*
X10753384Y12895947D01*
X10715037Y12932315D01*
X10671896Y12969984D01*
X10629255Y13004452D01*
X10592406Y13031215D01*
X10566643Y13045769D01*
X10558061Y13046303D01*
X10553450Y13028410D01*
X10550011Y12989672D01*
X10548320Y12937461D01*
X10548240Y12920387D01*
X10549773Y12856961D01*
X10555921Y12809569D01*
X10569363Y12766089D01*
X10592782Y12714398D01*
X10594619Y12710656D01*
X10637548Y12638258D01*
X10687648Y12576778D01*
X10703796Y12561381D01*
X10766778Y12505942D01*
X10766778Y9963953D01*
X10688006Y9911668D01*
X10594350Y9833595D01*
X10521577Y9740003D01*
X10470132Y9634830D01*
X10440460Y9522020D01*
X10433007Y9405512D01*
X10448216Y9289248D01*
X10486533Y9177169D01*
X10548403Y9073216D01*
X10588015Y9025835D01*
X10630876Y8984844D01*
X10665399Y8964514D01*
X10688498Y8960556D01*
X10728190Y8960556D01*
X10721546Y9144562D01*
X10714902Y9328569D01*
X10868928Y9448764D01*
X10925418Y9492012D01*
X10974100Y9527709D01*
X11010669Y9552818D01*
X11030821Y9564301D01*
X11033064Y9564619D01*
X11047405Y9554727D01*
X11079395Y9530782D01*
X11124529Y9496209D01*
X11178297Y9454435D01*
X11187198Y9447470D01*
X11331222Y9334663D01*
X11331222Y9147609D01*
X11331371Y9071985D01*
X11332332Y9020108D01*
X11334879Y8987504D01*
X11339786Y8969697D01*
X11347827Y8962213D01*
X11359775Y8960576D01*
X11363562Y8960556D01*
X11394359Y8971630D01*
X11434184Y9001969D01*
X11453113Y9020528D01*
X11529572Y9116755D01*
X11580414Y9219861D01*
X11606995Y9333633D01*
X11610722Y9460851D01*
X11603909Y9535226D01*
X11590173Y9596129D01*
X11566041Y9658098D01*
X11560888Y9669286D01*
X11504993Y9765505D01*
X11434659Y9850360D01*
X11356348Y9916390D01*
X11335562Y9929504D01*
X11274778Y9965126D01*
X11274783Y10919487D01*
X11077224Y10919487D01*
X11077157Y10736533D01*
X11076913Y10578345D01*
X11076383Y10443198D01*
X11075458Y10329364D01*
X11074031Y10235116D01*
X11071992Y10158726D01*
X11069233Y10098466D01*
X11065646Y10052610D01*
X11061122Y10019431D01*
X11055552Y9997200D01*
X11048829Y9984191D01*
X11040843Y9978676D01*
X11031485Y9978928D01*
X11020648Y9983220D01*
X11008223Y9989824D01*
X11005739Y9991163D01*
X11000753Y9994498D01*
X10996413Y10000041D01*
X10992676Y10009651D01*
X10989497Y10025184D01*
X10986829Y10048498D01*
X10984629Y10081452D01*
X10982852Y10125902D01*
X10981452Y10183707D01*
X10980384Y10256724D01*
X10979604Y10346811D01*
X10979067Y10455825D01*
X10978727Y10585625D01*
X10978540Y10738068D01*
X10978461Y10915011D01*
X10978445Y11118312D01*
X10978445Y11119044D01*
X10978489Y11324251D01*
X10978648Y11503065D01*
X10978956Y11657314D01*
X10979448Y11788829D01*
X10980161Y11899438D01*
X10981131Y11990971D01*
X10982392Y12065256D01*
X10983981Y12124123D01*
X10985933Y12169401D01*
X10988284Y12202918D01*
X10991070Y12226504D01*
X10994326Y12241988D01*
X10998088Y12251200D01*
X11000591Y12254464D01*
X11026156Y12268893D01*
X11049980Y12262031D01*
X11054946Y12258699D01*
X11059269Y12253141D01*
X11062994Y12243505D01*
X11066164Y12227938D01*
X11068826Y12204587D01*
X11071022Y12171599D01*
X11072798Y12127120D01*
X11074198Y12069297D01*
X11075268Y11996278D01*
X11076050Y11906209D01*
X11076590Y11797238D01*
X11076933Y11667510D01*
X11077123Y11515174D01*
X11077205Y11338375D01*
X11077222Y11135261D01*
X11077222Y11128937D01*
X11077224Y10919487D01*
X11274783Y10919487D01*
X11274785Y11230258D01*
X11274792Y12495389D01*
X11344474Y12555398D01*
X11416726Y12635600D01*
X11460523Y12709590D01*
X11486076Y12765934D01*
X11500197Y12812828D01*
X11506093Y12864140D01*
X11507047Y12910636D01*
X11501267Y13002261D01*
X11484839Y13081575D01*
X11481526Y13091746D01*
X11443664Y13167313D01*
X11385641Y13242029D01*
X11314648Y13308094D01*
X11237876Y13357705D01*
X11235127Y13359070D01*
X11188987Y13379588D01*
X11147160Y13391565D01*
X11098731Y13397153D01*
X11034889Y13398500D01*
X10958283Y13397768D01*
G36*
X14098169Y12969455D02*
X14066542Y12942730D01*
X14020138Y12902368D01*
X13962010Y12851038D01*
X13895211Y12791414D01*
X13847380Y12748385D01*
X13669634Y12588744D01*
X13498125Y12436172D01*
X13334097Y12291710D01*
X13178793Y12156401D01*
X13033457Y12031287D01*
X12899332Y11917409D01*
X12777663Y11815810D01*
X12669692Y11727532D01*
X12576663Y11653616D01*
X12499820Y11595104D01*
X12440406Y11553038D01*
X12399666Y11528461D01*
X12384168Y11522430D01*
X12354476Y11518049D01*
X12307829Y11512738D01*
X12264769Y11508595D01*
X12161227Y11489578D01*
X12073802Y11450592D01*
X11996103Y11388690D01*
X11988926Y11381439D01*
X11928980Y11305999D01*
X11894696Y11226927D01*
X11883638Y11137950D01*
X11884291Y11111918D01*
X11887563Y11065034D01*
X11893507Y11039337D01*
X11905533Y11027803D01*
X11927054Y11023408D01*
X11927284Y11023381D01*
X11954718Y11025877D01*
X11986021Y11042087D01*
X12027492Y11075562D01*
X12040173Y11087033D01*
X12094568Y11137081D01*
X12132297Y11170516D01*
X12158008Y11189229D01*
X12176347Y11195106D01*
X12191962Y11190035D01*
X12209501Y11175906D01*
X12224894Y11162090D01*
X12261861Y11120087D01*
X12292842Y11069088D01*
X12299184Y11054484D01*
X12323533Y10990727D01*
X12219740Y10886236D01*
X12115947Y10781746D01*
X12164557Y10762014D01*
X12235119Y10741213D01*
X12307799Y10732741D01*
X12368389Y10737858D01*
X12457798Y10772596D01*
X12531568Y10830549D01*
X12589803Y10911857D01*
X12632605Y11016659D01*
X12657489Y11127811D01*
X12666616Y11174222D01*
X12680093Y11208293D01*
X12703606Y11239943D01*
X12742839Y11279090D01*
X12745752Y11281833D01*
X12793914Y11326390D01*
X12861138Y11387499D01*
X12945199Y11463184D01*
X13043874Y11551464D01*
X13154940Y11650362D01*
X13276172Y11757899D01*
X13405348Y11872096D01*
X13540243Y11990975D01*
X13678634Y12112556D01*
X13726583Y12154592D01*
X14125222Y12503872D01*
X14125222Y12744223D01*
X14124480Y12831403D01*
X14122369Y12901250D01*
X14119061Y12950699D01*
X14114728Y12976689D01*
X14111963Y12979870D01*
X14098169Y12969455D01*
X14098169Y12969455D01*
G37*
X14098169Y12969455D02*
X14066542Y12942730D01*
X14020138Y12902368D01*
X13962010Y12851038D01*
X13895211Y12791414D01*
X13847380Y12748385D01*
X13669634Y12588744D01*
X13498125Y12436172D01*
X13334097Y12291710D01*
X13178793Y12156401D01*
X13033457Y12031287D01*
X12899332Y11917409D01*
X12777663Y11815810D01*
X12669692Y11727532D01*
X12576663Y11653616D01*
X12499820Y11595104D01*
X12440406Y11553038D01*
X12399666Y11528461D01*
X12384168Y11522430D01*
X12354476Y11518049D01*
X12307829Y11512738D01*
X12264769Y11508595D01*
X12161227Y11489578D01*
X12073802Y11450592D01*
X11996103Y11388690D01*
X11988926Y11381439D01*
X11928980Y11305999D01*
X11894696Y11226927D01*
X11883638Y11137950D01*
X11884291Y11111918D01*
X11887563Y11065034D01*
X11893507Y11039337D01*
X11905533Y11027803D01*
X11927054Y11023408D01*
X11927284Y11023381D01*
X11954718Y11025877D01*
X11986021Y11042087D01*
X12027492Y11075562D01*
X12040173Y11087033D01*
X12094568Y11137081D01*
X12132297Y11170516D01*
X12158008Y11189229D01*
X12176347Y11195106D01*
X12191962Y11190035D01*
X12209501Y11175906D01*
X12224894Y11162090D01*
X12261861Y11120087D01*
X12292842Y11069088D01*
X12299184Y11054484D01*
X12323533Y10990727D01*
X12219740Y10886236D01*
X12115947Y10781746D01*
X12164557Y10762014D01*
X12235119Y10741213D01*
X12307799Y10732741D01*
X12368389Y10737858D01*
X12457798Y10772596D01*
X12531568Y10830549D01*
X12589803Y10911857D01*
X12632605Y11016659D01*
X12657489Y11127811D01*
X12666616Y11174222D01*
X12680093Y11208293D01*
X12703606Y11239943D01*
X12742839Y11279090D01*
X12745752Y11281833D01*
X12793914Y11326390D01*
X12861138Y11387499D01*
X12945199Y11463184D01*
X13043874Y11551464D01*
X13154940Y11650362D01*
X13276172Y11757899D01*
X13405348Y11872096D01*
X13540243Y11990975D01*
X13678634Y12112556D01*
X13726583Y12154592D01*
X14125222Y12503872D01*
X14125222Y12744223D01*
X14124480Y12831403D01*
X14122369Y12901250D01*
X14119061Y12950699D01*
X14114728Y12976689D01*
X14111963Y12979870D01*
X14098169Y12969455D01*
G36*
X12896781Y11287409D02*
X12847787Y11240696D01*
X12807661Y11198752D01*
X12780538Y11166163D01*
X12770556Y11147515D01*
X12770556Y11147500D01*
X12780860Y11125719D01*
X12807483Y11094990D01*
X12834317Y11070708D01*
X12876850Y11030172D01*
X12922558Y10977965D01*
X12954787Y10934953D01*
X12985021Y10892742D01*
X13011197Y10865471D01*
X13037156Y10853995D01*
X13066740Y10859170D01*
X13103789Y10881853D01*
X13152144Y10922901D01*
X13215647Y10983170D01*
X13228939Y10996083D01*
X13291619Y11058408D01*
X13335308Y11105314D01*
X13362436Y11139758D01*
X13375432Y11164696D01*
X13377459Y11176706D01*
X13368058Y11216838D01*
X13344149Y11241996D01*
X13325652Y11246556D01*
X13290317Y11253513D01*
X13239916Y11271775D01*
X13183150Y11297424D01*
X13128717Y11326545D01*
X13086796Y11354083D01*
X13023006Y11402774D01*
X12896781Y11287409D01*
X12896781Y11287409D01*
G37*
X12896781Y11287409D02*
X12847787Y11240696D01*
X12807661Y11198752D01*
X12780538Y11166163D01*
X12770556Y11147515D01*
X12770556Y11147500D01*
X12780860Y11125719D01*
X12807483Y11094990D01*
X12834317Y11070708D01*
X12876850Y11030172D01*
X12922558Y10977965D01*
X12954787Y10934953D01*
X12985021Y10892742D01*
X13011197Y10865471D01*
X13037156Y10853995D01*
X13066740Y10859170D01*
X13103789Y10881853D01*
X13152144Y10922901D01*
X13215647Y10983170D01*
X13228939Y10996083D01*
X13291619Y11058408D01*
X13335308Y11105314D01*
X13362436Y11139758D01*
X13375432Y11164696D01*
X13377459Y11176706D01*
X13368058Y11216838D01*
X13344149Y11241996D01*
X13325652Y11246556D01*
X13290317Y11253513D01*
X13239916Y11271775D01*
X13183150Y11297424D01*
X13128717Y11326545D01*
X13086796Y11354083D01*
X13023006Y11402774D01*
X12896781Y11287409D01*
G36*
X11502055Y12683113D02*
X11487449Y12653778D01*
X11485977Y12650783D01*
X11464432Y12617316D01*
X11430807Y12575663D01*
X11404517Y12547317D01*
X11373217Y12513442D01*
X11352897Y12486972D01*
X11348072Y12475110D01*
X11359463Y12462177D01*
X11387949Y12433843D01*
X11429777Y12393731D01*
X11481198Y12345464D01*
X11507611Y12320994D01*
X11570756Y12261223D01*
X11633904Y12198824D01*
X11690467Y12140473D01*
X11733857Y12092843D01*
X11740445Y12085107D01*
X11776165Y12045364D01*
X11827852Y11991729D01*
X11890504Y11929198D01*
X11959121Y11862772D01*
X12022667Y11803024D01*
X12092766Y11738311D01*
X12145767Y11690320D01*
X12185238Y11656549D01*
X12214747Y11634499D01*
X12237860Y11621670D01*
X12258146Y11615562D01*
X12279172Y11613675D01*
X12293084Y11613529D01*
X12326533Y11615349D01*
X12356456Y11623070D01*
X12389804Y11639942D01*
X12433529Y11669212D01*
X12471396Y11696863D01*
X12520169Y11733763D01*
X12560199Y11765428D01*
X12586097Y11787519D01*
X12592675Y11794475D01*
X12586908Y11811072D01*
X12560438Y11842754D01*
X12515244Y11887809D01*
X12453302Y11944527D01*
X12376590Y12011195D01*
X12287086Y12086103D01*
X12186766Y12167538D01*
X12077608Y12253789D01*
X11961589Y12343146D01*
X11938585Y12360596D01*
X11860682Y12420060D01*
X11783401Y12479965D01*
X11712224Y12535997D01*
X11652630Y12583842D01*
X11610100Y12619184D01*
X11609656Y12619567D01*
X11566847Y12655632D01*
X11533002Y12682674D01*
X11513021Y12696849D01*
X11509763Y12697915D01*
X11502055Y12683113D01*
X11502055Y12683113D01*
G37*
X11502055Y12683113D02*
X11487449Y12653778D01*
X11485977Y12650783D01*
X11464432Y12617316D01*
X11430807Y12575663D01*
X11404517Y12547317D01*
X11373217Y12513442D01*
X11352897Y12486972D01*
X11348072Y12475110D01*
X11359463Y12462177D01*
X11387949Y12433843D01*
X11429777Y12393731D01*
X11481198Y12345464D01*
X11507611Y12320994D01*
X11570756Y12261223D01*
X11633904Y12198824D01*
X11690467Y12140473D01*
X11733857Y12092843D01*
X11740445Y12085107D01*
X11776165Y12045364D01*
X11827852Y11991729D01*
X11890504Y11929198D01*
X11959121Y11862772D01*
X12022667Y11803024D01*
X12092766Y11738311D01*
X12145767Y11690320D01*
X12185238Y11656549D01*
X12214747Y11634499D01*
X12237860Y11621670D01*
X12258146Y11615562D01*
X12279172Y11613675D01*
X12293084Y11613529D01*
X12326533Y11615349D01*
X12356456Y11623070D01*
X12389804Y11639942D01*
X12433529Y11669212D01*
X12471396Y11696863D01*
X12520169Y11733763D01*
X12560199Y11765428D01*
X12586097Y11787519D01*
X12592675Y11794475D01*
X12586908Y11811072D01*
X12560438Y11842754D01*
X12515244Y11887809D01*
X12453302Y11944527D01*
X12376590Y12011195D01*
X12287086Y12086103D01*
X12186766Y12167538D01*
X12077608Y12253789D01*
X11961589Y12343146D01*
X11938585Y12360596D01*
X11860682Y12420060D01*
X11783401Y12479965D01*
X11712224Y12535997D01*
X11652630Y12583842D01*
X11610100Y12619184D01*
X11609656Y12619567D01*
X11566847Y12655632D01*
X11533002Y12682674D01*
X11513021Y12696849D01*
X11509763Y12697915D01*
X11502055Y12683113D01*
G36*
X10706891Y14200124D02*
X10685167Y14188141D01*
X10655304Y14161459D01*
X10631225Y14137855D01*
X10579337Y14078415D01*
X10546755Y14023039D01*
X10541603Y14008782D01*
X10512635Y13945436D01*
X10471184Y13899821D01*
X10421783Y13876140D01*
X10396062Y13873817D01*
X10339954Y13863424D01*
X10281020Y13827769D01*
X10218784Y13766320D01*
X10152772Y13678551D01*
X10082511Y13563930D01*
X10028799Y13464040D01*
X9958300Y13320262D01*
X9901512Y13188485D01*
X9854569Y13058630D01*
X9813604Y12920620D01*
X9799225Y12865619D01*
X9782533Y12796323D01*
X9774763Y12749665D01*
X9776944Y12721185D01*
X9790101Y12706426D01*
X9815263Y12700928D01*
X9837333Y12700216D01*
X9859564Y12703588D01*
X9876625Y12718026D01*
X9893690Y12749549D01*
X9906869Y12781139D01*
X9972054Y12919975D01*
X10049320Y13037899D01*
X10095753Y13093250D01*
X10133667Y13137619D01*
X10165372Y13179544D01*
X10184382Y13210409D01*
X10185066Y13211924D01*
X10206565Y13246317D01*
X10235245Y13259486D01*
X10276478Y13252513D01*
X10312754Y13237599D01*
X10368500Y13214814D01*
X10430525Y13193860D01*
X10451942Y13187799D01*
X10479876Y13178523D01*
X10510960Y13163646D01*
X10547738Y13141281D01*
X10592757Y13109538D01*
X10648562Y13066530D01*
X10717698Y13010368D01*
X10802710Y12939165D01*
X10906144Y12851030D01*
X10907889Y12849535D01*
X10951756Y12813687D01*
X10989051Y12786361D01*
X11013642Y12771940D01*
X11018159Y12770751D01*
X11037816Y12779328D01*
X11070811Y12801902D01*
X11106347Y12830528D01*
X11144746Y12865518D01*
X11165637Y12892063D01*
X11174062Y12918688D01*
X11175200Y12946944D01*
X11172776Y12977496D01*
X11163374Y13002105D01*
X11142300Y13027775D01*
X11104861Y13061511D01*
X11090103Y13073944D01*
X11053061Y13107121D01*
X11001384Y13156368D01*
X10939632Y13217072D01*
X10872369Y13284615D01*
X10804155Y13354383D01*
X10739552Y13421760D01*
X10683123Y13482131D01*
X10646421Y13522859D01*
X10623613Y13556427D01*
X10613361Y13596266D01*
X10611608Y13635748D01*
X10622578Y13714994D01*
X10655622Y13776762D01*
X10711133Y13821543D01*
X10780889Y13847793D01*
X10810776Y13865843D01*
X10847316Y13904222D01*
X10870139Y13934739D01*
X10900149Y13981514D01*
X10914720Y14014989D01*
X10916856Y14043225D01*
X10914907Y14054840D01*
X10893707Y14097036D01*
X10852799Y14139236D01*
X10799884Y14174738D01*
X10755803Y14193292D01*
X10727946Y14200733D01*
X10706891Y14200124D01*
X10706891Y14200124D01*
G37*
X10706891Y14200124D02*
X10685167Y14188141D01*
X10655304Y14161459D01*
X10631225Y14137855D01*
X10579337Y14078415D01*
X10546755Y14023039D01*
X10541603Y14008782D01*
X10512635Y13945436D01*
X10471184Y13899821D01*
X10421783Y13876140D01*
X10396062Y13873817D01*
X10339954Y13863424D01*
X10281020Y13827769D01*
X10218784Y13766320D01*
X10152772Y13678551D01*
X10082511Y13563930D01*
X10028799Y13464040D01*
X9958300Y13320262D01*
X9901512Y13188485D01*
X9854569Y13058630D01*
X9813604Y12920620D01*
X9799225Y12865619D01*
X9782533Y12796323D01*
X9774763Y12749665D01*
X9776944Y12721185D01*
X9790101Y12706426D01*
X9815263Y12700928D01*
X9837333Y12700216D01*
X9859564Y12703588D01*
X9876625Y12718026D01*
X9893690Y12749549D01*
X9906869Y12781139D01*
X9972054Y12919975D01*
X10049320Y13037899D01*
X10095753Y13093250D01*
X10133667Y13137619D01*
X10165372Y13179544D01*
X10184382Y13210409D01*
X10185066Y13211924D01*
X10206565Y13246317D01*
X10235245Y13259486D01*
X10276478Y13252513D01*
X10312754Y13237599D01*
X10368500Y13214814D01*
X10430525Y13193860D01*
X10451942Y13187799D01*
X10479876Y13178523D01*
X10510960Y13163646D01*
X10547738Y13141281D01*
X10592757Y13109538D01*
X10648562Y13066530D01*
X10717698Y13010368D01*
X10802710Y12939165D01*
X10906144Y12851030D01*
X10907889Y12849535D01*
X10951756Y12813687D01*
X10989051Y12786361D01*
X11013642Y12771940D01*
X11018159Y12770751D01*
X11037816Y12779328D01*
X11070811Y12801902D01*
X11106347Y12830528D01*
X11144746Y12865518D01*
X11165637Y12892063D01*
X11174062Y12918688D01*
X11175200Y12946944D01*
X11172776Y12977496D01*
X11163374Y13002105D01*
X11142300Y13027775D01*
X11104861Y13061511D01*
X11090103Y13073944D01*
X11053061Y13107121D01*
X11001384Y13156368D01*
X10939632Y13217072D01*
X10872369Y13284615D01*
X10804155Y13354383D01*
X10739552Y13421760D01*
X10683123Y13482131D01*
X10646421Y13522859D01*
X10623613Y13556427D01*
X10613361Y13596266D01*
X10611608Y13635748D01*
X10622578Y13714994D01*
X10655622Y13776762D01*
X10711133Y13821543D01*
X10780889Y13847793D01*
X10810776Y13865843D01*
X10847316Y13904222D01*
X10870139Y13934739D01*
X10900149Y13981514D01*
X10914720Y14014989D01*
X10916856Y14043225D01*
X10914907Y14054840D01*
X10893707Y14097036D01*
X10852799Y14139236D01*
X10799884Y14174738D01*
X10755803Y14193292D01*
X10727946Y14200733D01*
X10706891Y14200124D01*
G36*
X14966078Y13881308D02*
X14899533Y13871575D01*
X14878574Y13865593D01*
X14802365Y13831133D01*
X14732007Y13783530D01*
X14675504Y13728964D01*
X14646722Y13686579D01*
X14628557Y13641820D01*
X14610625Y13582821D01*
X14598315Y13529602D01*
X14585237Y13471857D01*
X14569025Y13431037D01*
X14544230Y13395939D01*
X14521331Y13371295D01*
X14463232Y13312095D01*
X14467088Y13057476D01*
X14470945Y12802857D01*
X14679158Y12977206D01*
X14887372Y13151556D01*
X15007695Y13151556D01*
X15096009Y13155547D01*
X15164903Y13169329D01*
X15222279Y13195617D01*
X15276037Y13237122D01*
X15287057Y13247495D01*
X15349502Y13321017D01*
X15386482Y13398673D01*
X15400698Y13486384D01*
X15400993Y13497278D01*
X15402278Y13581944D01*
X15349649Y13586307D01*
X15316893Y13585993D01*
X15288332Y13575932D01*
X15254930Y13551864D01*
X15229705Y13529739D01*
X15176853Y13481918D01*
X15140492Y13450262D01*
X15115911Y13432306D01*
X15098398Y13425590D01*
X15083242Y13427652D01*
X15065732Y13436028D01*
X15058078Y13440046D01*
X15010779Y13479453D01*
X14980605Y13536150D01*
X14971803Y13591827D01*
X14974481Y13615715D01*
X14985102Y13639234D01*
X15007407Y13667416D01*
X15045135Y13705293D01*
X15080800Y13738505D01*
X15129130Y13783168D01*
X15159194Y13812791D01*
X15173546Y13831388D01*
X15174738Y13842973D01*
X15165324Y13851560D01*
X15156016Y13856746D01*
X15105207Y13873546D01*
X15038265Y13881849D01*
X14966078Y13881308D01*
X14966078Y13881308D01*
G37*
X14966078Y13881308D02*
X14899533Y13871575D01*
X14878574Y13865593D01*
X14802365Y13831133D01*
X14732007Y13783530D01*
X14675504Y13728964D01*
X14646722Y13686579D01*
X14628557Y13641820D01*
X14610625Y13582821D01*
X14598315Y13529602D01*
X14585237Y13471857D01*
X14569025Y13431037D01*
X14544230Y13395939D01*
X14521331Y13371295D01*
X14463232Y13312095D01*
X14467088Y13057476D01*
X14470945Y12802857D01*
X14679158Y12977206D01*
X14887372Y13151556D01*
X15007695Y13151556D01*
X15096009Y13155547D01*
X15164903Y13169329D01*
X15222279Y13195617D01*
X15276037Y13237122D01*
X15287057Y13247495D01*
X15349502Y13321017D01*
X15386482Y13398673D01*
X15400698Y13486384D01*
X15400993Y13497278D01*
X15402278Y13581944D01*
X15349649Y13586307D01*
X15316893Y13585993D01*
X15288332Y13575932D01*
X15254930Y13551864D01*
X15229705Y13529739D01*
X15176853Y13481918D01*
X15140492Y13450262D01*
X15115911Y13432306D01*
X15098398Y13425590D01*
X15083242Y13427652D01*
X15065732Y13436028D01*
X15058078Y13440046D01*
X15010779Y13479453D01*
X14980605Y13536150D01*
X14971803Y13591827D01*
X14974481Y13615715D01*
X14985102Y13639234D01*
X15007407Y13667416D01*
X15045135Y13705293D01*
X15080800Y13738505D01*
X15129130Y13783168D01*
X15159194Y13812791D01*
X15173546Y13831388D01*
X15174738Y13842973D01*
X15165324Y13851560D01*
X15156016Y13856746D01*
X15105207Y13873546D01*
X15038265Y13881849D01*
X14966078Y13881308D01*
%LPC*%
D14*
X0Y4445000D03*
X0Y5715000D03*
X0Y6985000D03*
X0Y8255000D03*
X0Y9525000D03*
X0Y10795000D03*
X25400000Y4445000D03*
X25400000Y5715000D03*
X25400000Y6985000D03*
X25400000Y8255000D03*
X25400000Y9525000D03*
X25400000Y10795000D03*
D15*
X3810000Y17145000D03*
X3810000Y14605000D03*
X21590000Y17145000D03*
X21590000Y14605000D03*
D16*
X21590000Y3810000D03*
X3810000Y3810000D03*
D17*
X12700000Y13208000D03*
X12700000Y9652000D03*
X12700000Y19685000D03*
X12700000Y17145000D03*
D14*
X25400000Y12065000D03*
X0Y12065000D03*
D18*
X4328000Y22816000D03*
X5598000Y21546000D03*
X3058000Y21546000D03*
D19*
X8255000Y12446000D03*
X8255000Y20574000D03*
X16764000Y22860000D03*
X8636000Y22860000D03*
X17145000Y12446000D03*
X17145000Y20574000D03*
X8636000Y6350000D03*
X16764000Y6350000D03*
D17*
X22890000Y21590000D03*
X20290000Y21590000D03*
X22255000Y10160000D03*
X19655000Y10160000D03*
X5745000Y10160000D03*
X3145000Y10160000D03*
M02*
