G04 #@! TF.FileFunction,Copper,L2,Bot,Signal*
%FSLAX46Y46*%
G04 Gerber Fmt 4.6, Leading zero omitted, Abs format (unit mm)*
G04 Created by KiCad (PCBNEW 4.0.1-3.201512221401+6198~38~ubuntu15.10.1-stable) date Mon Mar  7 15:24:47 2016*
%MOMM*%
G01*
G04 APERTURE LIST*
%ADD10C,0.050800*%
%ADD11C,6.096000*%
%ADD12C,1.778000*%
%ADD13C,1.200000*%
%ADD14C,1.524000*%
%ADD15O,2.032000X2.032000*%
%ADD16C,0.381000*%
%ADD17C,0.350000*%
%ADD18C,0.254000*%
G04 APERTURE END LIST*
D10*
D11*
X21590000Y3810000D03*
X3810000Y3810000D03*
D12*
X12700000Y13208000D03*
X12700000Y9652000D03*
X12700000Y19685000D03*
X12700000Y17145000D03*
D13*
X4328000Y22816000D03*
X5598000Y21546000D03*
X3058000Y21546000D03*
D14*
X8636000Y6350000D03*
X16764000Y6350000D03*
X17145000Y12446000D03*
X17145000Y20574000D03*
X16764000Y22860000D03*
X8636000Y22860000D03*
X8255000Y12446000D03*
X8255000Y20574000D03*
D12*
X5745000Y10160000D03*
X3145000Y10160000D03*
X22255000Y10160000D03*
X19655000Y10160000D03*
X22890000Y21590000D03*
X20290000Y21590000D03*
D15*
X21590000Y17145000D03*
X21590000Y14605000D03*
X3810000Y17145000D03*
X3810000Y14605000D03*
D14*
X0Y12065000D03*
X25400000Y12065000D03*
X25400000Y9525000D03*
X25400000Y6985000D03*
X25400000Y4445000D03*
X0Y9525000D03*
X0Y6985000D03*
X0Y4445000D03*
D16*
X20290000Y21590000D02*
X20290000Y19655000D01*
X16510000Y19050000D02*
X15240000Y17780000D01*
X19685000Y19050000D02*
X16510000Y19050000D01*
X20290000Y19655000D02*
X19685000Y19050000D01*
X12700000Y13208000D02*
X14097000Y13208000D01*
X14097000Y13208000D02*
X15240000Y14351000D01*
X15240000Y14351000D02*
X15240000Y17780000D01*
X3145000Y10160000D02*
X3145000Y8412000D01*
X7239000Y7747000D02*
X8636000Y6350000D01*
X3810000Y7747000D02*
X7239000Y7747000D01*
X3145000Y8412000D02*
X3810000Y7747000D01*
X0Y4445000D02*
X3175000Y4445000D01*
X3175000Y4445000D02*
X3810000Y3810000D01*
X1524000Y9525000D02*
X1524000Y6985000D01*
X1524000Y6985000D02*
X1524000Y6096000D01*
X0Y6985000D02*
X1077630Y6985000D01*
X1077630Y6985000D02*
X1524000Y6985000D01*
X1524000Y12065000D02*
X1524000Y9525000D01*
X0Y9525000D02*
X1524000Y9525000D01*
X1524000Y13589000D02*
X1524000Y12065000D01*
X0Y12065000D02*
X1077630Y12065000D01*
X1077630Y12065000D02*
X1524000Y12065000D01*
X3810000Y14605000D02*
X2540000Y14605000D01*
X1524000Y6096000D02*
X3810000Y3810000D01*
X2540000Y14605000D02*
X1524000Y13589000D01*
X25400000Y4445000D02*
X22225000Y4445000D01*
X22225000Y4445000D02*
X21590000Y3810000D01*
X23622000Y14009840D02*
X23622000Y12065000D01*
X23622000Y12065000D02*
X23622000Y9525000D01*
X25400000Y12065000D02*
X23622000Y12065000D01*
X23622000Y9525000D02*
X23622000Y6985000D01*
X25400000Y9525000D02*
X23622000Y9525000D01*
X23622000Y6985000D02*
X23622000Y5842000D01*
X25400000Y6985000D02*
X23622000Y6985000D01*
X21590000Y14605000D02*
X23026840Y14605000D01*
X23026840Y14605000D02*
X23622000Y14009840D01*
X23622000Y5842000D02*
X21590000Y3810000D01*
X16637000Y13970000D02*
X19050000Y13970000D01*
X19050000Y13970000D02*
X19685000Y14605000D01*
X16637000Y13970000D02*
X16129000Y13970000D01*
X14351000Y9652000D02*
X12700000Y9652000D01*
X14986000Y10287000D02*
X14351000Y9652000D01*
X14986000Y12827000D02*
X14986000Y10287000D01*
X16129000Y13970000D02*
X14986000Y12827000D01*
X5598000Y21546000D02*
X6433000Y21546000D01*
X10414000Y23622000D02*
X9525000Y24511000D01*
X9525000Y24511000D02*
X7366000Y24511000D01*
X10414000Y11938000D02*
X12700000Y9652000D01*
X10414000Y11938000D02*
X10414000Y23622000D01*
X6433000Y21546000D02*
X6858000Y21971000D01*
X6858000Y21971000D02*
X6858000Y24003000D01*
X6858000Y24003000D02*
X7366000Y24511000D01*
D17*
X19685000Y14605000D02*
X21590000Y14605000D01*
X12700000Y5715000D02*
X14605000Y3810000D01*
X14605000Y3810000D02*
X21590000Y3810000D01*
X12700000Y9652000D02*
X12700000Y5715000D01*
X21590000Y17145000D02*
X21590000Y14605000D01*
D18*
G36*
X23703979Y24634522D02*
X23881145Y24516144D01*
X23999521Y24338981D01*
X24055000Y24060069D01*
X24055000Y22580110D01*
X23754404Y22881231D01*
X23194472Y23113735D01*
X22588188Y23114264D01*
X22027851Y22882738D01*
X21598769Y22454404D01*
X21590267Y22433928D01*
X21582738Y22452149D01*
X21154404Y22881231D01*
X20594472Y23113735D01*
X19988188Y23114264D01*
X19427851Y22882738D01*
X18998769Y22454404D01*
X18766265Y21894472D01*
X18765736Y21288188D01*
X18997262Y20727851D01*
X19425596Y20298769D01*
X19464500Y20282615D01*
X19464500Y19996934D01*
X19343066Y19875500D01*
X18367607Y19875500D01*
X18541757Y20294900D01*
X18542242Y20850661D01*
X18330010Y21364303D01*
X17937370Y21757629D01*
X17725299Y21845688D01*
X17947629Y22067630D01*
X18160757Y22580900D01*
X18161242Y23136661D01*
X17949010Y23650303D01*
X17556370Y24043629D01*
X17043100Y24256757D01*
X16487339Y24257242D01*
X15973697Y24045010D01*
X15580371Y23652370D01*
X15367243Y23139100D01*
X15366758Y22583339D01*
X15578990Y22069697D01*
X15971630Y21676371D01*
X16183701Y21588312D01*
X15961371Y21366370D01*
X15748243Y20853100D01*
X15747758Y20297339D01*
X15959990Y19783697D01*
X16036315Y19707238D01*
X15926283Y19633717D01*
X15926281Y19633714D01*
X14656283Y18363717D01*
X14477337Y18095906D01*
X14477337Y18095905D01*
X14414500Y17780000D01*
X14414500Y14692934D01*
X13892314Y14170748D01*
X13564404Y14499231D01*
X13004472Y14731735D01*
X12398188Y14732264D01*
X11837851Y14500738D01*
X11408769Y14072404D01*
X11176265Y13512472D01*
X11175736Y12906188D01*
X11407262Y12345851D01*
X11835596Y11916769D01*
X12395528Y11684265D01*
X13001812Y11683736D01*
X13562149Y11915262D01*
X13816669Y12169339D01*
X15747758Y12169339D01*
X15959990Y11655697D01*
X16352630Y11262371D01*
X16865900Y11049243D01*
X17421661Y11048758D01*
X17935303Y11260990D01*
X18328629Y11653630D01*
X18541757Y12166900D01*
X18542242Y12722661D01*
X18330010Y13236303D01*
X17937370Y13629629D01*
X17424100Y13842757D01*
X16868339Y13843242D01*
X16354697Y13631010D01*
X15961371Y13238370D01*
X15748243Y12725100D01*
X15747758Y12169339D01*
X13816669Y12169339D01*
X13991231Y12343596D01*
X14007385Y12382500D01*
X14097000Y12382500D01*
X14412906Y12445337D01*
X14680717Y12624283D01*
X15823717Y13767283D01*
X16002663Y14035094D01*
X16039851Y14222056D01*
X19984025Y14222056D01*
X20183615Y13740182D01*
X20621621Y13267812D01*
X21207054Y12999017D01*
X21463000Y13117633D01*
X21463000Y14478000D01*
X21717000Y14478000D01*
X21717000Y13117633D01*
X21972946Y12999017D01*
X22558379Y13267812D01*
X22996385Y13740182D01*
X23195975Y14222056D01*
X23076836Y14478000D01*
X21717000Y14478000D01*
X21463000Y14478000D01*
X20103164Y14478000D01*
X19984025Y14222056D01*
X16039851Y14222056D01*
X16065500Y14351000D01*
X16065500Y16762056D01*
X19984025Y16762056D01*
X20183615Y16280182D01*
X20559321Y15875000D01*
X20183615Y15469818D01*
X19984025Y14987944D01*
X20103164Y14732000D01*
X21463000Y14732000D01*
X21463000Y17018000D01*
X21717000Y17018000D01*
X21717000Y14732000D01*
X23076836Y14732000D01*
X23195975Y14987944D01*
X22996385Y15469818D01*
X22620679Y15875000D01*
X22996385Y16280182D01*
X23195975Y16762056D01*
X23076836Y17018000D01*
X21717000Y17018000D01*
X21463000Y17018000D01*
X20103164Y17018000D01*
X19984025Y16762056D01*
X16065500Y16762056D01*
X16065500Y17438066D01*
X16155377Y17527944D01*
X19984025Y17527944D01*
X20103164Y17272000D01*
X21463000Y17272000D01*
X21463000Y18632367D01*
X21717000Y18632367D01*
X21717000Y17272000D01*
X23076836Y17272000D01*
X23195975Y17527944D01*
X22996385Y18009818D01*
X22558379Y18482188D01*
X21972946Y18750983D01*
X21717000Y18632367D01*
X21463000Y18632367D01*
X21207054Y18750983D01*
X20621621Y18482188D01*
X20183615Y18009818D01*
X19984025Y17527944D01*
X16155377Y17527944D01*
X16851933Y18224500D01*
X19685000Y18224500D01*
X20000906Y18287337D01*
X20268717Y18466283D01*
X20873717Y19071283D01*
X21052663Y19339094D01*
X21115500Y19655000D01*
X21115500Y20282119D01*
X21152149Y20297262D01*
X21581231Y20725596D01*
X21589733Y20746072D01*
X21597262Y20727851D01*
X22025596Y20298769D01*
X22585528Y20066265D01*
X23191812Y20065736D01*
X23752149Y20297262D01*
X24055000Y20599585D01*
X24055000Y12700000D01*
X24109046Y12428295D01*
X24262954Y12197954D01*
X24493295Y12044046D01*
X24690000Y12004919D01*
X24690000Y5921130D01*
X24221258Y6261653D01*
X21769605Y3810000D01*
X21783748Y3795857D01*
X21604143Y3616252D01*
X21590000Y3630395D01*
X19138347Y1178742D01*
X19478870Y710000D01*
X5917684Y710000D01*
X6930475Y1721024D01*
X7492359Y3074192D01*
X7492379Y3097463D01*
X17903067Y3097463D01*
X18456394Y1740774D01*
X18479106Y1706784D01*
X18958742Y1358347D01*
X21410395Y3810000D01*
X18958742Y6261653D01*
X18479106Y5913216D01*
X17911042Y4562630D01*
X17903067Y3097463D01*
X7492379Y3097463D01*
X7493638Y4539380D01*
X6934116Y5893526D01*
X5907935Y6921500D01*
X6897066Y6921500D01*
X7239200Y6579367D01*
X7238758Y6073339D01*
X7450990Y5559697D01*
X7843630Y5166371D01*
X8356900Y4953243D01*
X8912661Y4952758D01*
X9426303Y5164990D01*
X9819629Y5557630D01*
X10032757Y6070900D01*
X10032759Y6073339D01*
X15366758Y6073339D01*
X15578990Y5559697D01*
X15971630Y5166371D01*
X16484900Y4953243D01*
X17040661Y4952758D01*
X17554303Y5164990D01*
X17947629Y5557630D01*
X18160757Y6070900D01*
X18161080Y6441258D01*
X19138347Y6441258D01*
X21590000Y3989605D01*
X24041653Y6441258D01*
X23693216Y6920894D01*
X22342630Y7488958D01*
X20877463Y7496933D01*
X19520774Y6943606D01*
X19486784Y6920894D01*
X19138347Y6441258D01*
X18161080Y6441258D01*
X18161242Y6626661D01*
X17949010Y7140303D01*
X17556370Y7533629D01*
X17043100Y7746757D01*
X16487339Y7747242D01*
X15973697Y7535010D01*
X15580371Y7142370D01*
X15367243Y6629100D01*
X15366758Y6073339D01*
X10032759Y6073339D01*
X10033242Y6626661D01*
X9821010Y7140303D01*
X9428370Y7533629D01*
X8915100Y7746757D01*
X8406233Y7747201D01*
X7822717Y8330717D01*
X7554906Y8509663D01*
X7239000Y8572500D01*
X4151934Y8572500D01*
X4144630Y8579804D01*
X11807409Y8579804D01*
X11892467Y8324461D01*
X12461965Y8116484D01*
X13067700Y8142277D01*
X13507533Y8324461D01*
X13592591Y8579804D01*
X12700000Y9472395D01*
X11807409Y8579804D01*
X4144630Y8579804D01*
X3970500Y8753934D01*
X3970500Y8852119D01*
X4007149Y8867262D01*
X4436231Y9295596D01*
X4444733Y9316072D01*
X4452262Y9297851D01*
X4880596Y8868769D01*
X5440528Y8636265D01*
X6046812Y8635736D01*
X6607149Y8867262D01*
X7036231Y9295596D01*
X7268735Y9855528D01*
X7268765Y9890035D01*
X11164484Y9890035D01*
X11190277Y9284300D01*
X11372461Y8844467D01*
X11627804Y8759409D01*
X12520395Y9652000D01*
X12879605Y9652000D01*
X13772196Y8759409D01*
X14027539Y8844467D01*
X14235516Y9413965D01*
X14216601Y9858188D01*
X18130736Y9858188D01*
X18362262Y9297851D01*
X18790596Y8868769D01*
X19350528Y8636265D01*
X19956812Y8635736D01*
X20517149Y8867262D01*
X20946231Y9295596D01*
X20954733Y9316072D01*
X20962262Y9297851D01*
X21390596Y8868769D01*
X21950528Y8636265D01*
X22556812Y8635736D01*
X23117149Y8867262D01*
X23546231Y9295596D01*
X23778735Y9855528D01*
X23779264Y10461812D01*
X23547738Y11022149D01*
X23119404Y11451231D01*
X22559472Y11683735D01*
X21953188Y11684264D01*
X21392851Y11452738D01*
X20963769Y11024404D01*
X20955267Y11003928D01*
X20947738Y11022149D01*
X20519404Y11451231D01*
X19959472Y11683735D01*
X19353188Y11684264D01*
X18792851Y11452738D01*
X18363769Y11024404D01*
X18131265Y10464472D01*
X18130736Y9858188D01*
X14216601Y9858188D01*
X14209723Y10019700D01*
X14027539Y10459533D01*
X13772196Y10544591D01*
X12879605Y9652000D01*
X12520395Y9652000D01*
X11627804Y10544591D01*
X11372461Y10459533D01*
X11164484Y9890035D01*
X7268765Y9890035D01*
X7269264Y10461812D01*
X7160850Y10724196D01*
X11807409Y10724196D01*
X12700000Y9831605D01*
X13592591Y10724196D01*
X13507533Y10979539D01*
X12938035Y11187516D01*
X12332300Y11161723D01*
X11892467Y10979539D01*
X11807409Y10724196D01*
X7160850Y10724196D01*
X7037738Y11022149D01*
X6609404Y11451231D01*
X6049472Y11683735D01*
X5443188Y11684264D01*
X4882851Y11452738D01*
X4453769Y11024404D01*
X4445267Y11003928D01*
X4437738Y11022149D01*
X4009404Y11451231D01*
X3449472Y11683735D01*
X2843188Y11684264D01*
X2349500Y11480277D01*
X2349500Y12169339D01*
X6857758Y12169339D01*
X7069990Y11655697D01*
X7462630Y11262371D01*
X7975900Y11049243D01*
X8531661Y11048758D01*
X9045303Y11260990D01*
X9438629Y11653630D01*
X9651757Y12166900D01*
X9652242Y12722661D01*
X9440010Y13236303D01*
X9047370Y13629629D01*
X8534100Y13842757D01*
X7978339Y13843242D01*
X7464697Y13631010D01*
X7071371Y13238370D01*
X6858243Y12725100D01*
X6857758Y12169339D01*
X2349500Y12169339D01*
X2349500Y13247066D01*
X2582095Y13479661D01*
X2610222Y13437567D01*
X3145845Y13079675D01*
X3777655Y12954000D01*
X3842345Y12954000D01*
X4474155Y13079675D01*
X5009778Y13437567D01*
X5367670Y13973190D01*
X5493345Y14605000D01*
X5367670Y15236810D01*
X5009778Y15772433D01*
X4856276Y15875000D01*
X5009778Y15977567D01*
X5367670Y16513190D01*
X5493345Y17145000D01*
X5367670Y17776810D01*
X5009778Y18312433D01*
X4474155Y18670325D01*
X3842345Y18796000D01*
X3777655Y18796000D01*
X3145845Y18670325D01*
X2610222Y18312433D01*
X2252330Y17776810D01*
X2126655Y17145000D01*
X2252330Y16513190D01*
X2610222Y15977567D01*
X2763724Y15875000D01*
X2610222Y15772433D01*
X2357493Y15394198D01*
X2224094Y15367663D01*
X1956283Y15188717D01*
X1345000Y14577434D01*
X1345000Y20297339D01*
X6857758Y20297339D01*
X7069990Y19783697D01*
X7462630Y19390371D01*
X7975900Y19177243D01*
X8531661Y19176758D01*
X9031261Y19383188D01*
X11175736Y19383188D01*
X11407262Y18822851D01*
X11814737Y18414664D01*
X11408769Y18009404D01*
X11176265Y17449472D01*
X11175736Y16843188D01*
X11407262Y16282851D01*
X11835596Y15853769D01*
X12395528Y15621265D01*
X13001812Y15620736D01*
X13562149Y15852262D01*
X13991231Y16280596D01*
X14223735Y16840528D01*
X14224264Y17446812D01*
X13992738Y18007149D01*
X13585263Y18415336D01*
X13991231Y18820596D01*
X14223735Y19380528D01*
X14224264Y19986812D01*
X13992738Y20547149D01*
X13564404Y20976231D01*
X13004472Y21208735D01*
X12398188Y21209264D01*
X11837851Y20977738D01*
X11408769Y20549404D01*
X11176265Y19989472D01*
X11175736Y19383188D01*
X9031261Y19383188D01*
X9045303Y19388990D01*
X9438629Y19781630D01*
X9651757Y20294900D01*
X9652242Y20850661D01*
X9440010Y21364303D01*
X9216431Y21588273D01*
X9426303Y21674990D01*
X9819629Y22067630D01*
X10032757Y22580900D01*
X10033242Y23136661D01*
X9821010Y23650303D01*
X9428370Y24043629D01*
X8915100Y24256757D01*
X8359339Y24257242D01*
X7845697Y24045010D01*
X7452371Y23652370D01*
X7239243Y23139100D01*
X7238758Y22583339D01*
X7450990Y22069697D01*
X7674569Y21845727D01*
X7464697Y21759010D01*
X7071371Y21366370D01*
X6858243Y20853100D01*
X6857758Y20297339D01*
X1345000Y20297339D01*
X1345000Y21301421D01*
X1822786Y21301421D01*
X2010408Y20847343D01*
X2357515Y20499629D01*
X2811266Y20311215D01*
X3302579Y20310786D01*
X3756657Y20498408D01*
X3941837Y20683265D01*
X4914870Y20683265D01*
X4964383Y20457836D01*
X5429036Y20298193D01*
X5919413Y20328518D01*
X6231617Y20457836D01*
X6281130Y20683265D01*
X5598000Y21366395D01*
X4914870Y20683265D01*
X3941837Y20683265D01*
X4104371Y20845515D01*
X4292785Y21299266D01*
X4293031Y21581030D01*
X4358479Y21580973D01*
X4380518Y21224587D01*
X4509836Y20912383D01*
X4735265Y20862870D01*
X5418395Y21546000D01*
X5777605Y21546000D01*
X6460735Y20862870D01*
X6686164Y20912383D01*
X6845807Y21377036D01*
X6815482Y21867413D01*
X6686164Y22179617D01*
X6460735Y22229130D01*
X5777605Y21546000D01*
X5418395Y21546000D01*
X5404253Y21560142D01*
X5583858Y21739747D01*
X5598000Y21725605D01*
X6281130Y22408735D01*
X6231617Y22634164D01*
X5766964Y22793807D01*
X5562970Y22781192D01*
X5563214Y23060579D01*
X5375592Y23514657D01*
X5028485Y23862371D01*
X4574734Y24050785D01*
X4083421Y24051214D01*
X3629343Y23863592D01*
X3281629Y23516485D01*
X3093215Y23062734D01*
X3092969Y22780970D01*
X2813421Y22781214D01*
X2359343Y22593592D01*
X2011629Y22246485D01*
X1823215Y21792734D01*
X1822786Y21301421D01*
X1345000Y21301421D01*
X1345000Y24060070D01*
X1400478Y24338979D01*
X1518856Y24516145D01*
X1696019Y24634521D01*
X1974931Y24690000D01*
X23425070Y24690000D01*
X23703979Y24634522D01*
X23703979Y24634522D01*
G37*
X23703979Y24634522D02*
X23881145Y24516144D01*
X23999521Y24338981D01*
X24055000Y24060069D01*
X24055000Y22580110D01*
X23754404Y22881231D01*
X23194472Y23113735D01*
X22588188Y23114264D01*
X22027851Y22882738D01*
X21598769Y22454404D01*
X21590267Y22433928D01*
X21582738Y22452149D01*
X21154404Y22881231D01*
X20594472Y23113735D01*
X19988188Y23114264D01*
X19427851Y22882738D01*
X18998769Y22454404D01*
X18766265Y21894472D01*
X18765736Y21288188D01*
X18997262Y20727851D01*
X19425596Y20298769D01*
X19464500Y20282615D01*
X19464500Y19996934D01*
X19343066Y19875500D01*
X18367607Y19875500D01*
X18541757Y20294900D01*
X18542242Y20850661D01*
X18330010Y21364303D01*
X17937370Y21757629D01*
X17725299Y21845688D01*
X17947629Y22067630D01*
X18160757Y22580900D01*
X18161242Y23136661D01*
X17949010Y23650303D01*
X17556370Y24043629D01*
X17043100Y24256757D01*
X16487339Y24257242D01*
X15973697Y24045010D01*
X15580371Y23652370D01*
X15367243Y23139100D01*
X15366758Y22583339D01*
X15578990Y22069697D01*
X15971630Y21676371D01*
X16183701Y21588312D01*
X15961371Y21366370D01*
X15748243Y20853100D01*
X15747758Y20297339D01*
X15959990Y19783697D01*
X16036315Y19707238D01*
X15926283Y19633717D01*
X15926281Y19633714D01*
X14656283Y18363717D01*
X14477337Y18095906D01*
X14477337Y18095905D01*
X14414500Y17780000D01*
X14414500Y14692934D01*
X13892314Y14170748D01*
X13564404Y14499231D01*
X13004472Y14731735D01*
X12398188Y14732264D01*
X11837851Y14500738D01*
X11408769Y14072404D01*
X11176265Y13512472D01*
X11175736Y12906188D01*
X11407262Y12345851D01*
X11835596Y11916769D01*
X12395528Y11684265D01*
X13001812Y11683736D01*
X13562149Y11915262D01*
X13816669Y12169339D01*
X15747758Y12169339D01*
X15959990Y11655697D01*
X16352630Y11262371D01*
X16865900Y11049243D01*
X17421661Y11048758D01*
X17935303Y11260990D01*
X18328629Y11653630D01*
X18541757Y12166900D01*
X18542242Y12722661D01*
X18330010Y13236303D01*
X17937370Y13629629D01*
X17424100Y13842757D01*
X16868339Y13843242D01*
X16354697Y13631010D01*
X15961371Y13238370D01*
X15748243Y12725100D01*
X15747758Y12169339D01*
X13816669Y12169339D01*
X13991231Y12343596D01*
X14007385Y12382500D01*
X14097000Y12382500D01*
X14412906Y12445337D01*
X14680717Y12624283D01*
X15823717Y13767283D01*
X16002663Y14035094D01*
X16039851Y14222056D01*
X19984025Y14222056D01*
X20183615Y13740182D01*
X20621621Y13267812D01*
X21207054Y12999017D01*
X21463000Y13117633D01*
X21463000Y14478000D01*
X21717000Y14478000D01*
X21717000Y13117633D01*
X21972946Y12999017D01*
X22558379Y13267812D01*
X22996385Y13740182D01*
X23195975Y14222056D01*
X23076836Y14478000D01*
X21717000Y14478000D01*
X21463000Y14478000D01*
X20103164Y14478000D01*
X19984025Y14222056D01*
X16039851Y14222056D01*
X16065500Y14351000D01*
X16065500Y16762056D01*
X19984025Y16762056D01*
X20183615Y16280182D01*
X20559321Y15875000D01*
X20183615Y15469818D01*
X19984025Y14987944D01*
X20103164Y14732000D01*
X21463000Y14732000D01*
X21463000Y17018000D01*
X21717000Y17018000D01*
X21717000Y14732000D01*
X23076836Y14732000D01*
X23195975Y14987944D01*
X22996385Y15469818D01*
X22620679Y15875000D01*
X22996385Y16280182D01*
X23195975Y16762056D01*
X23076836Y17018000D01*
X21717000Y17018000D01*
X21463000Y17018000D01*
X20103164Y17018000D01*
X19984025Y16762056D01*
X16065500Y16762056D01*
X16065500Y17438066D01*
X16155377Y17527944D01*
X19984025Y17527944D01*
X20103164Y17272000D01*
X21463000Y17272000D01*
X21463000Y18632367D01*
X21717000Y18632367D01*
X21717000Y17272000D01*
X23076836Y17272000D01*
X23195975Y17527944D01*
X22996385Y18009818D01*
X22558379Y18482188D01*
X21972946Y18750983D01*
X21717000Y18632367D01*
X21463000Y18632367D01*
X21207054Y18750983D01*
X20621621Y18482188D01*
X20183615Y18009818D01*
X19984025Y17527944D01*
X16155377Y17527944D01*
X16851933Y18224500D01*
X19685000Y18224500D01*
X20000906Y18287337D01*
X20268717Y18466283D01*
X20873717Y19071283D01*
X21052663Y19339094D01*
X21115500Y19655000D01*
X21115500Y20282119D01*
X21152149Y20297262D01*
X21581231Y20725596D01*
X21589733Y20746072D01*
X21597262Y20727851D01*
X22025596Y20298769D01*
X22585528Y20066265D01*
X23191812Y20065736D01*
X23752149Y20297262D01*
X24055000Y20599585D01*
X24055000Y12700000D01*
X24109046Y12428295D01*
X24262954Y12197954D01*
X24493295Y12044046D01*
X24690000Y12004919D01*
X24690000Y5921130D01*
X24221258Y6261653D01*
X21769605Y3810000D01*
X21783748Y3795857D01*
X21604143Y3616252D01*
X21590000Y3630395D01*
X19138347Y1178742D01*
X19478870Y710000D01*
X5917684Y710000D01*
X6930475Y1721024D01*
X7492359Y3074192D01*
X7492379Y3097463D01*
X17903067Y3097463D01*
X18456394Y1740774D01*
X18479106Y1706784D01*
X18958742Y1358347D01*
X21410395Y3810000D01*
X18958742Y6261653D01*
X18479106Y5913216D01*
X17911042Y4562630D01*
X17903067Y3097463D01*
X7492379Y3097463D01*
X7493638Y4539380D01*
X6934116Y5893526D01*
X5907935Y6921500D01*
X6897066Y6921500D01*
X7239200Y6579367D01*
X7238758Y6073339D01*
X7450990Y5559697D01*
X7843630Y5166371D01*
X8356900Y4953243D01*
X8912661Y4952758D01*
X9426303Y5164990D01*
X9819629Y5557630D01*
X10032757Y6070900D01*
X10032759Y6073339D01*
X15366758Y6073339D01*
X15578990Y5559697D01*
X15971630Y5166371D01*
X16484900Y4953243D01*
X17040661Y4952758D01*
X17554303Y5164990D01*
X17947629Y5557630D01*
X18160757Y6070900D01*
X18161080Y6441258D01*
X19138347Y6441258D01*
X21590000Y3989605D01*
X24041653Y6441258D01*
X23693216Y6920894D01*
X22342630Y7488958D01*
X20877463Y7496933D01*
X19520774Y6943606D01*
X19486784Y6920894D01*
X19138347Y6441258D01*
X18161080Y6441258D01*
X18161242Y6626661D01*
X17949010Y7140303D01*
X17556370Y7533629D01*
X17043100Y7746757D01*
X16487339Y7747242D01*
X15973697Y7535010D01*
X15580371Y7142370D01*
X15367243Y6629100D01*
X15366758Y6073339D01*
X10032759Y6073339D01*
X10033242Y6626661D01*
X9821010Y7140303D01*
X9428370Y7533629D01*
X8915100Y7746757D01*
X8406233Y7747201D01*
X7822717Y8330717D01*
X7554906Y8509663D01*
X7239000Y8572500D01*
X4151934Y8572500D01*
X4144630Y8579804D01*
X11807409Y8579804D01*
X11892467Y8324461D01*
X12461965Y8116484D01*
X13067700Y8142277D01*
X13507533Y8324461D01*
X13592591Y8579804D01*
X12700000Y9472395D01*
X11807409Y8579804D01*
X4144630Y8579804D01*
X3970500Y8753934D01*
X3970500Y8852119D01*
X4007149Y8867262D01*
X4436231Y9295596D01*
X4444733Y9316072D01*
X4452262Y9297851D01*
X4880596Y8868769D01*
X5440528Y8636265D01*
X6046812Y8635736D01*
X6607149Y8867262D01*
X7036231Y9295596D01*
X7268735Y9855528D01*
X7268765Y9890035D01*
X11164484Y9890035D01*
X11190277Y9284300D01*
X11372461Y8844467D01*
X11627804Y8759409D01*
X12520395Y9652000D01*
X12879605Y9652000D01*
X13772196Y8759409D01*
X14027539Y8844467D01*
X14235516Y9413965D01*
X14216601Y9858188D01*
X18130736Y9858188D01*
X18362262Y9297851D01*
X18790596Y8868769D01*
X19350528Y8636265D01*
X19956812Y8635736D01*
X20517149Y8867262D01*
X20946231Y9295596D01*
X20954733Y9316072D01*
X20962262Y9297851D01*
X21390596Y8868769D01*
X21950528Y8636265D01*
X22556812Y8635736D01*
X23117149Y8867262D01*
X23546231Y9295596D01*
X23778735Y9855528D01*
X23779264Y10461812D01*
X23547738Y11022149D01*
X23119404Y11451231D01*
X22559472Y11683735D01*
X21953188Y11684264D01*
X21392851Y11452738D01*
X20963769Y11024404D01*
X20955267Y11003928D01*
X20947738Y11022149D01*
X20519404Y11451231D01*
X19959472Y11683735D01*
X19353188Y11684264D01*
X18792851Y11452738D01*
X18363769Y11024404D01*
X18131265Y10464472D01*
X18130736Y9858188D01*
X14216601Y9858188D01*
X14209723Y10019700D01*
X14027539Y10459533D01*
X13772196Y10544591D01*
X12879605Y9652000D01*
X12520395Y9652000D01*
X11627804Y10544591D01*
X11372461Y10459533D01*
X11164484Y9890035D01*
X7268765Y9890035D01*
X7269264Y10461812D01*
X7160850Y10724196D01*
X11807409Y10724196D01*
X12700000Y9831605D01*
X13592591Y10724196D01*
X13507533Y10979539D01*
X12938035Y11187516D01*
X12332300Y11161723D01*
X11892467Y10979539D01*
X11807409Y10724196D01*
X7160850Y10724196D01*
X7037738Y11022149D01*
X6609404Y11451231D01*
X6049472Y11683735D01*
X5443188Y11684264D01*
X4882851Y11452738D01*
X4453769Y11024404D01*
X4445267Y11003928D01*
X4437738Y11022149D01*
X4009404Y11451231D01*
X3449472Y11683735D01*
X2843188Y11684264D01*
X2349500Y11480277D01*
X2349500Y12169339D01*
X6857758Y12169339D01*
X7069990Y11655697D01*
X7462630Y11262371D01*
X7975900Y11049243D01*
X8531661Y11048758D01*
X9045303Y11260990D01*
X9438629Y11653630D01*
X9651757Y12166900D01*
X9652242Y12722661D01*
X9440010Y13236303D01*
X9047370Y13629629D01*
X8534100Y13842757D01*
X7978339Y13843242D01*
X7464697Y13631010D01*
X7071371Y13238370D01*
X6858243Y12725100D01*
X6857758Y12169339D01*
X2349500Y12169339D01*
X2349500Y13247066D01*
X2582095Y13479661D01*
X2610222Y13437567D01*
X3145845Y13079675D01*
X3777655Y12954000D01*
X3842345Y12954000D01*
X4474155Y13079675D01*
X5009778Y13437567D01*
X5367670Y13973190D01*
X5493345Y14605000D01*
X5367670Y15236810D01*
X5009778Y15772433D01*
X4856276Y15875000D01*
X5009778Y15977567D01*
X5367670Y16513190D01*
X5493345Y17145000D01*
X5367670Y17776810D01*
X5009778Y18312433D01*
X4474155Y18670325D01*
X3842345Y18796000D01*
X3777655Y18796000D01*
X3145845Y18670325D01*
X2610222Y18312433D01*
X2252330Y17776810D01*
X2126655Y17145000D01*
X2252330Y16513190D01*
X2610222Y15977567D01*
X2763724Y15875000D01*
X2610222Y15772433D01*
X2357493Y15394198D01*
X2224094Y15367663D01*
X1956283Y15188717D01*
X1345000Y14577434D01*
X1345000Y20297339D01*
X6857758Y20297339D01*
X7069990Y19783697D01*
X7462630Y19390371D01*
X7975900Y19177243D01*
X8531661Y19176758D01*
X9031261Y19383188D01*
X11175736Y19383188D01*
X11407262Y18822851D01*
X11814737Y18414664D01*
X11408769Y18009404D01*
X11176265Y17449472D01*
X11175736Y16843188D01*
X11407262Y16282851D01*
X11835596Y15853769D01*
X12395528Y15621265D01*
X13001812Y15620736D01*
X13562149Y15852262D01*
X13991231Y16280596D01*
X14223735Y16840528D01*
X14224264Y17446812D01*
X13992738Y18007149D01*
X13585263Y18415336D01*
X13991231Y18820596D01*
X14223735Y19380528D01*
X14224264Y19986812D01*
X13992738Y20547149D01*
X13564404Y20976231D01*
X13004472Y21208735D01*
X12398188Y21209264D01*
X11837851Y20977738D01*
X11408769Y20549404D01*
X11176265Y19989472D01*
X11175736Y19383188D01*
X9031261Y19383188D01*
X9045303Y19388990D01*
X9438629Y19781630D01*
X9651757Y20294900D01*
X9652242Y20850661D01*
X9440010Y21364303D01*
X9216431Y21588273D01*
X9426303Y21674990D01*
X9819629Y22067630D01*
X10032757Y22580900D01*
X10033242Y23136661D01*
X9821010Y23650303D01*
X9428370Y24043629D01*
X8915100Y24256757D01*
X8359339Y24257242D01*
X7845697Y24045010D01*
X7452371Y23652370D01*
X7239243Y23139100D01*
X7238758Y22583339D01*
X7450990Y22069697D01*
X7674569Y21845727D01*
X7464697Y21759010D01*
X7071371Y21366370D01*
X6858243Y20853100D01*
X6857758Y20297339D01*
X1345000Y20297339D01*
X1345000Y21301421D01*
X1822786Y21301421D01*
X2010408Y20847343D01*
X2357515Y20499629D01*
X2811266Y20311215D01*
X3302579Y20310786D01*
X3756657Y20498408D01*
X3941837Y20683265D01*
X4914870Y20683265D01*
X4964383Y20457836D01*
X5429036Y20298193D01*
X5919413Y20328518D01*
X6231617Y20457836D01*
X6281130Y20683265D01*
X5598000Y21366395D01*
X4914870Y20683265D01*
X3941837Y20683265D01*
X4104371Y20845515D01*
X4292785Y21299266D01*
X4293031Y21581030D01*
X4358479Y21580973D01*
X4380518Y21224587D01*
X4509836Y20912383D01*
X4735265Y20862870D01*
X5418395Y21546000D01*
X5777605Y21546000D01*
X6460735Y20862870D01*
X6686164Y20912383D01*
X6845807Y21377036D01*
X6815482Y21867413D01*
X6686164Y22179617D01*
X6460735Y22229130D01*
X5777605Y21546000D01*
X5418395Y21546000D01*
X5404253Y21560142D01*
X5583858Y21739747D01*
X5598000Y21725605D01*
X6281130Y22408735D01*
X6231617Y22634164D01*
X5766964Y22793807D01*
X5562970Y22781192D01*
X5563214Y23060579D01*
X5375592Y23514657D01*
X5028485Y23862371D01*
X4574734Y24050785D01*
X4083421Y24051214D01*
X3629343Y23863592D01*
X3281629Y23516485D01*
X3093215Y23062734D01*
X3092969Y22780970D01*
X2813421Y22781214D01*
X2359343Y22593592D01*
X2011629Y22246485D01*
X1823215Y21792734D01*
X1822786Y21301421D01*
X1345000Y21301421D01*
X1345000Y24060070D01*
X1400478Y24338979D01*
X1518856Y24516145D01*
X1696019Y24634521D01*
X1974931Y24690000D01*
X23425070Y24690000D01*
X23703979Y24634522D01*
M02*
