G04 #@! TF.FileFunction,Soldermask,Top*
%FSLAX46Y46*%
G04 Gerber Fmt 4.6, Leading zero omitted, Abs format (unit mm)*
G04 Created by KiCad (PCBNEW 4.0.1-3.201512221401+6198~38~ubuntu15.10.1-stable) date Sun Feb 28 18:25:08 2016*
%MOMM*%
G01*
G04 APERTURE LIST*
%ADD10C,0.050800*%
%ADD11C,0.150000*%
%ADD12C,2.432000*%
%ADD13C,6.496000*%
%ADD14C,2.178000*%
%ADD15C,1.670000*%
G04 APERTURE END LIST*
D10*
D11*
X3810000Y25400000D02*
G75*
G03X0Y21590000I0J-3810000D01*
G01*
X0Y3810000D02*
G75*
G03X3810000Y0I3810000J0D01*
G01*
X21590000Y0D02*
G75*
G03X25400000Y3810000I0J3810000D01*
G01*
X25400000Y21590000D02*
G75*
G03X21590000Y25400000I-3810000J0D01*
G01*
X0Y3810000D02*
X0Y21590000D01*
X21590000Y0D02*
X3810000Y0D01*
X25400000Y21590000D02*
X25400000Y3810000D01*
X3810000Y25400000D02*
X21590000Y25400000D01*
D12*
X3810000Y17145000D03*
X3810000Y14605000D03*
X21590000Y17145000D03*
X21590000Y14605000D03*
D13*
X21590000Y3810000D03*
X3810000Y3810000D03*
D14*
X8255000Y19939000D03*
X8255000Y11811000D03*
X8636000Y22860000D03*
X16764000Y22860000D03*
X17145000Y19939000D03*
X17145000Y11811000D03*
X16764000Y6350000D03*
X8636000Y6350000D03*
X4445000Y11430000D03*
X4445000Y8890000D03*
X20955000Y11430000D03*
X20955000Y8890000D03*
X21590000Y22860000D03*
X21590000Y20320000D03*
X12700000Y13208000D03*
X12700000Y9652000D03*
X12700000Y19685000D03*
X12700000Y17145000D03*
D15*
X3810000Y20320000D03*
X2540000Y21590000D03*
X5080000Y21590000D03*
X25400000Y20955000D03*
X0Y20955000D03*
X0Y19685000D03*
X0Y18415000D03*
X0Y17145000D03*
X0Y15875000D03*
X0Y14605000D03*
X0Y13335000D03*
X0Y12065000D03*
X0Y10795000D03*
X0Y9525000D03*
X0Y8255000D03*
X0Y6985000D03*
X0Y5715000D03*
X0Y4445000D03*
X25400000Y19685000D03*
X25400000Y18415000D03*
X25400000Y17145000D03*
X25400000Y15875000D03*
X25400000Y14605000D03*
X25400000Y13335000D03*
X25400000Y12065000D03*
X25400000Y10795000D03*
X25400000Y9525000D03*
X25400000Y8255000D03*
X25400000Y6985000D03*
X25400000Y5715000D03*
X25400000Y4445000D03*
M02*
