M48
;DRILL file {KiCad 4.0.1-3.201512221401+6198~38~ubuntu15.10.1-stable} date Sun Feb 28 18:25:22 2016
;FORMAT={2:4/ absolute / inch / keep zeros}
FMAT,2
INCH,TZ
T1C0.032
T2C0.040
T3C0.120
%
G90
G05
M72
T1
X000000Y008250
X000000Y007750
X000000Y007250
X000000Y006750
X000000Y006250
X000000Y005750
X000000Y005250
X000000Y004750
X000000Y004250
X000000Y003750
X000000Y003250
X000000Y002750
X000000Y002250
X000000Y001750
X001000Y008500
X001500Y008000
X001750Y004500
X001750Y003500
X002000Y008500
X003250Y007850
X003250Y004650
X003400Y009000
X003400Y002500
X005000Y007750
X005000Y006750
X006600Y009000
X006600Y002500
X006750Y007850
X006750Y004650
X008250Y004500
X008250Y003500
X008500Y009000
X008500Y008000
X010000Y008250
X010000Y007750
X010000Y007250
X010000Y006750
X010000Y006250
X010000Y005750
X010000Y005250
X010000Y004750
X010000Y004250
X010000Y003750
X010000Y003250
X010000Y002750
X010000Y002250
X010000Y001750
T2
X001500Y006750
X001500Y005750
X005000Y005200
X005000Y003800
X008500Y006750
X008500Y005750
T3
X001500Y001500
X008500Y001500
T0
M30
