G04 #@! TF.FileFunction,Soldermask,Top*
%FSLAX46Y46*%
G04 Gerber Fmt 4.6, Leading zero omitted, Abs format (unit mm)*
G04 Created by KiCad (PCBNEW 4.0.1-3.201512221401+6198~38~ubuntu15.10.1-stable) date Wed Mar  2 23:22:26 2016*
%MOMM*%
G01*
G04 APERTURE LIST*
%ADD10C,0.050800*%
%ADD11C,1.670000*%
%ADD12C,2.432000*%
%ADD13C,6.496000*%
%ADD14C,2.178000*%
%ADD15R,0.999440X1.400760*%
%ADD16C,1.600000*%
%ADD17R,1.850000X1.400000*%
%ADD18C,1.924000*%
%ADD19R,1.400000X1.850000*%
%ADD20R,2.400000X2.900000*%
G04 APERTURE END LIST*
D10*
D11*
X0Y4445000D03*
X0Y5715000D03*
X0Y6985000D03*
X0Y8255000D03*
X0Y9525000D03*
X0Y10795000D03*
X25400000Y4445000D03*
X25400000Y5715000D03*
X25400000Y6985000D03*
X25400000Y8255000D03*
X25400000Y9525000D03*
X25400000Y10795000D03*
D12*
X3810000Y17145000D03*
X3810000Y14605000D03*
X21590000Y17145000D03*
X21590000Y14605000D03*
D13*
X21590000Y3810000D03*
X3810000Y3810000D03*
D14*
X12700000Y13208000D03*
X12700000Y9652000D03*
X12700000Y19685000D03*
X12700000Y17145000D03*
D11*
X25400000Y12065000D03*
X0Y12065000D03*
D15*
X5270500Y23662640D03*
X4318000Y21549360D03*
X3365500Y23662640D03*
D16*
X4328000Y22816000D03*
X5598000Y21546000D03*
X3058000Y21546000D03*
D17*
X8255000Y15560000D03*
X8255000Y17460000D03*
D18*
X8255000Y12446000D03*
X8255000Y20574000D03*
D19*
X13650000Y22860000D03*
X11750000Y22860000D03*
D18*
X16764000Y22860000D03*
X8636000Y22860000D03*
D17*
X17145000Y15560000D03*
X17145000Y17460000D03*
D18*
X17145000Y12446000D03*
X17145000Y20574000D03*
D19*
X11750000Y6350000D03*
X13650000Y6350000D03*
D18*
X8636000Y6350000D03*
X16764000Y6350000D03*
D20*
X23590000Y21590000D03*
X19590000Y21590000D03*
D14*
X22890000Y21590000D03*
X20290000Y21590000D03*
D20*
X22955000Y10160000D03*
X18955000Y10160000D03*
D14*
X22255000Y10160000D03*
X19655000Y10160000D03*
D20*
X6445000Y10160000D03*
X2445000Y10160000D03*
D14*
X5745000Y10160000D03*
X3145000Y10160000D03*
M02*
