M48
INCH,TZ
T1C0.030
T2C0.032
T3C0.040
T4C0.120
%
G90
G05
T1
X003250Y008100
X003250Y004900
X003400Y009000
X003400Y002500
X006600Y009000
X006600Y002500
X006750Y008100
X006750Y004900
T2
X000000Y004750
X000000Y004250
X000000Y003750
X000000Y003250
X000000Y002750
X000000Y002250
X000000Y001750
X001204Y008483
X001238Y004000
X001704Y008983
X002204Y008483
X002262Y004000
X005000Y007750
X005000Y006750
X007738Y004000
X007988Y008500
X008762Y004000
X009012Y008500
X010000Y004750
X010000Y004250
X010000Y003750
X010000Y003250
X010000Y002750
X010000Y002250
X010000Y001750
T3
X001500Y006750
X001500Y005750
X005000Y005200
X005000Y003800
X008500Y006750
X008500Y005750
T4
X001500Y001500
X008500Y001500
T0
M30
